<svg width="271" height="647" viewBox="0 0 271 647" fill="none" xmlns="http://www.w3.org/2000/svg">
<path d="M21.5845 376.216C15.4803 383.812 19.1342 396.655 26.7996 402.011C31.1039 405.019 28.6427 409.26 28.9571 412.917C29.2933 416.899 29.0547 421.01 23.4168 421.432C22.5711 421.497 21.8013 422.19 20.9448 422.449C8.97502 426.085 1.89511 432.793 2.46975 446.61C2.86006 456.045 0.854207 465.578 0.0410445 475.077C-0.0782193 476.408 0.0302156 478.605 0.800009 479.038C5.31035 481.602 3.90091 485.757 4.30207 489.544C4.55144 491.989 5.5489 494.359 6.38375 497.41C3.95511 500.061 2.97932 516.28 6.60061 520.186C9.56052 523.378 13.5938 526.137 17.6813 527.576C21.4543 528.906 25.943 528.214 30.7244 528.441C29.6511 537.076 37.9236 539.337 44.5048 542.962C50.3379 546.175 56.4312 543.308 58.1768 536.729C59.1634 533.007 60.0416 529.253 62.2751 525.585C62.2751 528.311 62.2751 531.038 62.2751 533.765C62.2751 537.725 61.7221 541.782 62.3944 545.634C63.5653 552.364 62.3944 557.168 55.6939 560.652C51.5197 562.816 51.2269 567.815 52.257 572.251C53.0267 575.529 54.3278 578.689 55.5964 582.508C52.9617 584.023 50.2403 585.689 47.4213 587.161C43.8326 589.033 41.7509 591.727 40.9486 595.828C38.9645 606.009 38.7693 606.074 47.7032 611.008C62.7847 619.339 77.5626 628.363 93.1753 635.58C109.265 643.013 126.753 646.259 144.535 646.995C146.833 647.092 149.327 645.772 151.506 644.669C154.715 643.046 157.524 640.481 160.852 639.302C167.216 637.041 167.433 632.615 166.295 627.216C162.099 607.329 150.194 592.647 134.592 580.507C130.494 577.315 126.081 574.512 121.69 571.721C114.437 567.101 105.6 564.136 103.898 553.987C92.3188 543.513 99.0843 529.75 97.4688 517.502C97.3495 516.615 98.8457 515.014 99.9299 514.548C109.211 510.61 109.439 500.818 105.329 492.974C104.668 491.708 104.137 490.171 103.096 489.316C97.1002 484.383 96.7641 477.934 97.2086 470.869C97.6748 463.511 97.4688 456.099 97.2411 448.72C97.1435 445.561 98.0759 443.851 101.166 442.78C108.203 440.335 114.057 436.613 116.172 428.649C116.594 427.048 119.37 424.971 121.007 425.003C126.276 425.122 129.063 422.936 132.37 418.782C135.557 414.767 141.445 412.874 147.148 409.455C147.148 420.437 147.267 430.056 147.017 439.664C146.985 441.081 145.575 442.932 144.274 443.775C136.967 448.525 134.994 452.745 137.585 460.86C138.647 464.203 140.165 467.926 142.67 470.165C146.671 473.757 147.343 477.674 147.137 482.587C146.887 488.494 147.733 494.445 147.429 500.353C147.31 502.657 145.933 505.665 144.133 506.975C136.652 512.395 135.069 516.539 138.235 525.249C138.962 527.24 139.753 529.209 140.675 531.579C138.691 532.748 136.945 534.013 135.026 534.857C129.117 537.443 126.038 541.598 125.03 548.209C124.281 553.089 125.008 556.032 129.421 558.337C147.69 567.88 164.094 580.874 184.065 587.345C198.182 591.922 212.482 595.633 227.336 595.654C231.988 595.654 236.975 593.263 241.225 590.915C253.13 584.348 253.715 582.357 249.205 569.265C244.077 554.409 235.175 542.063 222.707 532.639C213.99 526.05 204.448 520.554 195.406 514.386C193.801 513.293 192.652 511.389 191.622 509.669C189.887 506.769 189.031 503.069 186.689 500.872C182.428 496.858 181.485 492.368 181.821 486.904C182.189 480.985 181.658 475.013 182.038 469.083C182.157 467.168 183.404 464.647 184.943 463.608C192.75 458.35 194.734 452.605 190.907 443.927C189.909 441.655 188.825 439.08 187.014 437.543C182.016 433.323 181.593 428.011 181.821 422.092C182.146 413.815 181.897 405.527 182.005 397.239C182.059 392.814 183.425 391.97 187.133 393.009C187.133 396.547 187.025 399.771 187.188 402.984C187.253 404.185 188.272 405.354 188.304 406.555C188.5 416.499 195.981 420.221 203.429 423.337C206.194 424.494 210 423.142 214.044 422.882C214.196 431.711 222.067 434.752 229.223 438.43C233.733 440.746 240.878 437.781 241.301 432.782C241.843 426.301 246.006 419.777 241.67 413.198C245.833 408.265 240.163 400.907 246.31 395.919C248.175 394.404 247.069 389.232 247.362 385.067C252.1 386.246 256.74 387.393 261.381 388.562C269.003 390.477 271.561 387.923 270.9 380.252C270.38 374.16 268.081 369.832 262.649 366.922C257.196 363.99 251.883 360.754 246.624 357.487C245.356 356.697 243.805 355.344 243.61 354.068C242.288 345.758 236.422 340.738 230.958 335.23C229.169 333.434 227.792 330.578 227.51 328.067C226.545 319.303 226.046 310.496 225.601 301.689C225.504 299.698 225.645 297.058 226.827 295.748C230.686 291.453 229.722 286.368 227.651 282.721C223.964 276.24 224.311 269.305 222.923 262.542C221.286 254.557 221.438 248.768 229.852 243.672C236.108 239.885 235.002 231.457 233.115 224.672C228.865 209.362 219.942 197.742 204.828 190.849C206.161 186.889 208.135 182.983 208.731 178.872C210.173 168.95 211.919 158.931 211.821 148.976C211.68 134.261 209.989 119.568 209.045 104.864C208.449 95.6343 201.315 89.5427 197.921 81.5901C191.373 66.2583 181.105 53.599 166.056 45.3975C155.691 39.7495 144.751 35.8868 132.977 34.491C130.494 34.1989 128.033 33.8418 123.88 33.3008C135.481 28.3561 141.455 21.4855 136.782 9.8433C134.126 3.22152 126.222 -0.965786 119.684 0.191943C111.683 1.59853 106.533 7.08422 105.644 15.1342C104.787 22.8705 108.929 28.4211 118.741 32.2946C118.091 33.0736 116.898 34.1448 117.05 34.3828C120.508 40.0308 116.085 41.2643 112.431 43.3309C108.528 45.5382 104.733 48.0484 101.22 50.8399C94.4655 56.2174 93.3921 56.3797 84.5015 50.4287C94.2812 44.7483 103.465 39.4033 113.244 33.7228C104.592 32.5435 96.8833 34.4694 89.6624 37.975C62.1884 51.316 44.2554 72.8692 38.4006 102.732C33.8686 125.887 33.5651 149.572 36.6768 173.137C37.2731 177.649 37.8477 182.237 37.6851 186.76C37.3707 195.632 45.9143 211.234 57.0167 213.268C61.2018 214.036 64.8555 217.997 68.5093 220.831C69.0189 221.221 68.5093 223.753 67.7612 224.77C62.7847 231.521 57.7756 238.273 52.4088 244.722C50.7716 246.691 48.1478 248.043 45.7299 249.158C31.1147 255.964 25.3467 268.039 24.6311 283.381C24.5227 285.675 23.8939 288.856 22.3217 290.025C14.4612 295.878 13.0517 303.95 14.1684 312.638C14.7973 317.529 16.2718 322.593 18.592 326.921C21.0098 331.454 21.8989 335.879 21.4869 340.792C20.8906 347.954 20.0015 355.117 19.8606 362.291C19.7738 366.5 20.8797 370.73 21.617 376.194L21.5845 376.216ZM38.0212 167.154C36.5358 145.904 37.0996 125.194 40.4173 104.734C43.4314 86.1452 52.7231 70.5213 65.7012 56.8774C70.114 52.2357 76.6627 52.9173 80.9453 55.7197C83.2873 57.2561 85.9544 58.3273 88.5132 59.5175C92.9042 61.5516 97.5989 63.0772 101.676 65.6091C112.648 72.404 123.392 79.5667 134.148 86.6971C137.585 88.9801 141.152 91.2847 143.992 94.2169C146.551 96.857 147.44 95.7533 149.923 94.0221C156.038 89.7483 162.381 85.139 169.352 82.9858C173.299 81.7632 173.234 80.5946 172.247 78.3441C167.281 67.0048 162.554 55.4275 151.365 48.373C145.478 44.6617 139.623 40.9072 133.757 37.1527C134.104 37.0662 134.462 36.8606 134.788 36.9147C166.826 42.5302 188.565 60.5021 199.559 91.0791C200.437 93.5136 200.415 96.6838 199.721 99.2157C196.707 110.274 192.652 121.083 190.245 132.249C188.304 141.251 187.339 150.664 187.632 159.84C187.762 163.962 191.362 168.604 194.571 171.85C198.756 176.08 203.505 173.754 208.015 169.361C204.622 179.38 198.919 186.294 191.308 191.358C157.664 213.766 121.083 215.551 83.1246 205.803C79.4165 204.85 76.7819 201.81 76.5651 197.071C76.0663 186.63 70.8838 178.753 62.0582 173.191C55.8999 169.307 50.468 172.055 45.177 175.615C43.8217 172.163 42.7375 169.372 41.5991 166.472C40.6124 166.667 39.6042 166.862 38.032 167.154H38.0212ZM110.783 325.936C110.252 321.511 109.959 317.561 109.276 313.677C105.156 290.479 94.6607 270.873 74.9822 257.316C68.4769 252.837 60.4644 250.554 53.5146 247.438C59.3911 241.887 67.0782 242.06 75.2207 244.96C87.1687 249.223 96.3737 257.208 104.007 266.924C107.042 270.787 109.167 270.516 112.832 268.352C128.326 259.21 143.96 250.316 159.551 241.324C169.179 235.774 178.807 230.234 188.575 224.597C186.819 222.076 185.399 220.031 184.651 218.96C187.545 215.443 190.158 212.273 192.836 209.038C194.127 210.001 195.157 210.498 195.807 211.299C206.649 224.683 215.583 239.041 218.738 256.342C220.159 264.122 219.465 265.312 212.027 267.379C209.544 262.358 207.007 257.424 204.644 252.404C203.31 249.58 201.673 249.309 199.114 250.9C193.617 254.308 188.098 257.716 182.406 260.778C179.511 262.337 178.406 264.122 178.471 267.498C178.579 272.864 177.831 278.242 177.636 283.619C177.495 287.298 175.793 289.408 171.824 290.338C172.225 288.77 172.583 287.59 172.822 286.378C173.852 281.196 171.889 277.268 167.639 275.926C163.563 274.639 159.627 276.922 157.73 282.04C155.724 287.439 155.323 292.838 159.714 297.999C157.426 299.276 155.518 300.347 153.805 301.31C151.311 295.64 149.045 290.587 146.866 285.502C145.738 282.884 144.177 282.527 141.802 284.009C138.138 286.292 134.582 288.921 130.602 290.49C121.831 293.952 118.156 299.773 120.031 309.122C120.443 311.167 119.739 313.417 119.771 315.57C119.847 321.467 116.074 323.999 110.805 325.947L110.783 325.936ZM219.682 267.281C220.072 269.553 220.484 271.09 220.592 272.648C222.099 295.088 224.474 317.529 224.561 339.98C224.593 348.56 219.421 357.184 216.462 365.732C216.18 366.543 214.803 367.008 213.87 367.538C200.014 375.556 186.147 383.563 172.291 391.569C154.228 402.011 136.186 412.474 118.069 422.828C116.486 423.737 114.263 424.754 112.745 424.31C109.688 423.434 104.928 413.696 105.145 410.32C105.839 399.555 106.424 388.778 107.086 378.001C107.964 363.643 108.81 349.274 109.861 334.916C110.002 332.936 110.631 330.286 112.008 329.247C116.573 325.806 121.452 322.722 126.45 319.931C136.316 314.413 146.486 309.446 156.255 303.766C171.315 295.023 186.082 285.783 201.098 276.954C206.931 273.524 213.1 270.668 219.66 267.27L219.682 267.281ZM159.508 535.031C163.075 537.249 165.113 538.644 167.271 539.824C173.223 543.091 179.045 546.651 185.247 549.356C189.801 551.336 194.344 550.395 198.008 546.413C200.307 543.914 202.898 541.587 205.684 539.651C206.801 538.872 209.425 538.601 210.26 539.337C222.034 549.756 232.844 560.912 238.222 576.244C239.794 580.712 239.946 584.066 235.078 586.436C233.549 587.183 232.334 588.762 231.25 590.18C228.681 593.545 215.833 594.562 212.732 591.543C207.398 586.339 201.662 585.181 194.246 587.54C193.335 587.832 191.611 587.193 190.95 586.414C185.908 580.474 173.776 576.027 167.401 577.986C165.514 571.71 157.708 566.949 149.511 568.464C152.905 557.114 156.071 546.543 159.508 535.031ZM74.7869 585.798C78.0613 587.799 79.8611 588.849 81.6176 589.974C85.846 592.69 89.9118 595.698 94.3028 598.121C102.369 602.568 107.964 601.757 114.697 595.719C116.833 593.804 118.871 591.727 121.246 590.169C122.265 589.498 124.574 589.303 125.355 589.985C136.295 599.485 146.378 609.785 152.2 623.332C155.995 632.172 155.745 632.269 148.85 638.48C148.318 638.956 147.549 639.345 147.299 639.951C145.781 643.587 143.288 645.004 139.298 644.214C135.774 643.522 130.136 644.517 128.987 642.613C125.789 637.333 120.693 638.599 116.497 637.225C114.567 636.586 112.052 637.928 109.796 637.949C108.528 637.96 107.075 637.365 106.012 636.619C104.278 635.396 102.977 633.438 101.133 632.475C98.6289 631.165 95.8207 630.332 93.0777 629.586C89.7708 628.677 86.3772 628.06 82.4524 627.194C81.9103 622.455 71.8704 617.381 64.7146 619.523C68.1732 607.946 71.3391 597.342 74.7978 585.787L74.7869 585.798ZM204.579 182.334C205.012 182.648 205.457 182.962 205.89 183.276C202.117 189.865 199.103 197.06 194.441 202.946C177.289 224.597 154.184 235.546 126.905 237.526C114.675 238.414 102.424 237.754 91.2562 231.381C83.4932 226.945 79.0154 217.845 80.5008 208.248C82.0295 208.432 83.6233 208.432 85.1087 208.832C107.801 215.032 130.678 215.378 153.566 210.336C173.201 206.008 191.091 198.142 204.579 182.334ZM52.3653 355.474C67.1215 363.871 81.5199 372.072 96.764 380.75C97.9784 362.258 99.0734 345.617 100.168 328.976C100.797 328.857 101.426 328.727 102.044 328.608C102.586 330.588 103.671 332.59 103.573 334.538C102.63 354.317 101.524 374.074 100.407 393.842C100.06 399.89 99.518 405.938 99.0192 412.636C96.9592 411.759 95.2678 411.251 93.7824 410.385C84.3172 404.835 75.0905 398.83 65.3651 393.798C61.3643 391.732 60.768 388.767 61.3643 385.727C62.6112 379.311 60.4645 374.02 56.0409 370.2C51.2595 366.067 51.4329 361.501 52.3762 355.474H52.3653ZM50.121 348.495C49.4054 358.937 48.7007 369.118 47.9309 380.306C49.4272 377.352 50.6089 375.026 51.769 372.732C60.0416 379.852 59.4778 388.951 50.6848 394.415C49.1669 395.356 47.6707 397.531 47.5189 399.262C46.5757 409.639 45.9251 420.037 45.3938 430.445C45.1445 435.282 41.9894 436.007 38.3247 435.715C34.7034 435.433 30.0305 435.715 30.1606 430.229C30.3558 421.995 31.0497 413.783 31.5267 405.722C33.8361 405.213 36.1129 405.289 37.5983 404.25C39.821 402.681 43.1929 400.204 43.0628 398.321C42.6942 392.89 40.7426 387.577 39.5716 382.178C39.3222 381.02 39.7126 379.722 39.7776 378.878C37.6634 376.649 33.8144 374.474 33.7494 372.191C33.5108 363.838 34.53 355.453 35.0938 346.862C40.0812 347.413 44.6566 347.911 50.1319 348.517L50.121 348.495ZM73.1606 241.292C78.1697 238.425 81.997 236.142 85.9327 234.064C86.9519 233.523 88.4698 233.155 89.4889 233.512C96.0701 235.774 102.857 237.7 109.048 240.794C118.036 245.295 126.493 245.598 135.189 240.502C137.151 239.355 139.428 238.717 141.575 237.862C152.2 233.631 162.825 229.401 173.461 225.17C174.969 224.564 176.497 224.002 178.015 223.428C178.232 223.883 178.449 224.337 178.666 224.791C155.127 238.446 131.589 252.09 107.91 265.821C98.5313 254.86 88.2746 245.76 73.1715 241.292H73.1606ZM7.61977 467.363L6.02594 468.174C7.08847 459.075 8.03173 449.964 9.26774 440.887C10.0484 435.141 11.8807 433.605 17.1067 436.266C25.8238 440.713 34.118 446.08 42.1846 451.652C44.5916 453.319 46.8575 456.9 47.031 459.746C47.6165 469.549 47.2587 479.405 47.2587 488.84C44.0061 487.856 41.6316 487.142 39.2572 486.417C38.6392 488.938 38.0212 491.459 37.3923 494.001C36.6225 493.525 34.9962 492.519 33.1314 491.372C36.3732 488.678 37.0887 485.53 34.4216 482.576C33.2289 481.256 30.8545 481.007 29.0222 480.271C28.35 482.857 27.6669 485.443 26.9839 488.072C25.943 487.445 24.154 486.363 22.3542 485.281C22.853 485.205 23.3517 485.14 23.8505 485.064C24.0456 482.522 24.9997 479.719 24.1974 477.534C23.5903 475.867 20.7821 474.991 18.9498 473.768C17.8981 476.343 16.8573 478.919 15.773 481.559C14.9057 481.028 13.442 480.141 11.9783 479.254C12.4987 479.189 13.0191 479.124 13.5396 479.07C13.8431 476.592 15.1767 473.552 14.2009 471.777C13.0733 469.722 9.91827 468.791 7.64141 467.363H7.61977ZM33.1097 288.229C41.263 281.65 46.5974 281.163 54.7832 286.984C66.3952 295.24 72.2716 306.925 72.998 320.894C73.551 331.389 66.9697 339.353 58.4586 339.937C62.7521 316.414 54.3711 299.308 33.1097 288.229ZM196.62 204.742C199.222 200.587 201.456 197.017 203.765 193.349C217.784 200.144 226.707 211.137 230.068 225.116C233.245 238.295 231.738 242.168 219.736 247.589C218.446 229.985 211.301 215.508 196.62 204.731V204.742ZM175.142 398.657C175.142 410.115 175.142 421.14 175.142 432.177C175.142 439.826 172.789 442.131 164.94 441.601C162.478 441.438 159.92 440.822 157.697 439.794C156.418 439.209 154.911 437.403 154.878 436.115C154.629 427.178 154.748 418.23 154.748 410.472C161.925 406.317 168.268 402.638 175.142 398.657ZM94.4329 362.962C82.2897 355.896 71.3066 349.502 61.2017 343.626C65.6253 339.407 69.5827 335.512 73.7136 331.8C74.44 331.151 76.0772 330.718 76.9012 331.086C83.5474 334.04 89.8034 333.229 96.7315 328.663C95.9509 340.316 95.2461 350.952 94.4438 362.962H94.4329ZM57.7539 286.616C56.4854 284.799 54.2627 283.035 54.4796 281.65C55.2819 276.467 58.1767 272.431 63.1967 270.181C67.7937 268.114 71.5343 269.586 75.058 272.68C88.1662 284.16 94.3679 299.146 97.1869 315.863C99.1168 327.321 88.9468 332.947 79.6985 329.463C77.8987 328.782 76.4458 327.191 74.8412 326.023C76.3266 324.335 77.6384 322.441 79.3407 321.002C82.9403 317.94 88.0578 315.852 90.1937 312.054C94.3245 304.718 88.5999 290.566 80.1105 283.944C74.2232 279.356 67.6637 279.962 57.7431 286.627L57.7539 286.616ZM70.2007 530.876C77.259 527.013 83.6125 523.529 90.4322 519.796C90.4322 531.114 90.4973 541.988 90.3238 552.862C90.3021 553.89 88.7625 555.74 87.8626 555.772C82.7885 555.956 77.671 555.881 72.6185 555.437C71.7186 555.361 70.3525 553.165 70.3091 551.91C70.0923 544.736 70.2007 537.552 70.2007 530.876ZM154.737 480.239C161.925 476.289 168.301 472.794 175.131 469.051C175.131 478.572 175.131 487.683 175.131 496.793C175.131 504.897 173.808 506.39 165.644 506.358C163.01 506.347 160.202 505.784 157.805 504.735C156.439 504.14 154.932 502.062 154.867 500.591C154.564 493.59 154.726 486.579 154.726 480.239H154.737ZM196.707 385.305C199.678 382.07 201.727 378.943 204.557 376.919C211.171 372.213 220.17 370.341 222.132 360.3C222.652 360.527 223.184 360.754 223.704 360.982C225.114 374.625 226.534 388.269 228.095 403.342C217.09 397.023 207.528 391.526 196.707 385.316V385.305ZM117.96 68.4114C123.23 62.4821 137.119 53.6423 143.992 51.9219C145.575 51.5324 147.885 51.2511 148.947 52.0842C152.482 54.8433 155.604 58.1325 158.955 61.2811C151.539 65.4901 145.012 68.5954 139.146 72.6636C130.949 78.3441 130.082 78.6362 122.265 72.22C120.877 71.0839 119.576 69.8397 117.971 68.4114H117.96ZM30.8437 285.015C29.8462 283.067 28.2524 281.444 28.35 279.93C29.6077 258.095 49.0368 248.238 67.7938 259.686C84.1004 269.629 94.0643 284.496 100.093 302.024C102.651 309.446 103.269 317.54 104.766 325.33C103.952 325.546 103.128 325.763 102.315 325.979C101.73 324.421 100.852 322.896 100.613 321.283C100.082 317.745 100.234 314.077 99.4637 310.604C95.1269 291.15 86.1495 274.606 68.4334 264.079C56.6914 257.1 43.1604 259.372 36.8719 269.553C34.2264 273.849 33.0989 279.075 30.8545 285.037L30.8437 285.015ZM121.712 23.8659C113.049 23.8442 108.04 20.9337 107.921 15.8483C107.758 8.79377 114.524 2.33428 121.994 2.42084C129.15 2.5074 136.056 8.98852 136.034 15.5778C136.013 20.6091 130.364 23.8767 121.723 23.8551L121.712 23.8659ZM126.515 587.68C133.302 583.709 138.192 585.549 143.06 590.721C153.577 601.887 161.6 614.2 164.408 629.586C163.01 630.116 162.023 630.516 161.026 630.862C159.92 631.252 158.792 631.587 157.523 631.999C153.002 613.085 140.631 599.993 126.526 587.691L126.515 587.68ZM242.277 581.21C237.625 562.189 225.244 548.934 211.106 536.751C218.597 533.462 221.145 533.884 226.371 538.807C238.027 549.789 245.92 562.848 249.227 578.938C246.852 579.706 244.868 580.355 242.277 581.199V581.21ZM208.167 120.25C212.385 141.824 207.734 159.547 196.046 165.379C192.565 156.421 192.056 147.31 196.089 138.773C199.168 132.249 203.982 126.525 208.167 120.25ZM207.116 535.604C203.516 538.482 201.445 540.56 198.984 541.934C197.618 542.702 195.124 543.07 193.942 542.334C185.204 536.837 176.671 531.027 167.672 525.055C169.417 523.41 171.141 521.278 173.331 519.894C174.893 518.909 177.657 517.957 178.937 518.671C188.12 523.854 197.054 529.48 207.105 535.593L207.116 535.604ZM122.091 586.458C119.554 588.589 118.015 589.584 116.844 590.915C113.179 595.07 109.991 594.594 106.023 590.959C102.749 587.972 98.6722 585.83 94.8558 583.471C90.9743 581.08 86.9736 578.884 82.2247 576.135C86.9085 573.171 88.9468 566.408 95.1919 569.838C104.115 574.75 112.572 580.517 122.08 586.447L122.091 586.458ZM19.1883 318.405C18.7113 318.362 18.2342 318.319 17.7572 318.286C17.7572 313.363 16.944 308.267 17.9306 303.539C19.7738 294.775 27.2874 291.648 35.3648 295.467C47.2153 301.083 56.9082 320.375 54.2736 333.239C53.2436 338.26 51.0643 342.48 45.5348 343.724C40.233 344.914 33.8469 342.079 30.6919 337.373C40.1788 341.679 45.177 341.376 49.1236 336.247C53.6664 330.361 53.0701 319.347 47.3997 312.184C39.4415 317.994 31.4508 323.815 23.265 329.788C22.7012 328.5 22.1699 327.267 22.0073 326.899C30.4425 320.818 38.4874 315.019 46.5215 309.23C40.6884 300.444 33.4675 296.149 27.3091 298.464C17.8656 302.013 18.0716 310.139 19.1883 318.405ZM81.7042 521.581C79.6334 515.317 77.5409 509.009 75.2857 502.17C78.2456 503.458 81.2489 504.821 84.3064 506.066C90.5732 508.63 94.4222 506.996 96.1894 500.548C97.1869 496.912 97.3495 493.049 97.8916 489.284C100.938 492.963 103.15 496.977 104.484 501.262C105.861 505.665 104.115 509.452 100.006 511.746C93.8258 515.187 87.5482 518.454 81.6934 521.592L81.7042 521.581ZM182.612 438.582C182.916 438.387 183.23 438.192 183.534 437.998C185.399 441.99 187.697 445.842 189.031 449.997C190.397 454.26 189.215 458.35 185.008 460.698C178.687 464.225 172.225 467.482 166.739 470.371C164.311 463.922 161.85 457.365 159.518 451.165C160.624 451.544 162.63 452.118 164.549 452.918C165.861 453.47 167.021 454.357 168.29 455.028C174.004 458.015 178.731 456.532 180.65 450.538C181.875 446.729 182.005 442.564 182.623 438.56L182.612 438.582ZM66.9481 448.807C62.3293 451.295 59.0984 453.2 55.7048 454.747C54.6639 455.223 52.5497 455.245 51.9859 454.574C47.7032 449.521 43.6808 444.241 39.3765 438.798C42.3255 437.424 45.4047 436.342 48.0719 434.643C50.9451 432.804 53.2327 433.41 55.2385 435.552C59.0875 439.696 62.7305 444.014 66.9372 448.807H66.9481ZM136.067 78.712C136.392 78.5497 137.433 78.1602 138.355 77.5867C142.475 75.044 146.53 72.3715 150.682 69.8829C160.039 64.2782 160.982 64.6028 165.352 74.5571C165.471 74.8384 165.319 75.2388 165.287 75.8555C161.763 77.6949 157.35 78.8526 154.618 81.6333C147.787 88.5797 142.269 86.0154 136.598 80.5297C136.49 80.4323 136.501 80.2159 136.078 78.712H136.067ZM49.9693 176.232C53.3629 172.888 57.1468 173.062 60.7355 175.377C68.8563 180.625 74.0497 187.917 74.1364 197.861C74.1798 202.026 71.9246 205.229 67.3492 206.181C67.5552 192.613 61.4728 182.929 49.9693 176.243V176.232ZM52.0618 348.019C55 344.308 57.2877 343.832 60.5295 345.801C70.32 351.741 80.1755 357.606 90.1937 363.146C93.8475 365.169 94.9751 367.538 93.5439 371.769C79.7852 363.892 66.1024 356.059 52.0618 348.019ZM52.7123 503.739C53.1677 497.02 53.2761 490.409 54.2953 483.928C54.5447 482.338 58.1009 479.817 59.5321 480.174C62.2426 480.844 66.2 482.911 66.677 485.053C68.9539 495.3 64.0424 501.619 52.7232 503.739H52.7123ZM30.8979 372.462C30.3991 372.775 29.9004 373.1 29.3908 373.414C27.1465 371.38 23.0265 369.378 22.9831 367.311C22.8096 357.736 23.7746 348.138 24.3384 338.552C24.8046 338.368 25.2599 338.184 25.7261 338C28.0138 340.759 32.123 343.453 32.2531 346.31C32.6326 354.998 31.4617 363.741 30.8979 372.462ZM63.8581 415.719C73.0522 421.01 81.4441 435.758 80.5984 445.658C80.349 448.525 79.113 451.663 77.3565 453.914C76.1205 455.493 73.2257 455.796 71.1982 456.619C72.5535 451.782 74.5051 448.017 74.4834 444.273C74.4292 436.05 70.7429 429.104 64.4652 423.694C61.6788 421.292 59.9007 418.998 63.8689 415.719H63.8581ZM232.573 402.443C231.912 402.26 231.25 402.086 230.578 401.902C230.578 396.027 230.35 390.141 230.73 384.288C230.827 382.805 233.169 380.09 233.928 380.263C237.409 381.074 242.461 381.875 243.621 384.277C245.063 387.274 244.413 392.576 242.526 395.508C240.509 398.646 235.988 400.193 232.573 402.433V402.443ZM109.926 595.957C109.645 596.672 109.352 597.386 109.07 598.1C95.6906 600.707 87.9168 589.552 76.7602 584.867C79.2864 582.216 79.0046 577.001 83.9703 579.944C92.7199 585.127 101.285 590.602 109.926 595.957ZM194.766 545.396C194.484 546.024 194.192 546.651 193.91 547.268C180.4 550.038 172.703 538.612 161.676 534.23C163.877 530.854 164.528 526.299 169.385 529.274C177.928 534.511 186.32 540.008 194.766 545.396ZM147.95 566.614C142.572 563.498 137.758 560.771 133.009 557.947C126.764 554.247 126.678 553.814 129.637 547.365C136.728 549.475 143.711 551.553 150.823 553.662C150.097 556.941 149.099 561.453 147.961 566.614H147.95ZM63.2726 617.283C58.0466 614.297 53.3629 611.668 48.7441 608.963C42.0979 605.068 42.1195 605.035 44.9493 598.359C51.8775 600.415 58.7189 602.439 65.5603 604.462C66.0048 603.391 66.1566 603.553 66.1349 603.672C65.2242 608.032 64.3026 612.382 63.2726 617.283ZM44.5265 317.096C47.8876 326.877 46.8359 334.062 42.087 336.431C37.8802 338.53 31.8194 335.403 28.2307 329.193C33.4891 325.287 38.7693 321.381 44.5373 317.107L44.5265 317.096ZM23.6878 322.171C20.5761 312.303 21.7254 305.367 26.5177 302.998C30.5401 301.007 35.9395 303.82 40.1788 310.377C34.7468 314.261 29.3149 318.146 23.6878 322.171ZM131.231 582.173C126.016 585.808 122.698 584.975 118.568 581.794C111.553 576.384 103.757 571.991 96.2978 567.166C96.352 566.592 96.4171 566.03 96.4713 565.456C99.1601 565.456 102.402 564.471 104.429 565.629C113.418 570.725 122.059 576.428 131.242 582.173H131.231ZM179.739 515.284C183.794 515.068 187.231 513.802 189.313 514.96C198.301 519.98 206.899 525.704 215.627 531.168C215.442 531.73 215.258 532.293 215.074 532.856C212.439 533.18 209.078 534.706 207.3 533.624C198.333 528.182 189.779 522.068 179.728 515.284H179.739ZM99.2144 56.5745C103.193 53.5232 106.826 50.7425 110.956 47.5615C111.835 56.4013 118.156 56.5853 124.39 57.5807C120.704 60.5237 117.418 63.1421 114.296 65.6415C109.276 62.6228 104.668 59.8529 99.2144 56.5745ZM86.6483 487.867C84.7834 486.525 83.374 485.108 81.6718 484.361C74.8846 481.375 73.2908 477.75 75.9037 469.635C78.8203 471.02 81.7151 472.308 84.5449 473.747C90.9201 476.993 91.7441 481.688 86.6591 487.867H86.6483ZM103.139 421.173C102.781 421.616 102.424 422.06 102.066 422.504C86.8218 413.739 71.5668 404.964 55.1626 395.53C57.5913 395.01 59.2718 394.08 60.0416 394.567C74.2774 403.634 90.4322 409.769 103.139 421.173ZM80.7393 224.618L80.0129 225.657C74.0822 221.61 68.1624 217.553 61.6679 213.117C63.999 211.624 65.3217 210.769 66.6553 209.925C72.7486 206.051 76.3916 207.783 77.8878 215.01C78.5601 218.278 79.7743 221.426 80.7501 224.629L80.7393 224.618ZM89.966 494.975C82.6475 497.788 77.053 497.821 70.3525 494.023C72.7378 493.558 73.8003 493.352 74.1364 493.287C72.5318 490.507 70.9597 487.791 68.813 484.069C76.7386 486.135 82.8319 487.737 89.9335 489.587C87.8952 491.037 86.8109 491.805 85.4882 492.746C86.7567 493.374 87.7433 493.872 89.966 494.975ZM239.653 348.842C234.709 352.055 230.437 354.836 225.363 358.147C223.108 350.302 231.098 344.903 228.149 337.805C228.594 337.719 229.028 337.632 229.472 337.546C232.638 341.062 235.804 344.579 239.653 348.853V348.842ZM57.7322 241.93C57.6021 241.703 57.472 241.465 57.3419 241.238C61.3861 235.817 65.3109 230.288 69.6044 225.062C70.3742 224.121 72.8896 223.731 74.1473 224.229C76.3699 225.127 78.2456 226.891 80.7935 228.665C72.727 233.307 65.235 237.624 57.7431 241.93H57.7322ZM90.3888 448.569V466.844C85.2822 463.738 80.902 461.077 76.3916 458.317C80.7935 455.255 85.1846 452.193 90.3888 448.569ZM64.9097 404.25C59.3369 407.042 54.3495 409.541 48.3537 412.549C49.0151 406.425 49.5355 401.61 50.1969 395.53C55.6722 398.776 60.1392 401.426 64.9097 404.261V404.25ZM51.5305 282.159C47.2154 280.308 47.031 276.013 50.3596 269.467C53.6339 263.04 56.9841 262.412 65.4085 267.238C57.5805 269.424 53.2978 274.509 51.5305 282.159ZM139.699 517.849C139.601 517.07 139.504 516.29 139.406 515.511C141.651 514.873 144.068 513.38 146.107 513.769C152.157 514.938 157.762 522.122 158.174 528.787C151.821 525.022 145.76 521.43 139.688 517.838L139.699 517.849ZM33.9879 522.306C46.9876 528.95 47.3129 529.458 44.4723 538.861C35.9503 536.74 32.8928 530.984 33.9879 522.306ZM18.7872 523.778C9.31114 522.122 7.25111 516.02 8.40038 508.024C22.0181 514.429 19.7521 512.146 18.7872 523.778ZM74.3316 579.695C68.3142 576.384 63.2509 573.777 58.4153 570.801C57.1034 569.99 56.5179 568.02 55.6071 566.571C57.7431 565.965 60.2368 564.331 61.9499 564.926C68.2708 567.144 71.762 572.273 74.3316 579.695ZM102.76 412.993C102.25 413.015 101.741 413.036 101.231 413.058C102.933 386.214 104.635 359.369 106.338 332.536C106.793 332.569 107.248 332.59 107.704 332.623C106.056 359.413 104.408 386.203 102.76 412.993ZM70.3525 283.208C79.3624 282.526 83.1354 288.954 86.1929 295.651C88.9143 301.613 90.2588 307.975 85.8135 315.116C85.5424 298.042 81.5091 290.252 70.3525 283.208ZM158.727 470.317C158.846 471.096 158.976 471.864 159.096 472.643C156.884 473.238 154.574 474.547 152.471 474.277C147.267 473.606 141.932 466.865 140.87 460.168C146.974 463.641 152.851 466.973 158.727 470.317ZM188.163 273.351C190.57 270.062 192.63 266.405 195.504 263.559C197.813 261.255 200.675 263.126 200.057 265.723C199.114 269.64 196.772 273.275 194.636 276.803C194.148 277.603 191.904 278.025 190.852 277.625C189.887 277.257 189.454 275.526 188.163 273.351ZM140.35 523.583C146.248 526.591 151.343 528.993 156.201 531.817C157.231 532.412 157.35 534.554 157.892 535.983C156.212 536.556 154.217 538.017 152.905 537.562C146.671 535.398 142.811 530.778 140.36 523.594L140.35 523.583ZM130.787 309.187C130.852 303.019 135.091 296.928 138.441 297.296C139.623 297.426 141.401 299.297 141.542 300.531C141.998 304.729 136.945 311.87 133.768 311.589C132.446 311.47 131.286 309.62 130.798 309.187H130.787ZM159.692 292.383C159.79 286.552 164.213 280.157 167.444 280.536C168.658 280.676 170.469 282.981 170.523 284.355C170.697 288.586 165.72 295.272 162.88 294.85C161.47 294.645 160.288 292.87 159.692 292.383ZM139.645 454.336C139.558 453.762 139.471 453.2 139.385 452.626C141.347 451.923 143.342 450.505 145.25 450.635C150.444 450.992 156.396 457.841 157.784 464.766C151.517 461.163 145.586 457.744 139.645 454.325V454.336ZM144.209 287.071C146.399 292.719 148.405 297.902 150.444 303.149C147.679 304.826 145.456 306.168 142.952 307.694C145.12 296.387 144.827 295.694 136.143 291.507C138.777 290.057 141.174 288.737 144.209 287.071ZM261.077 384.666C249.584 382.914 248.89 382.102 249.855 372.04C259.939 374.82 260.698 375.653 261.077 384.666ZM135.156 539.943C144.73 532.499 141.434 533.754 151.333 541.782C143.852 546.987 141.445 546.759 135.156 539.943ZM73.9738 584.802C73.9846 585.44 74.0063 586.079 74.0172 586.717C71.9897 587.193 69.7887 588.438 67.9781 588.005C61.9932 586.566 56.8865 580.269 56.789 574.772C62.6004 578.17 68.2817 581.48 73.963 584.802H73.9738ZM48.3971 427.08C50.9342 426.745 53.4387 425.598 55.1301 426.334C62.5244 429.536 65.4627 436.018 67.024 443.213C61.0716 438.063 55.2169 432.988 48.3971 427.08ZM143.44 47.8428C139.287 49.7146 135.926 51.2294 133.855 52.1599C130.863 48.4379 128.271 45.2027 125.062 41.1994C133.074 39.2301 137.379 44.5211 143.44 47.8428ZM217.004 419.398C221.948 423.348 231.738 423.531 227.857 433.94C220.972 431.863 216.277 428.011 217.004 419.398ZM202.096 418.89C194.69 417.137 190.505 412.831 191.243 404.586C196.599 408.124 205.11 409.098 202.096 418.89ZM208.883 269.413C206.129 271.111 204.047 272.399 201.619 273.903C203.429 262.629 203.288 262.304 194.799 257.803C197.108 256.591 199.168 255.509 201.749 254.146C204.253 259.513 206.498 264.295 208.883 269.413ZM187.751 262.347C185.008 269.056 182.981 275.266 189.107 281.033C186.342 282.548 183.805 283.944 181.084 285.437C181.376 279.919 182.124 274.909 181.777 269.986C181.452 265.442 183.566 263.7 187.751 262.347ZM67.2733 592.441C58.8815 596.834 57.1684 596.607 50.7499 590.547C54.9494 587.309 60.4572 587.94 67.2733 592.441ZM122.633 319.401C122.883 314.056 123.23 309.436 123.295 304.815C123.382 298.41 123.295 298.41 129.464 296.062C125.55 304.394 125.615 307.066 129.941 315.019C127.675 316.382 125.398 317.745 122.633 319.401ZM58.8924 519.547C61.1475 514.191 63.7171 514.213 66.8939 516.68C68.3034 517.773 70.0056 518.509 71.2849 519.72C72.2607 520.651 72.7703 522.068 73.4859 523.269C71.9572 523.951 70.0381 525.574 68.9864 525.141C65.3977 523.637 62.1233 521.408 58.8924 519.547ZM149.294 408.665C150.097 408.6 150.899 408.535 151.69 408.47V436.093C147.863 427.113 150.162 417.808 149.294 408.665ZM178.2 396.59C180.747 403.774 179.967 433.378 178.2 435.358V396.59ZM82.9728 449.359C83.9703 434.589 77.6601 423.196 65.7771 413.155C77.3023 415.958 89.3047 439.469 82.9728 449.359ZM65.4519 528.366C67.9998 530.421 68.8021 541.685 67.0999 551.812C64.5086 548.631 63.6954 537.086 65.4519 528.366ZM149.229 476.484C152.71 479.438 153.479 489.868 151.365 501.034C147.863 493.439 150.216 485.291 149.229 476.484ZM94.1836 551.509C93.9993 551.498 93.8041 551.477 93.6198 551.466V517.546C93.8041 517.567 93.9993 517.578 94.1836 517.6V551.52V551.509ZM179.056 500.742L178.2 500.872V466.595L179.056 466.627V500.742ZM198.908 130.345C198.42 130.204 197.921 130.063 197.434 129.933C200.122 122.176 202.811 114.407 205.5 106.649C207.538 115.932 203.755 123.312 198.908 130.355V130.345ZM94.4004 282.494C103.41 295.727 108.029 310.269 107.519 326.336C106.142 310.831 102.131 296.116 94.4004 282.494ZM46.76 266.232C47.2587 266.6 47.7575 266.967 48.267 267.335C46.9877 271.707 45.7083 276.078 44.353 280.687C42.8785 280.947 41.1871 281.25 39.4848 281.553C39.0837 281.217 38.6825 280.882 38.2705 280.536C41.1003 275.764 43.9193 270.992 46.7491 266.232H46.76ZM74.1147 514.127C73.7461 514.462 73.3775 514.787 73.0197 515.122C62.351 510.642 62.1125 510.318 64.5086 501.749C68.0865 506.358 71.1006 510.242 74.1256 514.127H74.1147ZM15.4911 427.275C19.8388 425.576 23.5794 424.116 27.591 422.558C28.0789 431.506 26.2249 432.187 15.4911 427.275ZM45.9251 516.128C41.7509 513.045 34.6276 513.293 34.1614 506.196C37.7176 509.993 45.6215 508.706 45.9251 516.128ZM48.5597 418.533C50.9667 412.235 54.7832 411.121 60.9849 414.551C60.2042 415.936 59.4236 417.31 58.7405 418.533H48.5706H48.5597ZM45.654 195.578C48.1152 197.515 52.5713 201.009 57.0275 204.504C49.0368 204.201 46.8033 198.51 45.654 195.578ZM88.6975 371.985C88.4589 372.397 88.2313 372.797 87.9928 373.208C77.053 366.889 66.1024 360.57 55.1626 354.252C55.3903 353.851 55.6289 353.44 55.8566 353.04C66.7963 359.359 77.7469 365.667 88.6866 371.985H88.6975ZM132.034 25.7053C126.179 31.6129 116.475 31.667 112.409 25.7053H132.034ZM74.7219 412.96C82.1488 418.965 87.559 427.026 88.0361 436.656C83.8293 429.169 79.1238 420.794 74.7219 412.96ZM165.048 524.157C161.578 519.439 158.423 515.144 155.323 510.945C159.985 513.856 164.723 516.81 169.58 519.839C167.943 521.408 166.306 522.956 165.048 524.167V524.157ZM70.8512 561.95C75.2098 564.666 79.8611 567.566 84.7075 570.585C83.1571 571.948 81.3573 573.528 79.9912 574.74C77.0096 570.574 73.887 566.203 70.8512 561.95ZM113.819 50.4179H129.898C125.203 55.9685 118.221 55.9361 113.819 50.4179ZM45.8926 185.732C52.9075 185.807 56.8757 189.93 58.5671 197.46C54.8482 194.02 50.6957 190.189 45.8926 185.732ZM36.0805 389.135C30.9413 386.084 26.7778 383.617 22.0832 380.836C28.5343 378.283 32.5025 380.641 36.0805 389.135ZM93.5873 447.638C93.9125 447.638 94.2486 447.638 94.5739 447.638V469.289C94.2486 469.289 93.9125 469.31 93.5873 469.321V447.649V447.638ZM36.2648 399.587C30.6702 402.811 26.4309 400.323 22.7988 391.71C27.5477 394.491 31.646 396.882 36.2648 399.587ZM68.6828 449.921C70.6669 439.015 66.3192 431.549 59.5646 425.057C68.3142 429.017 73.6051 442.174 68.6828 449.921ZM80.9995 49.2602C80.5984 48.4812 80.208 47.7021 79.8069 46.9123C85.64 43.6879 91.4731 40.4744 97.3061 37.2501C97.523 37.6504 97.7398 38.0508 97.9566 38.4403C92.297 42.0433 86.6483 45.6463 80.9887 49.2494L80.9995 49.2602ZM103.595 561.593C101.242 562.08 99.3011 562.481 97.5013 562.848V552.386C97.7832 552.31 98.0651 552.245 98.347 552.169C100.038 555.199 101.719 558.228 103.595 561.593ZM79.9912 501.987C80.0671 501.619 80.143 501.251 80.208 500.883C83.4498 500.461 86.6808 500.039 90.031 499.606V505.384C86.3338 504.129 83.1571 503.069 79.9912 501.997V501.987ZM188.532 510.913C185.919 511.411 184.033 511.779 182.038 512.157V501.987C182.341 501.835 182.645 501.694 182.959 501.543C184.694 504.454 186.429 507.375 188.532 510.913ZM91.408 431.971C88.2529 425.944 85.4448 420.578 82.7126 415.352C87.6457 417.31 92.0802 425.273 91.408 431.971ZM165.319 451.501C165.395 451.068 165.471 450.646 165.547 450.213C168.583 449.737 171.618 449.261 175.131 448.72C175.023 450.679 174.947 452.291 174.806 454.801C171.12 453.524 168.214 452.518 165.308 451.512L165.319 451.501ZM74.3207 466.422C74.646 465.826 74.9713 465.242 75.3074 464.647C79.9804 466.984 85.0437 468.607 89.1312 471.972C88.871 472.437 88.6107 472.903 88.3505 473.379C83.6775 471.063 78.9937 468.737 74.3207 466.422ZM142.789 547.852C142.485 548.566 142.182 549.28 141.889 549.994C138.073 547.83 134.256 545.667 130.44 543.503L131.806 541.111C135.471 543.362 139.135 545.612 142.8 547.852H142.789ZM59.2176 599.344C52.5388 599.885 47.5189 596.855 46.6732 591.9C50.7607 594.324 54.4579 596.52 59.2176 599.344ZM198.507 168.636C202.291 164.178 205.186 160.759 208.091 157.34C206.573 162.058 206.313 167.814 198.507 168.636ZM173.7 443.462C167.39 447.433 161.047 447.162 157.556 443.462H173.7ZM260.882 371.423C260.643 372.148 260.416 372.873 260.177 373.598C255.916 371.596 251.655 369.594 247.394 367.593C247.676 366.976 247.958 366.37 248.229 365.753C252.447 367.647 256.653 369.54 260.871 371.434L260.882 371.423ZM13.5721 497.258C11.8591 495.408 9.88573 493.277 7.90161 491.145C8.08593 491.004 8.28111 490.875 8.46543 490.734C13.236 493.536 18.0065 496.349 22.7662 499.152C22.5928 499.336 22.4085 499.52 22.235 499.693C19.5461 498.935 16.8573 498.178 13.5613 497.247L13.5721 497.258ZM157.957 508.446H173.277C168.55 512.276 163.129 512.211 157.957 508.446ZM121.148 33.5172C121.593 33.4523 122.048 33.3874 122.492 33.3333C122.807 37.7154 123.121 42.0974 123.436 46.4795C122.742 46.5228 122.059 46.5769 121.365 46.6201C118.524 42.4545 121.918 37.8452 121.148 33.5281V33.5172ZM73.0414 559.246H88.5457C83.8293 562.903 78.701 562.892 73.0414 559.246ZM115.001 241.194C115.044 240.837 115.087 240.47 115.12 240.112H129.312C129.312 240.47 129.312 240.837 129.312 241.194H114.99H115.001ZM49.6332 541.144C48.9393 541.079 48.2345 541.025 47.5406 540.96C47.9417 536.708 48.3321 532.455 48.7332 528.192C49.4163 528.246 50.0994 528.311 50.7824 528.366L49.6223 541.144H49.6332ZM50.2728 251.841C50.3812 251.506 50.4896 251.17 50.5981 250.835C56.1709 252.079 61.7439 253.334 67.3167 254.579C67.23 254.968 67.1541 255.358 67.0673 255.758C61.4728 254.46 55.8674 253.15 50.2728 251.852V251.841ZM235.945 591.251C235.674 590.796 235.403 590.342 235.132 589.887C239.078 587.507 243.025 585.127 246.971 582.757C247.275 583.276 247.589 583.796 247.893 584.315C243.914 586.631 239.924 588.946 235.934 591.262L235.945 591.251Z" fill="#F8F8F8"/>
<path d="M165.371 188.536C160.78 191.688 155.822 195.092 149.398 199.502C152.448 199.787 154.582 200.663 156.08 200.017C170.426 193.8 180.45 174.385 177.476 159.096C175.557 149.213 164.671 140.162 152.437 139.265C130.029 137.623 109.56 143.631 91.323 156.951C84.6727 161.81 83.0452 168.059 87.5075 174.965C91.0644 180.47 95.559 185.986 100.894 189.543C108.989 194.939 118.118 198.802 127 202.873C128.347 203.486 130.751 201.713 132.669 201.035C131.376 200.017 130.223 198.671 128.778 198.036C125.609 196.624 122.29 195.573 120.123 194.774C134.631 192.772 149.861 190.681 165.371 188.536ZM134.89 157.706C134.998 158.297 135.095 158.888 135.202 159.468C144.871 157.914 154.614 156.699 164.186 154.663C169.209 153.591 172.367 154.773 172.41 159.851C172.464 166.232 171.838 172.711 170.599 178.971C170.189 181.05 167.29 183.327 165.026 184.224C150.335 190.112 135.105 192.016 119.272 191.119C109.733 190.583 105.141 184.782 101.714 177.45C97.9411 169.362 103.632 160.978 112.266 160.77C116.847 160.661 121.417 160.234 125.998 159.96C125.965 159.457 125.933 158.954 125.9 158.461H111.77C126.213 145.842 156.177 140.666 166.05 152.387C155.444 154.193 145.172 155.955 134.89 157.706ZM104.182 152.617C96.6799 158.603 88.0249 163.922 91.5063 176.574C83.5195 166.56 89.2967 158.373 104.182 152.617ZM96.6368 179.025C91.2152 171.31 93.1554 164.043 101.864 159.271C96.0872 164.743 93.6296 171.135 96.6368 179.025Z" fill="#F8F8F8"/>
<path d="M47.4784 154.011C42.1447 156.943 41.5348 163.779 45.8659 166.49C46.9306 167.155 48.9152 167.155 50.0419 166.575C50.7654 166.206 51.2099 164.075 50.8998 162.988C50.0626 160.045 48.7498 157.239 47.4784 154V154.011Z" fill="#F8F8F8"/>
<path d="M120 396.45C121.509 398.609 123.568 402.994 126.964 405.694C128.333 406.785 132.893 404.722 135.523 403.253C153.633 393.156 171.646 382.853 189.649 372.551C194.295 369.894 199.06 367.313 203.285 364.073C209.893 359.019 212.114 351.092 211.996 343.619C211.715 325.541 210.141 307.474 208.934 289.406C208.632 284.903 206.487 283.899 202.509 286.177C177.996 300.26 153.504 314.385 129.023 328.522C125.67 330.465 123.137 332.906 122.943 337.258C122.081 356.244 121.078 375.229 120.011 396.439L120 396.45ZM130.618 395.564C130.888 390.272 130.812 385.899 131.448 381.633C131.739 379.678 132.968 377.14 134.553 376.201C156.145 363.512 177.866 351.049 199.847 338.371C200.774 340.574 201.733 342.464 202.38 344.461C204.277 350.326 202.984 353.738 197.755 356.859C193.605 359.332 189.412 361.74 185.218 364.149C167.421 374.397 149.623 384.635 130.618 395.564ZM199.965 318.91C201.356 322.139 202.466 325.163 203.943 327.992C205.431 330.811 204.299 332.064 201.862 333.457C183.386 344.029 164.984 354.732 146.551 365.358C141.818 368.09 137.021 370.704 131.696 373.685C131.976 368.674 131.987 364.537 132.548 360.488C132.753 359.019 133.96 357.183 135.243 356.438C156.684 343.889 178.211 331.491 199.965 318.91ZM132.731 353.911C133.011 349.948 133.561 347.064 133.345 344.245C133.011 339.904 134.747 337.399 138.563 335.39C145.839 331.556 152.857 327.236 159.983 323.122C172.832 315.703 185.693 308.294 198.909 300.67C200.601 304.882 202.175 308.791 203.792 312.809C180.119 326.513 156.792 340.001 132.731 353.922V353.911Z" fill="#F8F8F8"/>
<path d="M17.0207 452.142C16.8414 458.773 19.7333 463.36 24.1272 466.559C26.4587 468.258 31.0208 469.735 32.9151 468.602C35.5492 467.014 38.3178 462.682 37.9703 459.895C37.4099 455.274 34.9439 450.598 32.2537 446.611C30.2361 443.623 26.6604 441.946 22.4459 443.734C18.2089 445.523 16.8078 448.699 17.0207 452.153V452.142Z" fill="#F8F8F8"/>
</svg>
