<svg width="342" height="223" viewBox="0 0 342 223" fill="none" xmlns="http://www.w3.org/2000/svg">
<path d="M333.971 129.966C336.044 132.539 334.803 136.89 332.2 138.704C330.739 139.723 331.575 141.159 331.468 142.398C331.354 143.747 331.435 145.14 333.349 145.283C333.636 145.305 333.898 145.539 334.188 145.627C338.252 146.859 340.656 149.131 340.461 153.811C340.329 157.007 341.01 160.236 341.286 163.454C341.326 163.905 341.29 164.649 341.028 164.795C339.497 165.664 339.975 167.071 339.839 168.354C339.754 169.182 339.416 169.985 339.132 171.019C339.957 171.916 340.288 177.41 339.059 178.733C338.054 179.815 336.684 180.749 335.296 181.237C334.015 181.687 332.491 181.453 330.868 181.53C331.232 184.455 328.424 185.221 326.189 186.448C324.208 187.537 322.14 186.566 321.547 184.337C321.212 183.077 320.914 181.805 320.155 180.562C320.155 181.486 320.155 182.41 320.155 183.333C320.155 184.674 320.343 186.049 320.115 187.354C319.717 189.633 320.115 191.261 322.39 192.441C323.807 193.174 323.907 194.867 323.557 196.37C323.296 197.48 322.854 198.55 322.423 199.844C323.318 200.357 324.242 200.922 325.199 201.42C326.417 202.054 327.124 202.967 327.396 204.356C328.07 207.805 328.136 207.827 325.103 209.498C319.982 212.32 314.965 215.377 309.664 217.821C304.201 220.339 298.263 221.439 292.226 221.688C291.445 221.721 290.599 221.274 289.859 220.9C288.769 220.35 287.816 219.481 286.685 219.082C284.525 218.316 284.451 216.817 284.837 214.988C286.262 208.252 290.304 203.278 295.601 199.166C296.993 198.085 298.491 197.136 299.982 196.19C302.445 194.625 305.445 193.621 306.023 190.183C309.955 186.635 307.658 181.973 308.206 177.825C308.247 177.524 307.739 176.982 307.37 176.824C304.219 175.49 304.142 172.173 305.537 169.516C305.762 169.087 305.942 168.567 306.295 168.277C308.331 166.606 308.445 164.421 308.294 162.028C308.136 159.536 308.206 157.025 308.283 154.526C308.316 153.456 308 152.877 306.951 152.514C304.562 151.685 302.574 150.425 301.856 147.727C301.712 147.185 300.77 146.481 300.214 146.492C298.425 146.532 297.479 145.792 296.356 144.385C295.274 143.025 293.275 142.383 291.338 141.225C291.338 144.945 291.298 148.204 291.383 151.458C291.394 151.938 291.872 152.565 292.314 152.851C294.795 154.46 295.465 155.889 294.585 158.638C294.225 159.77 293.709 161.031 292.859 161.79C291.5 163.007 291.272 164.333 291.342 165.997C291.427 167.999 291.14 170.014 291.243 172.015C291.283 172.796 291.751 173.815 292.362 174.258C294.902 176.095 295.439 177.498 294.365 180.449C294.118 181.123 293.849 181.79 293.536 182.593C294.21 182.989 294.803 183.417 295.454 183.703C297.46 184.579 298.506 185.987 298.848 188.226C299.102 189.879 298.856 190.876 297.357 191.656C291.154 194.889 285.585 199.291 278.804 201.482C274.011 203.033 269.155 204.29 264.112 204.297C262.533 204.297 260.839 203.487 259.396 202.692C255.354 200.467 255.155 199.793 256.687 195.358C258.428 190.326 261.45 186.144 265.684 182.952C268.644 180.72 271.883 178.858 274.953 176.769C275.498 176.399 275.888 175.754 276.238 175.171C276.827 174.189 277.118 172.935 277.913 172.191C279.36 170.832 279.68 169.311 279.566 167.46C279.441 165.455 279.621 163.432 279.492 161.423C279.452 160.775 279.028 159.921 278.506 159.569C275.855 157.788 275.181 155.842 276.481 152.902C276.82 152.133 277.188 151.26 277.803 150.74C279.5 149.31 279.643 147.511 279.566 145.506C279.455 142.702 279.54 139.895 279.503 137.087C279.485 135.588 279.021 135.303 277.762 135.654C277.762 136.853 277.799 137.945 277.744 139.034C277.722 139.44 277.375 139.836 277.364 140.243C277.298 143.611 274.758 144.872 272.229 145.928C271.29 146.32 269.998 145.862 268.625 145.774C268.574 148.764 265.901 149.794 263.471 151.04C261.94 151.825 259.514 150.82 259.37 149.127C259.186 146.932 257.773 144.722 259.245 142.493C257.832 140.822 259.757 138.33 257.67 136.64C257.037 136.127 257.412 134.375 257.313 132.964C255.704 133.364 254.128 133.752 252.553 134.148C249.965 134.797 249.096 133.932 249.321 131.333C249.497 129.27 250.278 127.804 252.122 126.818C253.974 125.825 255.778 124.729 257.563 123.622C257.994 123.355 258.52 122.896 258.586 122.464C259.035 119.649 261.027 117.949 262.882 116.083C263.49 115.475 263.957 114.507 264.053 113.657C264.381 110.688 264.55 107.705 264.701 104.721C264.734 104.047 264.686 103.153 264.285 102.709C262.974 101.254 263.302 99.5317 264.005 98.2966C265.257 96.1012 265.139 93.7519 265.61 91.4613C266.166 88.7565 266.115 86.7957 263.258 85.0694C261.134 83.7867 261.509 80.9316 262.15 78.6336C263.593 73.4476 266.623 69.5113 271.754 67.1767C271.301 65.8352 270.631 64.5122 270.429 63.1194C269.939 59.7586 269.347 56.3648 269.38 52.9929C269.428 48.0084 270.002 43.0313 270.322 38.0505C270.525 34.9242 272.947 32.8608 274.099 30.167C276.323 24.9736 279.809 20.6855 284.918 17.9074C288.438 15.9942 292.152 14.6858 296.15 14.213C296.993 14.1141 297.829 13.9931 299.238 13.8099C295.3 12.1349 293.271 9.80762 294.858 5.86403C295.76 3.62102 298.443 2.20264 300.663 2.5948C303.38 3.07126 305.128 4.92944 305.43 7.65624C305.721 10.2767 304.315 12.1569 300.983 13.469C301.204 13.7329 301.609 14.0957 301.558 14.1764C300.383 16.0895 301.885 16.5073 303.126 17.2074C304.451 17.955 305.74 18.8053 306.932 19.7509C309.226 21.5724 309.59 21.6274 312.609 19.6116C309.288 17.6875 306.17 15.8769 302.85 13.9528C305.787 13.5533 308.405 14.2057 310.857 15.3932C320.185 19.9122 326.274 27.2129 328.262 37.3285C329.8 45.1717 329.903 53.1945 328.847 61.177C328.644 62.7053 328.449 64.2593 328.504 65.7913C328.611 68.7966 325.71 74.0816 321.941 74.7706C320.52 75.0309 319.279 76.3723 318.039 77.3325C317.866 77.4644 318.039 78.3221 318.293 78.6666C319.982 80.9536 321.683 83.2406 323.505 85.4249C324.061 86.092 324.952 86.5501 325.773 86.9276C330.735 89.2329 332.694 93.3231 332.937 98.5202C332.974 99.2972 333.187 100.375 333.721 100.771C336.39 102.753 336.868 105.487 336.489 108.43C336.276 110.087 335.775 111.802 334.987 113.268C334.166 114.804 333.864 116.303 334.004 117.967C334.207 120.393 334.509 122.819 334.556 125.249C334.586 126.675 334.21 128.108 333.96 129.959L333.971 129.966ZM328.39 59.1502C328.895 51.952 328.703 44.9371 327.577 38.0065C326.553 31.71 323.399 26.4176 318.992 21.796C317.494 20.2237 315.27 20.4546 313.816 21.4038C313.021 21.9243 312.116 22.2871 311.247 22.6903C309.756 23.3793 308.162 23.8961 306.778 24.7537C303.052 27.0553 299.404 29.4816 295.752 31.8969C294.585 32.6702 293.374 33.4509 292.41 34.4441C291.541 35.3384 291.239 34.9645 290.396 34.3781C288.32 32.9304 286.166 31.3691 283.799 30.6398C282.459 30.2256 282.481 29.8298 282.816 29.0675C284.502 25.2265 286.107 21.3049 289.907 18.9153C291.905 17.6582 293.893 16.3864 295.885 15.1146C295.767 15.0853 295.646 15.0157 295.535 15.034C284.657 16.9361 277.276 23.0238 273.543 33.3812C273.245 34.2059 273.252 35.2797 273.488 36.1373C274.511 39.883 275.888 43.5444 276.705 47.3267C277.364 50.3761 277.692 53.5647 277.593 56.6726C277.549 58.069 276.326 59.6413 275.237 60.7408C273.816 62.1739 272.203 61.3859 270.672 59.8979C271.824 63.2917 273.76 65.6337 276.345 67.3489C287.768 74.9392 300.188 75.544 313.076 72.2418C314.335 71.9192 315.23 70.8893 315.304 69.2841C315.473 65.7473 317.232 63.0791 320.229 61.1953C322.32 59.8795 324.164 60.8105 325.961 62.0163C326.421 60.8471 326.789 59.9015 327.176 58.9193C327.511 58.9853 327.853 59.0512 328.387 59.1502H328.39ZM303.685 112.935C303.866 111.436 303.965 110.098 304.197 108.782C305.596 100.924 309.159 94.2834 315.841 89.6911C318.05 88.1737 320.77 87.4004 323.13 86.3449C321.135 84.4647 318.525 84.5233 315.76 85.5056C311.703 86.9496 308.578 89.6544 305.986 92.9456C304.955 94.254 304.234 94.1624 302.99 93.4294C297.729 90.3324 292.421 87.3198 287.127 84.2741C283.858 82.3939 280.589 80.5174 277.272 78.6079C277.869 77.754 278.351 77.0613 278.605 76.6985C277.622 75.5073 276.735 74.4335 275.826 73.3376C275.388 73.6638 275.038 73.8324 274.817 74.1036C271.136 78.6373 268.102 83.5008 267.031 89.3612C266.549 91.9964 266.785 92.3995 269.31 93.0996C270.153 91.399 271.014 89.7277 271.817 88.0271C272.27 87.0705 272.825 86.9789 273.694 87.5177C275.561 88.6722 277.434 89.8267 279.367 90.8639C280.35 91.3916 280.725 91.9964 280.703 93.1399C280.667 94.9577 280.921 96.7793 280.987 98.6008C281.035 99.8469 281.613 100.562 282.96 100.877C282.824 100.345 282.702 99.9459 282.621 99.5354C282.272 97.7798 282.938 96.4494 284.381 95.9949C285.765 95.5588 287.101 96.3321 287.746 98.0657C288.427 99.8946 288.563 101.723 287.072 103.472C287.849 103.904 288.497 104.267 289.078 104.593C289.925 102.673 290.694 100.961 291.434 99.2385C291.817 98.3516 292.347 98.2306 293.153 98.7327C294.398 99.5061 295.605 100.397 296.956 100.928C299.934 102.101 301.182 104.073 300.545 107.239C300.405 107.932 300.645 108.694 300.634 109.424C300.608 111.421 301.889 112.279 303.678 112.938L303.685 112.935ZM266.711 93.0666C266.578 93.8362 266.438 94.3567 266.402 94.8844C265.89 102.486 265.084 110.087 265.054 117.692C265.043 120.598 266.799 123.519 267.804 126.415C267.9 126.69 268.367 126.847 268.684 127.027C273.389 129.743 278.097 132.455 282.802 135.167C288.935 138.704 295.06 142.248 301.212 145.755C301.749 146.063 302.504 146.408 303.019 146.257C304.057 145.961 305.673 142.662 305.6 141.519C305.364 137.872 305.165 134.221 304.941 130.571C304.643 125.708 304.355 120.84 303.998 115.977C303.95 115.306 303.737 114.408 303.269 114.056C301.72 112.891 300.063 111.846 298.366 110.901C295.016 109.032 291.563 107.349 288.246 105.425C283.133 102.464 278.119 99.3338 273.021 96.3431C271.04 95.1813 268.945 94.2137 266.718 93.0629L266.711 93.0666ZM287.142 183.762C285.931 184.513 285.239 184.986 284.506 185.386C282.485 186.492 280.508 187.698 278.403 188.614C276.856 189.285 275.314 188.966 274.07 187.618C273.289 186.771 272.409 185.983 271.463 185.327C271.084 185.063 270.193 184.971 269.91 185.221C265.912 188.75 262.242 192.529 260.416 197.722C259.882 199.236 259.831 200.372 261.483 201.175C262.003 201.427 262.415 201.963 262.783 202.443C263.655 203.582 268.018 203.927 269.071 202.904C270.882 201.142 272.829 200.749 275.347 201.548C275.656 201.647 276.242 201.431 276.466 201.167C278.178 199.155 282.297 197.649 284.462 198.312C285.102 196.186 287.753 194.574 290.536 195.087C289.384 191.242 288.309 187.662 287.142 183.762ZM315.907 200.958C314.795 201.636 314.184 201.992 313.588 202.373C312.152 203.293 310.772 204.312 309.281 205.133C306.542 206.639 304.643 206.364 302.357 204.319C301.631 203.67 300.939 202.967 300.133 202.439C299.787 202.212 299.003 202.146 298.738 202.377C295.023 205.595 291.6 209.084 289.623 213.672C288.335 216.667 288.419 216.7 290.761 218.803C290.941 218.965 291.202 219.097 291.287 219.302C291.802 220.533 292.649 221.013 294.004 220.746C295.2 220.511 297.114 220.849 297.505 220.204C298.591 218.415 300.321 218.844 301.745 218.378C302.401 218.162 303.255 218.617 304.02 218.624C304.451 218.628 304.944 218.426 305.305 218.173C305.894 217.759 306.336 217.096 306.962 216.769C307.812 216.326 308.766 216.044 309.697 215.791C310.82 215.483 311.972 215.274 313.305 214.981C313.489 213.376 316.897 211.657 319.327 212.382C318.153 208.461 317.078 204.869 315.904 200.955L315.907 200.958ZM271.839 64.2923C271.692 64.3985 271.541 64.5048 271.393 64.6111C272.675 66.8431 273.698 69.2804 275.281 71.2742C281.105 78.6079 288.949 82.317 298.211 82.9877C302.364 83.2882 306.524 83.0646 310.315 80.9059C312.951 79.4033 314.472 76.321 313.967 73.0701C313.448 73.1324 312.907 73.1324 312.403 73.268C304.698 75.368 296.93 75.4853 289.159 73.7774C282.492 72.3114 276.418 69.6469 271.839 64.2923ZM323.52 122.94C318.51 125.784 313.621 128.563 308.445 131.502C308.033 125.238 307.661 119.602 307.289 113.965C307.076 113.924 306.862 113.88 306.653 113.84C306.468 114.511 306.1 115.189 306.133 115.849C306.454 122.548 306.829 129.241 307.208 135.937C307.326 137.985 307.51 140.034 307.68 142.303C308.379 142.006 308.953 141.834 309.458 141.541C312.671 139.66 315.804 137.626 319.106 135.922C320.465 135.222 320.667 134.218 320.465 133.188C320.041 131.014 320.77 129.222 322.272 127.929C323.896 126.528 323.837 124.982 323.516 122.94H323.52ZM324.282 120.576C324.525 124.113 324.764 127.562 325.026 131.352C324.518 130.351 324.116 129.563 323.723 128.786C320.914 131.198 321.105 134.28 324.091 136.131C324.606 136.45 325.114 137.186 325.166 137.773C325.486 141.288 325.707 144.81 325.887 148.336C325.972 149.974 327.043 150.219 328.287 150.12C329.517 150.025 331.103 150.12 331.059 148.262C330.993 145.473 330.757 142.691 330.595 139.961C329.811 139.789 329.038 139.814 328.534 139.462C327.779 138.931 326.634 138.092 326.679 137.454C326.804 135.614 327.466 133.815 327.864 131.986C327.949 131.594 327.816 131.154 327.794 130.868C328.512 130.113 329.819 129.376 329.841 128.603C329.922 125.773 329.576 122.933 329.384 120.023C327.691 120.21 326.137 120.379 324.278 120.584L324.282 120.576ZM316.459 84.2631C314.759 83.2919 313.459 82.5186 312.123 81.8149C311.777 81.6316 311.261 81.507 310.915 81.6279C308.681 82.3939 306.376 83.0463 304.274 84.0945C301.223 85.6192 298.351 85.7218 295.399 83.9956C294.733 83.6071 293.96 83.3908 293.231 83.1013C289.623 81.6683 286.015 80.2352 282.404 78.8022C281.892 78.5969 281.373 78.4064 280.858 78.2121C280.784 78.3661 280.711 78.52 280.637 78.6739C288.629 83.2992 296.621 87.9208 304.661 92.5718C307.845 88.8591 311.328 85.7768 316.456 84.2631H316.459ZM338.713 160.841L339.254 161.116C338.893 158.033 338.573 154.947 338.153 151.872C337.888 149.926 337.266 149.406 335.492 150.307C332.532 151.814 329.716 153.632 326.977 155.519C326.16 156.083 325.39 157.297 325.331 158.26C325.132 161.581 325.254 164.92 325.254 168.116C326.358 167.782 327.165 167.54 327.971 167.295C328.181 168.149 328.39 169.003 328.604 169.864C328.865 169.703 329.417 169.362 330.051 168.973C328.95 168.061 328.707 166.994 329.613 165.994C330.017 165.547 330.824 165.462 331.446 165.213C331.674 166.089 331.906 166.965 332.138 167.856C332.491 167.643 333.099 167.277 333.71 166.91C333.54 166.884 333.371 166.862 333.202 166.837C333.136 165.975 332.812 165.026 333.084 164.286C333.29 163.721 334.244 163.425 334.866 163.01C335.223 163.883 335.576 164.755 335.944 165.649C336.239 165.47 336.736 165.169 337.233 164.869C337.056 164.847 336.879 164.825 336.703 164.806C336.6 163.967 336.147 162.937 336.478 162.336C336.861 161.64 337.932 161.324 338.705 160.841H338.713ZM330.058 100.162C327.29 97.9338 325.478 97.7688 322.699 99.7406C318.757 102.537 316.761 106.495 316.515 111.227C316.327 114.782 318.561 117.479 321.451 117.677C319.993 109.71 322.839 103.915 330.058 100.162ZM274.541 71.8826C273.657 70.4752 272.899 69.2657 272.115 68.0233C267.355 70.3249 264.325 74.0486 263.184 78.7839C262.106 83.2479 262.617 84.56 266.692 86.3962C267.131 80.4331 269.557 75.5293 274.541 71.8789V71.8826ZM281.834 137.568C281.834 141.449 281.834 145.184 281.834 148.922C281.834 151.513 282.632 152.294 285.298 152.114C286.133 152.059 287.002 151.85 287.757 151.502C288.191 151.304 288.703 150.692 288.714 150.256C288.798 147.229 288.758 144.198 288.758 141.57C286.321 140.162 284.167 138.916 281.834 137.568ZM309.237 125.477C313.36 123.083 317.089 120.917 320.52 118.927C319.018 117.498 317.674 116.178 316.272 114.921C316.025 114.701 315.469 114.555 315.189 114.679C312.933 115.68 310.809 115.405 308.456 113.858C308.721 117.806 308.961 121.408 309.233 125.477H309.237ZM321.69 99.616C322.121 99.0003 322.876 98.4029 322.802 97.9338C322.53 96.1782 321.547 94.8111 319.842 94.0488C318.282 93.3488 317.012 93.8472 315.815 94.8954C311.365 98.784 309.259 103.86 308.302 109.523C307.646 113.404 311.099 115.31 314.24 114.13C314.851 113.899 315.344 113.36 315.889 112.964C315.384 112.392 314.939 111.751 314.361 111.264C313.139 110.226 311.401 109.519 310.676 108.233C309.274 105.748 311.217 100.954 314.1 98.7107C316.099 97.1568 318.326 97.362 321.694 99.6197L321.69 99.616ZM317.464 182.355C315.068 181.046 312.911 179.866 310.595 178.602C310.595 182.435 310.573 186.119 310.632 189.802C310.639 190.15 311.162 190.777 311.468 190.788C313.19 190.85 314.928 190.824 316.643 190.674C316.949 190.649 317.413 189.905 317.428 189.479C317.501 187.049 317.464 184.616 317.464 182.355ZM288.762 165.202C286.321 163.864 284.156 162.681 281.837 161.412C281.837 164.638 281.837 167.724 281.837 170.81C281.837 173.555 282.286 174.061 285.058 174.05C285.953 174.046 286.906 173.855 287.72 173.5C288.184 173.298 288.695 172.594 288.717 172.096C288.821 169.725 288.765 167.35 288.765 165.202H288.762ZM274.511 133.045C273.503 131.949 272.807 130.89 271.846 130.205C269.601 128.61 266.545 127.976 265.879 124.575C265.702 124.652 265.522 124.729 265.345 124.806C264.867 129.428 264.384 134.049 263.854 139.155C267.591 137.014 270.838 135.152 274.511 133.049V133.045ZM301.248 25.7029C299.459 23.6945 294.744 20.7001 292.41 20.1174C291.872 19.9855 291.088 19.8902 290.727 20.1724C289.527 21.107 288.467 22.2211 287.33 23.2877C289.848 24.7134 292.064 25.7652 294.055 27.1433C296.838 29.0675 297.133 29.1664 299.787 26.993C300.258 26.6082 300.7 26.1867 301.245 25.7029H301.248ZM330.827 99.0736C331.166 98.4139 331.707 97.8641 331.674 97.351C331.247 89.9549 324.65 86.6161 318.282 90.4937C312.745 93.8619 309.362 98.8977 307.315 104.835C306.446 107.349 306.237 110.091 305.729 112.73C306.005 112.803 306.284 112.876 306.561 112.949C306.759 112.422 307.057 111.905 307.138 111.359C307.319 110.16 307.267 108.918 307.529 107.741C309.001 101.152 312.049 95.5478 318.064 91.9817C322.051 89.6178 326.645 90.3874 328.781 93.8362C329.679 95.2913 330.062 97.0615 330.824 99.0809L330.827 99.0736ZM299.975 10.6139C302.916 10.6066 304.617 9.6207 304.657 7.89813C304.713 5.50852 302.415 3.32048 299.879 3.3498C297.449 3.37912 295.104 5.57449 295.112 7.8065C295.119 9.51075 297.037 10.6176 299.971 10.6103L299.975 10.6139ZM298.344 201.596C296.039 200.251 294.379 200.874 292.726 202.626C289.156 206.408 286.431 210.579 285.478 215.791C285.953 215.97 286.288 216.106 286.626 216.223C287.002 216.355 287.385 216.469 287.816 216.608C289.351 210.202 293.551 205.767 298.34 201.6L298.344 201.596ZM259.039 199.404C260.618 192.961 264.822 188.471 269.623 184.345C267.079 183.23 266.214 183.373 264.44 185.041C260.482 188.761 257.802 193.185 256.679 198.635C257.486 198.895 258.159 199.115 259.039 199.401V199.404ZM270.62 43.2622C269.188 50.5703 270.768 56.5737 274.736 58.5491C275.918 55.5145 276.091 52.4285 274.721 49.5368C273.676 47.3267 272.041 45.3879 270.62 43.2622ZM270.977 183.956C272.2 184.931 272.903 185.635 273.738 186.1C274.202 186.36 275.049 186.485 275.45 186.236C278.417 184.374 281.314 182.406 284.37 180.383C283.777 179.826 283.192 179.104 282.448 178.635C281.918 178.301 280.979 177.978 280.545 178.22C277.427 179.976 274.394 181.882 270.981 183.952L270.977 183.956ZM299.846 201.182C300.707 201.904 301.23 202.241 301.628 202.692C302.872 204.099 303.954 203.938 305.302 202.707C306.413 201.695 307.797 200.969 309.093 200.17C310.411 199.36 311.769 198.616 313.382 197.685C311.792 196.681 311.1 194.391 308.979 195.552C305.949 197.216 303.078 199.17 299.85 201.178L299.846 201.182ZM334.785 110.384C334.947 110.369 335.109 110.355 335.271 110.344C335.271 108.676 335.547 106.95 335.212 105.348C334.586 102.379 332.035 101.32 329.292 102.614C325.269 104.516 321.978 111.051 322.872 115.409C323.222 117.109 323.962 118.539 325.839 118.96C327.639 119.363 329.808 118.403 330.879 116.809C327.658 118.267 325.961 118.165 324.621 116.428C323.078 114.434 323.281 110.703 325.206 108.277C327.908 110.245 330.621 112.216 333.401 114.24C333.592 113.803 333.772 113.386 333.828 113.261C330.964 111.201 328.232 109.237 325.504 107.276C327.485 104.3 329.937 102.845 332.027 103.629C335.234 104.831 335.164 107.584 334.785 110.384ZM313.559 179.206C314.262 177.084 314.972 174.947 315.738 172.631C314.733 173.067 313.713 173.529 312.675 173.951C310.547 174.819 309.24 174.266 308.64 172.081C308.302 170.85 308.247 169.542 308.062 168.266C307.028 169.512 306.277 170.872 305.824 172.323C305.357 173.815 305.949 175.098 307.345 175.875C309.443 177.04 311.574 178.147 313.562 179.21L313.559 179.206ZM279.297 151.092C279.194 151.026 279.087 150.96 278.984 150.894C278.351 152.246 277.571 153.551 277.118 154.958C276.654 156.402 277.055 157.788 278.484 158.583C280.63 159.778 282.824 160.881 284.686 161.86C285.511 159.675 286.347 157.454 287.138 155.354C286.763 155.482 286.082 155.677 285.43 155.948C284.985 156.135 284.591 156.435 284.16 156.663C282.22 157.674 280.615 157.172 279.963 155.142C279.547 153.851 279.503 152.44 279.293 151.084L279.297 151.092ZM318.569 154.555C320.137 155.398 321.234 156.043 322.386 156.567C322.74 156.729 323.457 156.736 323.649 156.509C325.103 154.797 326.469 153.008 327.93 151.165C326.929 150.699 325.883 150.333 324.978 149.758C324.002 149.135 323.226 149.34 322.545 150.065C321.238 151.469 320.001 152.932 318.572 154.555H318.569ZM295.101 29.1921C294.99 29.1371 294.637 29.0052 294.324 28.8109C292.925 27.9496 291.548 27.0444 290.138 26.2014C286.961 24.3029 286.641 24.4128 285.158 27.7847C285.117 27.88 285.169 28.0156 285.18 28.2245C286.376 28.8476 287.874 29.2397 288.802 30.1816C291.121 32.5346 292.995 31.666 294.92 29.8078C294.957 29.7748 294.953 29.7015 295.097 29.1921H295.101ZM324.334 62.2252C323.181 61.0927 321.897 61.1513 320.678 61.9356C317.921 63.7132 316.158 66.1834 316.128 69.5516C316.113 70.9627 316.879 72.0475 318.433 72.37C318.363 67.7741 320.428 64.4938 324.334 62.2288V62.2252ZM323.623 120.415C322.626 119.158 321.849 118.997 320.748 119.664C317.424 121.676 314.078 123.662 310.676 125.539C309.436 126.224 309.053 127.027 309.539 128.46C314.21 125.792 318.856 123.138 323.623 120.415ZM323.402 173.163C323.248 170.887 323.211 168.647 322.865 166.452C322.78 165.913 321.573 165.059 321.087 165.18C320.166 165.407 318.823 166.107 318.661 166.833C317.888 170.304 319.555 172.444 323.399 173.163H323.402ZM330.809 128.695C330.978 128.801 331.148 128.911 331.321 129.017C332.083 128.328 333.482 127.65 333.496 126.95C333.555 123.706 333.228 120.455 333.036 117.208C332.878 117.146 332.723 117.084 332.565 117.021C331.788 117.956 330.393 118.869 330.349 119.836C330.22 122.779 330.618 125.741 330.809 128.695ZM319.618 143.347C316.496 145.14 313.647 150.135 313.934 153.489C314.019 154.46 314.438 155.523 315.035 156.285C315.454 156.82 316.437 156.923 317.126 157.201C316.666 155.563 316.003 154.288 316.01 153.019C316.029 150.234 317.28 147.881 319.412 146.049C320.358 145.235 320.962 144.458 319.614 143.347H319.618ZM262.334 138.85C262.558 138.788 262.783 138.729 263.011 138.667C263.011 136.677 263.089 134.683 262.96 132.7C262.927 132.198 262.131 131.278 261.874 131.337C260.692 131.612 258.977 131.883 258.583 132.697C258.093 133.712 258.314 135.508 258.954 136.501C259.639 137.564 261.174 138.088 262.334 138.847V138.85ZM303.976 204.4C304.072 204.642 304.171 204.884 304.267 205.125C308.81 206.009 311.449 202.23 315.237 200.643C314.38 199.745 314.475 197.979 312.789 198.976C309.818 200.731 306.91 202.586 303.976 204.4ZM275.17 187.273C275.266 187.486 275.366 187.698 275.461 187.907C280.048 188.845 282.662 184.975 286.406 183.491C285.658 182.347 285.437 180.804 283.788 181.812C280.887 183.586 278.038 185.448 275.17 187.273ZM291.066 194.46C292.892 193.405 294.526 192.481 296.139 191.524C298.259 190.271 298.289 190.124 297.284 187.94C294.876 188.655 292.505 189.358 290.091 190.073C290.337 191.184 290.676 192.712 291.062 194.46H291.066ZM319.817 211.624C321.591 210.612 323.181 209.721 324.75 208.805C327.006 207.486 326.999 207.475 326.038 205.213C323.686 205.91 321.363 206.595 319.04 207.281C318.889 206.918 318.838 206.973 318.845 207.013C319.154 208.49 319.467 209.963 319.817 211.624ZM326.182 109.94C325.04 113.254 325.398 115.687 327.01 116.49C328.438 117.201 330.496 116.142 331.715 114.038C329.929 112.715 328.136 111.392 326.178 109.944L326.182 109.94ZM333.257 111.659C334.314 108.317 333.923 105.968 332.296 105.165C330.93 104.491 329.097 105.443 327.658 107.664C329.502 108.98 331.346 110.296 333.257 111.659ZM296.743 199.731C298.513 200.962 299.64 200.68 301.042 199.602C303.424 197.77 306.071 196.282 308.604 194.647C308.585 194.453 308.563 194.262 308.545 194.068C307.632 194.068 306.531 193.734 305.843 194.127C302.791 195.853 299.857 197.784 296.739 199.731H296.743ZM280.273 177.073C278.896 177 277.729 176.571 277.022 176.963C273.97 178.664 271.051 180.603 268.088 182.453C268.15 182.644 268.213 182.835 268.275 183.025C269.17 183.135 270.311 183.652 270.915 183.285C273.959 181.442 276.864 179.371 280.276 177.073H280.273ZM307.613 21.6934C306.262 20.6598 305.029 19.7179 303.627 18.6404C303.328 21.6347 301.182 21.697 299.065 22.0342C300.317 23.0311 301.433 23.9181 302.493 24.7647C304.197 23.7421 305.762 22.8039 307.613 21.6934ZM311.88 167.786C312.513 167.331 312.992 166.851 313.57 166.598C315.874 165.587 316.415 164.359 315.528 161.61C314.538 162.079 313.555 162.516 312.594 163.003C310.43 164.103 310.15 165.693 311.876 167.786H311.88ZM306.281 145.195C306.402 145.345 306.524 145.495 306.645 145.645C311.821 142.677 317.001 139.704 322.57 136.508C321.746 136.332 321.175 136.017 320.914 136.182C316.08 139.254 310.595 141.332 306.281 145.195ZM313.886 78.6153L314.133 78.9671C316.147 77.5964 318.156 76.222 320.362 74.7193C319.57 74.2135 319.121 73.924 318.668 73.6381C316.599 72.326 315.362 72.9125 314.854 75.3607C314.626 76.4676 314.214 77.5341 313.883 78.6189L313.886 78.6153ZM310.753 170.194C313.238 171.147 315.138 171.158 317.413 169.871C316.603 169.714 316.242 169.644 316.128 169.622C316.673 168.68 317.207 167.76 317.936 166.5C315.245 167.2 313.176 167.742 310.765 168.369C311.457 168.86 311.825 169.12 312.274 169.439C311.843 169.651 311.508 169.82 310.753 170.194ZM259.93 120.694C261.609 121.782 263.059 122.724 264.782 123.846C265.548 121.189 262.835 119.36 263.836 116.955C263.685 116.926 263.538 116.897 263.387 116.867C262.312 118.059 261.237 119.25 259.93 120.697V120.694ZM321.698 84.4794C321.742 84.4024 321.786 84.3218 321.83 84.2448C320.457 82.4086 319.125 80.5358 317.667 78.7655C317.405 78.4467 316.551 78.3147 316.124 78.4833C315.37 78.7875 314.733 79.3849 313.868 79.986C316.607 81.5583 319.15 83.0207 321.694 84.4794H321.698ZM310.61 154.474V160.665C312.344 159.613 313.831 158.711 315.362 157.777C313.868 156.739 312.377 155.702 310.61 154.474ZM319.261 139.462C321.153 140.408 322.846 141.255 324.882 142.274C324.658 140.199 324.481 138.568 324.256 136.508C322.397 137.608 320.881 138.506 319.261 139.466V139.462ZM323.804 98.106C325.269 97.4793 325.331 96.0243 324.201 93.8069C323.089 91.6299 321.952 91.4173 319.092 93.0519C321.749 93.7922 323.203 95.5148 323.804 98.106ZM293.868 177.942C293.901 177.678 293.934 177.414 293.967 177.15C293.205 176.934 292.384 176.428 291.692 176.56C289.638 176.956 287.735 179.389 287.595 181.647C289.752 180.372 291.81 179.155 293.871 177.938L293.868 177.942ZM329.76 179.452C325.346 181.702 325.236 181.874 326.2 185.059C329.093 184.341 330.132 182.391 329.76 179.452ZM334.921 179.95C338.138 179.389 338.838 177.322 338.448 174.614C333.824 176.784 334.593 176.01 334.921 179.95ZM316.062 198.891C318.105 197.77 319.824 196.886 321.466 195.879C321.911 195.604 322.11 194.937 322.419 194.446C321.694 194.24 320.847 193.687 320.266 193.888C318.12 194.64 316.934 196.377 316.062 198.891ZM306.41 142.424C306.583 142.431 306.756 142.438 306.929 142.446C306.351 133.353 305.773 124.26 305.195 115.17C305.04 115.181 304.886 115.189 304.731 115.2C305.29 124.274 305.85 133.349 306.41 142.424ZM317.413 98.4615C314.354 98.2306 313.073 100.408 312.035 102.676C311.111 104.696 310.654 106.851 312.163 109.27C312.255 103.486 313.625 100.847 317.413 98.4615ZM287.407 161.841C287.366 162.105 287.322 162.365 287.282 162.629C288.033 162.831 288.817 163.274 289.531 163.183C291.298 162.955 293.109 160.672 293.47 158.403C291.397 159.58 289.402 160.709 287.407 161.841ZM277.412 95.1227C276.595 94.0085 275.896 92.7697 274.92 91.8058C274.136 91.0251 273.164 91.6592 273.374 92.5388C273.694 93.8655 274.489 95.097 275.215 96.2918C275.38 96.563 276.142 96.706 276.499 96.5704C276.827 96.4457 276.974 95.8593 277.412 95.1227ZM293.647 179.884C291.644 180.903 289.914 181.717 288.265 182.673C287.915 182.875 287.874 183.601 287.69 184.084C288.261 184.279 288.938 184.773 289.384 184.62C291.5 183.887 292.811 182.322 293.643 179.888L293.647 179.884ZM296.894 107.261C296.871 105.172 295.432 103.109 294.295 103.233C293.893 103.277 293.29 103.911 293.242 104.329C293.087 105.751 294.803 108.17 295.881 108.075C296.33 108.035 296.724 107.408 296.89 107.261H296.894ZM287.079 101.569C287.046 99.594 285.544 97.428 284.447 97.5563C284.035 97.6039 283.42 98.3846 283.402 98.85C283.343 100.283 285.033 102.548 285.997 102.405C286.476 102.335 286.877 101.734 287.079 101.569ZM293.886 156.428C293.915 156.234 293.945 156.043 293.974 155.849C293.308 155.611 292.631 155.131 291.983 155.175C290.219 155.295 288.198 157.615 287.727 159.961C289.855 158.741 291.869 157.582 293.886 156.424V156.428ZM292.336 99.77C291.593 101.683 290.911 103.439 290.219 105.216C291.158 105.784 291.913 106.239 292.763 106.756C292.027 102.926 292.126 102.691 295.075 101.273C294.18 100.782 293.367 100.334 292.336 99.77ZM252.656 132.829C256.558 132.235 256.794 131.96 256.466 128.552C253.042 129.494 252.785 129.776 252.656 132.829ZM295.41 185.426C292.159 182.904 293.279 183.329 289.918 186.049C292.458 187.812 293.275 187.735 295.41 185.426ZM316.183 200.621C316.18 200.837 316.172 201.054 316.169 201.27C316.857 201.431 317.604 201.853 318.219 201.706C320.251 201.219 321.985 199.085 322.018 197.224C320.045 198.374 318.116 199.496 316.187 200.621H316.183ZM324.867 147.196C324.006 147.082 323.156 146.694 322.581 146.943C320.071 148.028 319.073 150.223 318.543 152.66C320.564 150.916 322.552 149.197 324.867 147.196ZM292.598 18.7357C294.007 19.3697 295.149 19.8828 295.852 20.198C296.868 18.9373 297.748 17.8414 298.837 16.4853C296.117 15.8183 294.655 17.6105 292.598 18.7357ZM267.62 144.594C265.941 145.931 262.617 145.994 263.935 149.519C266.273 148.816 267.867 147.511 267.62 144.594ZM272.682 144.421C275.196 143.828 276.617 142.369 276.367 139.576C274.548 140.775 271.658 141.104 272.682 144.421ZM270.377 93.7886C271.312 94.364 272.019 94.8001 272.844 95.3096C272.229 91.4906 272.277 91.3806 275.159 89.856C274.375 89.4455 273.676 89.079 272.8 88.6172C271.949 90.4351 271.187 92.055 270.377 93.7886ZM277.552 91.3953C278.484 93.6676 279.172 95.7714 277.092 97.7249C278.031 98.238 278.892 98.7107 279.816 99.2165C279.717 97.3474 279.463 95.6504 279.581 93.9828C279.691 92.4435 278.973 91.8534 277.552 91.3953ZM318.458 203.209C321.308 204.697 321.889 204.62 324.069 202.567C322.643 201.47 320.773 201.684 318.458 203.209ZM299.662 110.721C299.577 108.911 299.459 107.346 299.437 105.781C299.408 103.611 299.437 103.611 297.343 102.816C298.672 105.638 298.649 106.543 297.181 109.237C297.95 109.699 298.723 110.16 299.662 110.721ZM321.304 178.517C320.538 176.703 319.666 176.71 318.587 177.546C318.109 177.916 317.531 178.165 317.096 178.576C316.765 178.891 316.592 179.371 316.349 179.778C316.868 180.009 317.52 180.559 317.877 180.412C319.095 179.903 320.207 179.148 321.304 178.517ZM290.61 140.958C290.337 140.936 290.065 140.914 289.796 140.892V150.249C291.096 147.207 290.315 144.055 290.61 140.958ZM280.795 136.868C279.93 139.301 280.195 149.329 280.795 149.999V136.868ZM313.128 154.742C312.789 149.739 314.932 145.88 318.966 142.479C315.053 143.428 310.978 151.392 313.128 154.742ZM319.077 181.504C318.212 182.201 317.939 186.016 318.517 189.446C319.397 188.369 319.673 184.458 319.077 181.504ZM290.632 163.93C289.45 164.931 289.189 168.464 289.907 172.246C291.096 169.673 290.297 166.914 290.632 163.93ZM309.321 189.344C309.384 189.34 309.45 189.333 309.513 189.329V177.839C309.45 177.847 309.384 177.85 309.321 177.858V189.347V189.344ZM280.505 172.147L280.795 172.191V160.58L280.505 160.591V172.147ZM273.764 46.6817C273.93 46.634 274.099 46.5864 274.265 46.5424C273.352 43.9146 272.439 41.2831 271.526 38.6552C270.834 41.7998 272.119 44.2994 273.764 46.6854V46.6817ZM309.248 98.2196C306.189 102.702 304.62 107.628 304.794 113.07C305.261 107.818 306.623 102.834 309.248 98.2196ZM325.423 92.7111C325.254 92.8357 325.085 92.9603 324.912 93.0849C325.346 94.5656 325.78 96.0463 326.241 97.6076C326.741 97.6955 327.315 97.7981 327.893 97.9008C328.03 97.7872 328.166 97.6735 328.306 97.5563C327.345 95.94 326.388 94.3237 325.427 92.7111H325.423ZM316.135 176.681C316.261 176.795 316.386 176.905 316.507 177.018C320.13 175.501 320.211 175.391 319.397 172.488C318.182 174.05 317.159 175.365 316.132 176.681H316.135ZM336.04 147.262C334.564 146.686 333.294 146.191 331.932 145.664C331.766 148.695 332.396 148.926 336.04 147.262ZM325.707 177.359C327.124 176.315 329.543 176.399 329.701 173.995C328.493 175.281 325.81 174.845 325.707 177.359ZM324.812 144.3C323.995 142.167 322.699 141.79 320.593 142.952C320.859 143.421 321.124 143.886 321.355 144.3H324.809H324.812ZM325.799 68.7783C324.963 69.4343 323.45 70.6181 321.937 71.8019C324.65 71.6993 325.409 69.7715 325.799 68.7783ZM311.184 128.533C311.265 128.673 311.342 128.808 311.423 128.947C315.138 126.807 318.856 124.667 322.57 122.526C322.493 122.391 322.412 122.251 322.335 122.116C318.62 124.256 314.902 126.393 311.188 128.533H311.184ZM296.47 11.237C298.458 13.2381 301.753 13.2564 303.133 11.237H296.47ZM315.929 142.413C313.408 144.447 311.571 147.177 311.409 150.439C312.837 147.903 314.435 145.066 315.929 142.413ZM285.261 180.079C286.439 178.481 287.51 177.026 288.563 175.604C286.98 176.589 285.371 177.59 283.722 178.616C284.278 179.148 284.834 179.672 285.261 180.082V180.079ZM317.244 192.881C315.764 193.8 314.184 194.783 312.539 195.805C313.065 196.267 313.676 196.802 314.14 197.213C315.153 195.802 316.213 194.321 317.244 192.881ZM302.655 19.608H297.195C298.789 21.4881 301.16 21.4771 302.655 19.608ZM325.718 65.4431C323.336 65.4687 321.989 66.8651 321.414 69.416C322.677 68.2505 324.087 66.9531 325.718 65.4431ZM329.049 134.342C330.794 133.309 332.208 132.473 333.802 131.531C331.611 130.666 330.264 131.465 329.049 134.342ZM309.524 154.159C309.413 154.159 309.299 154.159 309.189 154.159V161.493C309.299 161.493 309.413 161.5 309.524 161.504V154.163V154.159ZM328.987 137.883C330.886 138.975 332.326 138.132 333.559 135.215C331.946 136.157 330.555 136.967 328.987 137.883ZM317.98 154.933C317.306 151.238 318.782 148.709 321.076 146.51C318.105 147.852 316.308 152.308 317.98 154.933ZM313.798 19.2158C313.934 18.9519 314.067 18.688 314.203 18.4205C312.222 17.3283 310.242 16.2398 308.261 15.1476C308.188 15.2832 308.114 15.4188 308.04 15.5508C309.962 16.7712 311.88 17.9917 313.802 19.2121L313.798 19.2158ZM306.126 192.76C306.925 192.925 307.584 193.06 308.195 193.185V189.641C308.099 189.615 308.004 189.593 307.908 189.567C307.334 190.594 306.763 191.62 306.126 192.76ZM314.14 172.569C314.114 172.444 314.089 172.32 314.067 172.195C312.966 172.052 311.869 171.909 310.731 171.763V173.72C311.987 173.295 313.065 172.935 314.14 172.573V172.569ZM277.287 175.593C278.174 175.761 278.815 175.886 279.492 176.014V172.569C279.389 172.518 279.286 172.47 279.179 172.419C278.59 173.404 278.001 174.394 277.287 175.593ZM310.264 148.852C311.335 146.811 312.289 144.993 313.216 143.223C311.541 143.886 310.036 146.584 310.264 148.852ZM285.169 155.468C285.143 155.321 285.117 155.178 285.091 155.032C284.061 154.87 283.03 154.709 281.837 154.526C281.874 155.189 281.9 155.735 281.948 156.586C283.199 156.153 284.186 155.812 285.172 155.471L285.169 155.468ZM316.066 160.522C315.955 160.32 315.845 160.122 315.731 159.921C314.144 160.712 312.425 161.262 311.037 162.402C311.125 162.56 311.214 162.717 311.302 162.878C312.889 162.094 314.479 161.306 316.066 160.522ZM292.818 188.105C292.921 188.347 293.025 188.589 293.124 188.831C294.42 188.098 295.716 187.365 297.011 186.632L296.547 185.822C295.303 186.584 294.059 187.346 292.815 188.105H292.818ZM321.194 205.547C323.461 205.73 325.166 204.704 325.453 203.025C324.065 203.846 322.81 204.59 321.194 205.547ZM273.9 59.6523C272.616 58.1423 271.633 56.9841 270.646 55.826C271.162 57.424 271.25 59.3738 273.9 59.6523ZM282.323 152.745C284.466 154.09 286.619 153.998 287.804 152.745H282.323ZM252.722 128.343C252.803 128.588 252.88 128.834 252.961 129.079C254.408 128.401 255.855 127.723 257.302 127.045C257.206 126.836 257.11 126.631 257.018 126.422C255.586 127.064 254.158 127.705 252.726 128.346L252.722 128.343ZM336.692 170.967C337.273 170.34 337.943 169.618 338.617 168.896C338.554 168.849 338.488 168.805 338.425 168.757C336.806 169.706 335.186 170.659 333.57 171.609C333.629 171.671 333.691 171.733 333.75 171.792C334.663 171.535 335.576 171.279 336.695 170.964L336.692 170.967ZM287.668 174.757H282.467C284.072 176.054 285.912 176.032 287.668 174.757ZM300.166 13.8832C300.015 13.8612 299.861 13.8392 299.71 13.8209C299.603 15.3052 299.496 16.7895 299.389 18.2739C299.625 18.2885 299.857 18.3069 300.093 18.3215C301.057 16.9105 299.905 15.3492 300.166 13.8868V13.8832ZM316.5 191.964H311.236C312.837 193.203 314.578 193.199 316.5 191.964ZM302.253 84.2301C302.239 84.1092 302.224 83.9846 302.213 83.8636H297.394C297.394 83.9846 297.394 84.1092 297.394 84.2301H302.257H302.253ZM324.448 185.833C324.683 185.811 324.923 185.792 325.158 185.77C325.022 184.33 324.889 182.89 324.753 181.446C324.521 181.464 324.289 181.486 324.058 181.504L324.451 185.833H324.448ZM324.231 87.8365C324.194 87.7229 324.157 87.6093 324.12 87.4957C322.228 87.9172 320.336 88.3423 318.444 88.7638C318.473 88.8957 318.499 89.0277 318.528 89.1633C320.428 88.7235 322.331 88.28 324.231 87.8402V87.8365ZM261.189 202.805C261.281 202.652 261.373 202.498 261.465 202.344C260.125 201.537 258.785 200.731 257.445 199.928C257.342 200.104 257.235 200.28 257.132 200.456C258.483 201.241 259.838 202.025 261.193 202.809L261.189 202.805Z" fill="#F1F1F1" fill-opacity="0.5"/>
<path d="M60.6782 88.4047C61.2414 85.359 61.3077 85.3077 64.3778 85.3077C65.4196 85.3077 66.4614 85.2967 67.5032 85.3077C69.5463 85.3334 70.0948 85.8648 70.2421 87.8733C70.5035 91.4504 70.7759 95.0238 71.0556 98.7695C72.0275 98.7145 72.9073 98.6632 73.9712 98.6009C73.8976 97.4281 73.8865 96.4055 73.754 95.3976C73.581 94.0672 74.0006 93.2646 75.4363 93.1509C77.3911 92.997 79.3422 92.7478 81.2969 92.7075C81.827 92.6965 82.6811 93.1949 82.843 93.6494C83.421 95.2547 83.9621 96.9223 84.1536 98.6082C84.5143 101.815 84.7904 105.051 84.7683 108.273C84.7573 109.911 84.021 111.542 83.6235 113.18C83.5167 113.628 83.3474 114.089 83.3768 114.533C83.5572 117.392 83.7854 120.247 84.0063 123.237C86.6126 123.351 86.5537 125.447 86.3071 127.064C86.0568 128.706 86.5206 130.15 86.6679 131.678C86.8777 133.84 86.7488 134.071 84.6395 134.581C84.9009 138.077 84.945 141.629 85.5119 145.092C85.8101 146.917 87.1796 148.541 87.7833 150.351C88.5453 152.624 88.9944 154.929 88.0778 157.388C87.6066 158.653 87.8127 160.177 87.7649 161.585C87.6913 163.758 87.6434 165.935 87.6103 168.112C87.5808 170.117 87.5882 172.125 87.5771 174.13C87.5587 176.622 87.5845 179.118 87.4998 181.607C87.4409 183.432 86.7746 183.85 84.3744 184.041C82.7878 184.165 81.9595 183.491 81.7276 181.962C81.1202 178.001 80.3987 174.057 79.9054 170.08C79.0882 163.535 78.3298 156.978 77.7371 150.41C77.5825 148.691 78.3077 146.91 78.3077 145.158C78.3077 142.666 78.0132 140.17 77.8255 137.678C77.7666 136.89 77.6414 136.109 77.5457 135.328C75.8266 134.661 74.9136 132.415 75.4584 130.403C75.5946 129.9 75.5578 129.27 75.3774 128.775C74.5234 126.433 75.0314 124.597 76.9641 123.71C76.7137 120.723 76.6107 117.67 76.1542 114.668C75.856 112.715 75.0424 110.842 74.4093 108.757H71.7809C71.9281 111.069 72.0569 113.287 72.2116 115.5C72.6754 122.185 73.176 128.867 73.5847 135.556C73.6325 136.34 73.3086 137.212 72.9478 137.942C72.3846 139.081 71.5821 140.1 70.9894 141.229C69.9991 143.12 69.0457 144.967 66.3657 144.469C66.1817 144.436 65.9277 144.755 65.7105 144.912C65.7546 145.121 65.7951 145.327 65.8393 145.536C66.8259 145.382 67.8898 145.4 68.788 145.03C70.4372 144.348 72.5944 145.07 73.5626 146.58C74.5676 148.152 74.7811 149.791 74.6964 151.576C74.6228 153.096 74.6817 154.625 74.6817 156.149C74.6854 160.148 73.5331 161.603 69.6015 162.362C69.6015 164.814 69.6089 167.306 69.6015 169.794C69.5942 172.246 69.5721 174.695 69.5574 177.447C70.8335 178.219 71.4704 179.649 71.4679 181.735C71.4679 183.505 71.4679 185.272 71.4679 187.042C71.4679 188.208 71.6005 189.384 70.047 189.839C69.7856 189.916 69.631 190.751 69.6236 191.239C69.5831 193.984 69.6236 196.729 69.5905 199.474C69.5795 200.233 69.4028 200.988 69.2886 201.853C71.2581 201.787 71.5931 203.099 71.4238 204.752C71.2802 206.155 71.6778 207.255 72.657 208.373C75.0388 211.081 76.2573 214.405 77.1481 217.854C77.4868 219.17 77.0119 219.624 75.694 219.617C67.9082 219.588 60.1223 219.592 52.3364 219.61C51.0038 219.614 50.6983 219.207 50.9633 217.836C51.626 214.409 52.9402 211.286 55.1784 208.651C56.3085 207.321 56.7687 206.002 56.5957 204.356C56.4337 202.813 57.0227 201.871 58.6056 201.897V190.055C56.6362 189.575 56.3306 188.285 56.4226 186.654C56.5257 184.832 56.4852 183 56.4337 181.174C56.3858 179.313 56.1907 177.418 58.6203 177.535V162.065C56.187 162.439 54.6704 161.596 54.0924 159.573C53.6065 157.879 53.3488 156.124 52.9439 154.181C52.0714 153.895 50.3927 154.544 49.9473 152.697C49.9142 152.565 49.1522 152.572 48.7325 152.569C46.5274 152.558 44.3187 152.539 42.1136 152.572C41.1123 152.587 39.9711 152.155 39.4741 153.745C39.349 154.145 37.8396 154.115 36.9672 154.288C36.0837 159.104 34.2725 161.658 31.5336 161.951V177.136C34.3424 177.392 33.5068 179.844 33.5473 181.852C33.5804 183.498 33.5436 185.144 33.5583 186.789C33.5694 187.973 33.6467 189.12 32.1042 189.564C31.8429 189.641 31.6772 190.462 31.6699 190.945C31.6294 193.628 31.6699 196.315 31.6441 198.998C31.6367 199.819 31.4932 200.636 31.4011 201.581C33.2454 201.508 33.6872 202.685 33.47 204.316C33.2528 205.936 33.805 207.178 34.9057 208.424C37.2985 211.136 38.4728 214.479 39.1575 217.972C39.2275 218.334 38.6237 219.155 38.2409 219.221C37.2285 219.39 36.1684 219.254 35.1266 219.254C28.4451 219.262 21.7636 219.265 15.0821 219.284C12.6856 219.291 12.6304 219.207 13.1421 216.956C13.9372 213.449 15.487 210.359 17.7694 207.555C18.4026 206.779 18.4652 205.433 18.5278 204.334C18.6492 202.219 18.8039 201.926 20.5672 201.57C20.4751 200.196 20.3353 198.862 20.3058 197.528C20.2616 195.578 20.28 193.625 20.3058 191.671C20.3205 190.579 20.4346 189.556 19.102 188.963C18.7045 188.787 18.5057 187.816 18.4873 187.203C18.4136 185.012 18.4983 182.813 18.4431 180.617C18.3989 178.832 18.3768 177.147 20.4641 177.308C20.4089 172.979 20.3537 168.834 20.3021 164.689C20.2911 163.791 20.3021 162.893 20.3021 162.039C16.5877 161.387 15.4797 160.034 15.4723 156.347C15.4686 154.273 15.2993 152.18 15.5312 150.131C15.7005 148.632 16.2233 147.111 16.9006 145.755C17.5559 144.436 19.8861 144.194 21.3623 144.817C22.2127 145.176 23.2287 145.143 24.6313 145.36C24.1601 144.704 24.0828 144.531 24.0349 144.539C21.0457 144.978 20.0812 142.798 18.7413 140.793C16.908 138.051 16.1092 135.35 16.4883 131.956C17.3056 124.634 17.6443 117.26 18.1744 109.908C18.1964 109.607 18.1744 109.306 18.1744 108.801C17.1031 108.702 16.0355 108.529 14.968 108.551C14.6551 108.559 14.1397 109.068 14.0771 109.413C13.4439 112.873 12.8623 116.34 12.3212 119.814C12.1629 120.833 12.1555 121.881 12.1371 122.915C12.1297 123.248 12.196 123.677 12.4058 123.904C12.8586 124.399 13.8415 124.769 13.8636 125.227C13.9225 126.474 13.5875 127.738 13.4329 128.995C13.385 129.38 13.3004 129.812 13.4182 130.161C14.0072 131.894 13.3556 133.921 11.872 135.013C11.5996 135.211 11.4192 135.677 11.3898 136.036C11.1247 139.07 10.3112 142.219 10.8413 145.118C11.3199 147.742 11.2315 150.212 11.0585 152.756C10.7345 157.498 10.5431 162.263 9.90993 166.969C9.2289 172.052 8.08034 177.07 7.18212 182.127C6.85448 183.986 5.60654 183.967 4.15612 183.879C2.54373 183.784 1.4504 183.34 1.47248 181.438C1.52034 177.487 1.52402 173.536 1.45776 169.589C1.43935 168.354 1.00864 167.119 1.02337 165.888C1.04178 164.048 1.39518 162.204 1.38781 160.364C1.38045 159.213 0.79145 158.07 0.780406 156.919C0.758318 154.724 0.839306 152.514 1.13013 150.34C1.28842 149.153 1.81484 147.947 2.43697 146.906C4.7304 143.069 3.43091 138.715 4.48375 134.526C1.82588 134.474 1.96577 132.686 2.41489 131.073C2.90449 129.321 2.529 127.606 2.6468 125.88C2.7462 124.421 2.9229 123.094 4.97336 123.347C5.19792 120.151 5.50714 117.12 5.56972 114.086C5.59549 112.909 5.24945 111.637 4.74144 110.56C3.52663 107.983 4.66782 105.418 4.56106 102.856C4.50952 101.647 4.60892 100.408 4.81875 99.2166C5.15742 97.2998 5.56604 95.383 6.13664 93.5248C6.26916 93.0923 7.17107 92.6305 7.7159 92.6378C9.67065 92.6635 11.6291 92.8541 13.5801 93.0337C14.7287 93.1399 15.3177 93.7154 15.1741 94.9908C15.0526 96.0647 15.1484 97.1642 15.1484 98.4543C16.3889 98.5789 17.6295 98.7035 19.0137 98.8464C19.3155 95.0641 19.6248 91.498 19.8714 87.9246C20.0223 85.7475 20.4346 85.3114 22.6729 85.2967C23.7147 85.2894 24.7564 85.2967 25.7982 85.2967C28.7985 85.2967 28.9273 85.4104 29.2108 88.3644H39.5514C39.7208 87.7523 40.0815 87.0633 40.041 86.3963C40.0116 85.9015 39.5404 85.1025 39.1318 85.0109C33.4516 83.7098 28.9015 80.5212 24.7417 76.6582C22.2937 74.3859 20.3794 71.7397 19.172 68.6134C18.5425 66.9788 17.6406 65.8207 15.5827 66.1982C14.0587 66.4767 13.5544 65.6704 13.5985 64.1824C13.6832 61.2577 13.6243 58.3256 13.6243 55.3973C13.6243 53.6551 14.5078 52.7609 16.2748 52.7144C16.573 52.7071 16.8712 52.6778 17.4491 52.6411C17.7694 49.3536 17.9645 46.0954 18.4284 42.8775C19.8015 33.308 24.2595 25.758 33.3411 21.5835C35.9953 20.3631 38.5869 18.7614 41.7749 18.8017C42.4228 18.8091 43.4241 17.3431 43.6744 16.4011C44.0573 14.9644 43.9284 13.3921 44.0205 11.7722C42.3492 11.0098 40.5895 10.2988 40.03 8.19509C39.3821 5.74683 40.0521 3.62477 42.1283 2.06712C43.8327 0.78802 46.5311 0.718384 48.3533 1.91319C50.3154 3.19596 51.5487 5.84579 50.6651 7.96419C50.1314 9.24695 48.7362 10.1632 47.7717 11.2811C47.3631 11.7575 46.7446 12.3403 46.7704 12.8497C46.855 14.5136 47.0796 16.1959 47.4993 17.8048C47.6281 18.2923 48.5447 18.8311 49.1485 18.897C53.982 19.4175 58.0866 21.6238 61.9224 24.3653C68.9868 29.4157 71.5637 36.7935 72.4619 44.9885C72.738 47.5101 72.9515 50.039 73.1908 52.5202C75.7996 52.9111 77.104 54.4395 77.104 57.1052C77.104 59.3628 77.0303 61.6242 77.126 63.8782C77.1997 65.5824 76.618 66.5573 74.8289 66.2055C72.9515 65.8353 72.1011 66.9385 71.5637 68.3312C68.8947 75.2545 63.4428 79.4437 57.2031 82.8192C55.4545 83.7647 53.4997 84.3548 51.6002 84.9852C50.6688 85.2931 50.216 85.6559 50.6026 86.6601C50.8198 87.2209 50.9744 87.8036 51.1695 88.4157H60.6782V88.4047ZM56.3417 103.659C54.49 102.621 53.982 101.012 54.9649 99.2899C55.8557 97.7286 58.0939 97.0139 59.5443 98.1317C60.3542 98.7548 61.0905 99.9753 61.1236 100.95C61.1604 101.973 60.3137 103.025 59.8978 103.963H64.492C63.8846 101.881 63.3618 99.9569 62.7323 98.0694C62.6219 97.7396 62.0513 97.3584 61.6868 97.3511C58.9995 97.2924 56.3085 97.2925 53.6175 97.3584C53.2788 97.3658 52.7487 97.8129 52.6567 98.1537C52.1303 100.049 51.7106 101.973 51.1548 104.3C53.069 104.04 54.674 103.82 56.2791 103.6C56.7466 103.688 57.3282 103.996 57.6559 103.824C58.6019 103.325 59.8941 102.797 60.207 101.965C60.5236 101.13 60.1334 99.5941 59.4781 98.9637C58.9075 98.4176 57.2325 98.282 56.5846 98.7365C55.841 99.2533 55.4802 100.591 55.3661 101.621C55.2962 102.259 55.9919 102.981 56.3417 103.666V103.659ZM83.2112 124.696C81.492 127.32 79.1618 125.726 76.8794 125.304C77.1224 128.229 77.3432 130.868 77.6046 134.013C79.968 131.693 82.4381 132.715 84.9156 133.17C84.691 130.553 84.5475 128.247 84.2493 125.96C84.1904 125.517 83.5388 125.15 83.1596 124.751C82.8909 121.302 82.6663 117.85 82.3092 114.408C82.243 113.785 81.654 112.737 81.2601 112.715C79.9312 112.638 78.5801 112.939 77.1776 113.1C77.4132 116.662 77.5936 119.873 77.8549 123.076C78.039 125.348 79.5704 126.221 81.7313 125.356C82.2319 125.154 82.7179 124.916 83.2112 124.696ZM10.0645 133.313C9.15895 133.17 8.246 132.876 7.35513 132.928C6.46059 132.979 5.3194 132.957 5.23473 134.383C5.00281 138.26 4.73408 142.138 4.46903 146.225H9.5234C9.80685 142.365 10.105 138.495 10.3517 134.617C10.3811 134.17 10.1271 133.708 9.99828 133.247C10.44 133.302 10.8818 133.357 11.4303 133.426C11.6401 130.648 11.8389 128.017 12.0782 124.861C9.40928 126.569 7.13794 126.206 4.76353 124.436C4.51688 127.536 4.29969 130.23 4.06777 133.118C6.21394 132.935 8.24968 131.436 10.0645 133.309V133.313ZM61.4844 180.537C60.5604 179.932 59.6364 179.324 58.613 178.653V188.849C59.7063 188.127 60.5935 187.537 61.4807 186.954C60.7702 187.819 59.5038 188.644 59.445 189.549C59.2094 193.167 59.3492 196.81 59.3492 200.416H63.6416V186.133C62.817 186.459 62.1212 186.734 61.4255 187.009C63.1593 185.063 64.9227 185.1 66.8111 187.115C66.0528 186.804 65.2982 186.496 64.4846 186.163V200.434H68.545V188.746C68.88 188.512 69.5022 188.285 69.5058 188.043C69.5721 184.96 69.55 181.874 69.55 178.503C68.9131 178.873 68.6113 179.049 68.3094 179.225C67.0541 178.928 65.7988 178.635 64.0428 178.22C64.3962 179.734 64.6061 180.625 64.8122 181.515C63.3176 182.347 62.3163 181.585 61.4218 180.471C62.1102 180.738 62.7986 181.01 63.6232 181.332V178.69H60.0119C60.5677 179.386 61.0242 179.961 61.4807 180.533L61.4844 180.537ZM22.5109 179.423C21.8961 179.107 21.2813 178.788 20.3831 178.327C20.3831 181.666 20.361 184.744 20.4273 187.819C20.431 188.043 21.0899 188.248 21.4433 188.464V200.104H25.7651C25.7651 195.618 25.7504 191.253 25.7725 186.888C25.7798 185.792 25.2387 185.855 24.5024 186.181C25.1687 185.902 26.0302 185.217 26.4609 185.426C27.6646 186.001 28.688 186.947 29.785 187.75C28.7359 187.119 27.6867 186.485 26.4793 185.756V200.093H30.5397C30.5986 199.844 30.6465 199.727 30.6465 199.61C30.6575 196.623 30.7385 193.636 30.6244 190.652C30.5839 189.652 30.0354 188.669 29.7188 187.68C30.2967 187.936 30.8784 188.193 31.5005 188.468V178.198C30.4992 178.994 29.7593 179.569 29.0341 180.159C26.413 182.292 24.6202 182.076 22.4373 179.349C23.4606 179.939 24.484 180.529 25.6694 181.215V178.378H21.8887C22.1428 178.807 22.3231 179.111 22.5035 179.415L22.5109 179.423ZM11.3088 112.609C12.6709 112.873 12.4169 111.799 12.4758 111.117C12.7776 107.595 13.0353 104.069 13.2893 100.543C13.4439 98.392 13.5691 96.2369 13.7163 93.9902C11.4708 93.8546 9.5418 93.741 7.46925 93.6164C7.04223 99.9973 6.63361 106.107 6.25444 111.824C8.11716 112.132 9.74427 112.4 11.3788 112.675C10.2228 112.675 9.05588 112.565 7.92205 112.726C7.46557 112.788 6.76981 113.4 6.72564 113.818C6.38696 117.014 6.17713 120.225 5.94153 123.435C5.80532 125.308 7.29255 125.436 8.50737 125.502C9.6596 125.565 11.0033 125.546 11.0953 123.736C11.2536 120.646 11.5518 117.564 11.7174 114.474C11.7506 113.862 11.4561 113.232 11.3162 112.612L11.3088 112.609ZM36.4776 21.3453C27.6794 24.5082 22.3195 30.5226 20.1107 39.4286C18.3069 46.7001 18.9732 54.0522 19.1536 61.397C19.1536 61.4922 19.2824 61.5839 19.3597 61.6902H71.4679C71.4679 56.2989 71.5268 51.0212 71.4532 45.7435C71.3796 40.4475 69.7635 35.5364 67.0026 31.0687C63.9692 26.1612 59.3676 23.2181 54.1955 21.3636C53.2715 22.5034 52.4137 23.3684 51.799 24.3763C51.2026 25.3549 50.5584 25.5234 49.4246 25.4575C46.5789 25.2925 43.7223 25.4172 40.8656 25.3915C40.3687 25.3878 39.6692 25.4025 39.4079 25.1056C38.3771 23.9401 37.4826 22.6537 36.4849 21.3453H36.4776ZM19.1609 62.3059C19.1315 62.8776 19.0726 63.2954 19.0984 63.7096C19.1315 64.2557 19.2125 64.7981 19.3082 65.3369C20.1475 70.0575 22.8054 73.6492 26.3099 76.7865C30.0538 80.1364 34.14 83.171 39.0876 83.9883C46.1777 85.1575 53.2604 84.9412 59.537 80.4955C63.8183 77.4645 67.9118 74.243 70.0617 69.3244C70.9967 67.1877 71.2912 64.7725 71.9244 62.3022H19.1609V62.3059ZM69.5132 104.993C67.2014 104.868 65.0184 104.652 62.8391 104.656C57.8878 104.67 52.9365 104.85 47.9852 104.861C44.3187 104.868 40.6558 104.645 36.9893 104.652C32.038 104.663 27.0904 104.857 22.1391 104.839C20.6629 104.831 20.2984 105.341 20.2138 106.708C19.6248 115.944 19.0468 125.18 18.2259 134.397C18.0639 136.215 18.5535 137.597 19.356 138.99C19.8788 139.902 20.6003 140.738 21.3734 141.456C21.9256 141.969 22.7133 142.548 23.3981 142.552C37.8507 142.614 52.3033 142.607 66.7559 142.578C67.4517 142.578 68.534 142.464 68.7806 142.032C70.0028 139.888 71.9391 138.007 71.7624 135.259C71.3833 129.365 71.0151 123.472 70.5808 117.578C70.2752 113.404 69.874 109.237 69.5058 104.985L69.5132 104.993ZM62.9421 86.4842C62.898 86.8104 62.8059 87.056 62.8428 87.2795C63.1925 89.277 62.2869 89.6581 60.4058 89.6435C49.8626 89.5482 39.3195 89.6032 28.7764 89.5958C28.3125 89.5958 27.845 89.5225 27.337 89.4822C27.2671 88.3937 27.2045 87.4481 27.1456 86.5245H21.782C21.3513 92.4289 20.9316 98.1867 20.512 103.919C24.2632 104.612 24.3736 104.549 25.3565 101.372C25.6252 100.499 25.9933 99.6417 26.1369 98.7511C26.4388 96.882 27.4438 96.2406 29.2991 96.5008C30.4403 96.6621 31.6257 96.5301 32.789 96.5301C35.6971 96.5301 37.5979 97.9192 38.4912 100.697C39.2324 102.996 40.7589 104.161 43.0707 104.19C43.1517 104.19 43.2364 104.073 43.3174 104.007C41.3258 101.903 41.0976 100.224 42.5848 98.6155C43.6634 97.4464 45.9016 97.2338 47.0906 98.3443C47.676 98.8941 48.3791 99.8067 48.2981 100.47C48.1472 101.734 47.4735 102.937 47.0354 104.12H50.3964C50.8934 102.031 51.4309 99.9789 51.8505 97.9045C52.053 96.8966 52.4506 96.4605 53.5476 96.4861C56.3048 96.5558 59.0658 96.5704 61.823 96.4788C62.9164 96.4422 63.3324 96.882 63.579 97.8349C64.0355 99.6014 64.5325 101.357 65.1031 103.091C65.2393 103.508 65.7068 104.069 66.0786 104.113C67.1903 104.249 68.3278 104.161 69.4911 104.161C69.0935 98.0951 68.718 92.341 68.3352 86.4842H62.9569H62.9421ZM82.751 112.118C82.3387 106.067 81.919 99.9203 81.4883 93.6091C79.3053 93.796 77.3874 93.9573 75.2191 94.1405C75.7014 100.441 76.1726 106.561 76.6291 112.502C78.8121 112.367 80.7189 112.246 82.7547 112.118H82.751ZM25.6878 215.901V205.782C19.7647 206.555 16.0908 209.12 14.1949 216.692C14.7618 217.121 15.2735 217.51 15.4318 217.631C16.1607 217.411 16.7865 217.011 17.3129 217.118C17.8357 217.22 18.2517 217.832 19.0026 218.463C19.4775 218.4 20.8985 218.584 21.1672 218.118C22.198 216.304 23.9245 216.297 25.6878 215.901ZM63.6453 206.045C57.3098 206.713 53.8089 209.927 52.3144 216.883C52.8297 217.447 53.242 217.898 53.6212 218.316C54.236 217.286 55.8079 216.85 56.2054 217.763C57.0264 219.639 59.0142 218.672 59.2278 218.283C60.2401 216.425 62.0034 216.561 63.6489 216.194V206.045H63.6453ZM26.4241 205.76V215.74C27.6941 216.179 29.3138 216.245 29.8734 217.044C30.9483 218.58 32.2257 218.4 33.1865 218.411C33.7866 217.785 34.1657 217.096 34.4787 217.121C35.2039 217.187 35.8959 217.601 36.5365 217.847C36.8236 217.576 37.2911 217.136 37.8028 216.652C36.1831 209.707 32.8 206.683 26.4277 205.756L26.4241 205.76ZM75.6241 216.234C74.0706 209.45 69.9365 206.672 64.4515 206.108V216.242C66.1706 216.502 67.7609 216.564 68.8395 218.243C69.1414 218.716 71.0446 218.807 71.6152 218.345C73.176 217.081 73.5368 216.938 73.3675 217.341C73.9602 217.048 74.5565 216.758 75.6204 216.234H75.6241ZM37.3206 145.843V153.023C37.6961 151.348 38.8667 151.506 40.0484 151.521C43.2253 151.561 46.4022 151.535 49.5792 151.532C50.8418 151.532 52.2775 151.165 52.8408 153.012V145.843H37.3169H37.3206ZM68.6481 159.433H64.4846V175.571H68.6481V159.433ZM63.6195 175.626V159.448H59.4818V175.626H63.6195ZM21.4728 159.173V175.197H25.6473V159.173H21.4728ZM84.5107 146.294C84.2382 142.219 84.0137 138.407 83.6934 134.603C83.6529 134.123 83.2185 133.445 82.7952 133.261C80.3398 132.22 78.5433 133.481 78.6943 136.05C78.7311 136.655 78.7384 137.263 78.79 137.868C79.0256 140.742 79.2759 143.615 79.5189 146.521C81.2711 146.441 82.7805 146.371 84.5107 146.29V146.294ZM26.4498 159.137V175.244H30.4845V159.137H26.4498ZM8.70984 167.365C8.89758 164.304 9.07428 161.438 9.25098 158.539C6.92811 158.374 4.94391 158.235 2.83455 158.085C2.64312 161.119 2.4701 163.897 2.28604 166.848C4.42117 167.02 6.46795 167.181 8.71352 167.365H8.70984ZM86.6936 166.954C86.4801 163.828 86.285 161.013 86.0862 158.151C84.1499 158.283 82.497 158.316 80.8736 158.561C80.4613 158.623 79.8354 159.36 79.8428 159.778C79.8943 162.255 80.1005 164.729 80.2698 167.409C82.4565 167.255 84.4959 167.108 86.6899 166.954H86.6936ZM75.602 65.0803V53.7956C74.7332 53.7956 73.9712 53.671 73.2865 53.8396C72.8411 53.9496 72.1821 54.4883 72.1747 54.8475C72.0901 58.2303 72.1232 61.6132 72.1232 65.0767H75.602V65.0803ZM18.2701 65.1023V53.9056H14.9937V65.1023H18.2701ZM38.6495 104.01C38.0532 102.009 37.582 100.188 36.9414 98.4323C36.7721 97.9668 36.091 97.3951 35.6198 97.3731C33.1792 97.2668 30.7311 97.2851 28.2868 97.3621C27.8929 97.3731 27.3002 97.8239 27.1714 98.1941C26.5271 100.06 26.0081 101.969 25.4154 103.97H30.2857C28.434 101.991 28.2132 99.9899 29.5973 98.5899C30.779 97.3914 33.0761 97.2668 34.2541 98.4946C34.8026 99.0663 35.3695 99.9973 35.2922 100.697C35.167 101.848 34.5302 102.948 34.1289 104.01H38.6495ZM40.9209 6.17198H49.6823C49.4393 3.63576 47.6355 1.99016 45.2169 2.03414C42.8793 2.07445 41.116 3.74205 40.9209 6.17198ZM40.8362 6.94164C41.3221 9.82603 42.7615 10.7826 46.0488 10.6067C48.2944 10.4857 49.5424 9.24695 49.6823 6.94164H40.8399H40.8362ZM63.4318 144.308C63.4318 144.209 63.4318 144.11 63.4318 144.011H26.5235C26.5235 144.11 26.5235 144.209 26.5235 144.308H63.4281H63.4318ZM47.7422 100.957C47.7349 99.5941 46.3802 98.2014 45.0475 98.1867C43.6671 98.1721 42.3529 99.4622 42.3161 100.87C42.2756 102.358 43.575 103.824 44.9702 103.864C46.2955 103.904 47.7496 102.38 47.7422 100.954V100.957ZM34.6701 101.016C34.6811 99.5281 33.5178 98.2637 32.1006 98.2197C30.6833 98.1757 29.4206 99.3925 29.3691 100.851C29.3175 102.383 30.5323 103.816 31.9386 103.879C33.3154 103.937 34.659 102.533 34.6701 101.02V101.016ZM20.5156 145.781C20.3721 145.678 20.2322 145.576 20.0886 145.477C19.7904 145.851 19.2346 146.221 19.2272 146.602C19.1683 151.051 19.1683 155.504 19.2272 159.957C19.2309 160.364 19.7389 160.76 20.0113 161.163C20.1806 161.072 20.3463 160.98 20.5156 160.888V145.785V145.781ZM69.9329 145.759C69.7598 145.917 69.5868 146.071 69.4101 146.228C69.4101 150.85 69.3917 155.471 69.4433 160.093C69.4469 160.478 69.9108 160.859 70.1611 161.24C70.3893 160.892 70.8127 160.544 70.8164 160.192C70.8605 155.75 70.8642 151.304 70.8016 146.862C70.798 146.492 70.2347 146.129 69.9329 145.763V145.759ZM32.6859 145.825C32.5497 145.744 32.4135 145.667 32.2773 145.587C31.9864 145.953 31.4453 146.312 31.4416 146.683C31.3643 151.117 31.3459 155.556 31.3901 159.99C31.3938 160.383 31.9349 160.767 32.2294 161.152C32.3803 161.057 32.5349 160.958 32.6859 160.863V145.821V145.825ZM30.86 146.69C30.709 146.518 30.5581 146.345 30.4072 146.17C29.9617 146.569 29.1445 146.958 29.1298 147.368C29.0267 150.875 29.0709 154.39 29.0709 158.004H30.86V146.69ZM22.8275 157.938V146.576C21.5169 146.173 21.0273 146.51 21.0568 147.804C21.123 150.784 21.1194 153.767 21.0568 156.747C21.031 158.063 21.5722 158.334 22.8238 157.938H22.8275ZM18.6419 160.786V145.744C16.7387 146.983 16.746 159.573 18.6419 160.786ZM67.0099 146.789C67.0099 150.447 66.9989 153.906 67.0136 157.366C67.021 158.836 67.9376 158.356 68.7401 158.257V146.789H67.0063H67.0099ZM59.1578 146.895V158.25C60.5346 158.587 61.0132 158.264 60.9874 157.058C60.9211 154.086 60.9248 151.11 60.9874 148.138C61.0132 146.892 60.5898 146.455 59.1578 146.895ZM71.4238 160.991C72.4373 160.434 72.8815 156.158 72.7564 148.163C72.7453 147.43 72.2521 146.701 71.9833 145.972C71.7956 146.034 71.6078 146.096 71.4201 146.155V160.991H71.4238ZM52.2444 21.3123C47.5729 19.5018 42.986 19.4468 38.4102 21.0411C42.6695 21.3856 46.9287 21.5762 51.1879 21.7228C51.5339 21.7338 51.891 21.4552 52.2444 21.3123ZM39.8202 22.1259C40.1809 23.7642 41.0018 23.8192 42.1136 23.7532C44.234 23.6249 46.3728 23.5993 48.4858 23.7606C49.697 23.8522 50.4774 23.6763 50.9192 22.1259H39.8202ZM56.4963 160.995V145.942C54.8765 147.456 54.9722 159.983 56.4963 160.995ZM58.5799 153.529C58.5799 153.529 58.5504 153.529 58.532 153.529C58.532 151.403 58.5651 149.274 58.5025 147.148C58.4915 146.756 58.0866 146.375 57.862 145.986C57.6706 146.36 57.3172 146.73 57.3172 147.108C57.2767 151.422 57.273 155.739 57.3172 160.053C57.3209 160.445 57.7626 160.833 58.0019 161.222C58.1933 160.844 58.543 160.471 58.5541 160.089C58.6056 157.905 58.5799 155.717 58.5799 153.529ZM67.5732 143.428C67.5805 143.358 67.5879 143.289 67.5989 143.219H22.4998V143.428H67.5732ZM33.562 145.829V160.76C35.1045 159.587 35.1413 147.159 33.562 145.829ZM49.4651 84.9779H41.2374V86.6491H49.4651V84.9779ZM79.1139 149.593C81.3227 149.413 83.3142 149.248 85.3905 149.08C85.3389 148.299 85.2911 147.595 85.2322 146.69C83.0345 146.881 80.9619 147.057 78.7973 147.243C78.9188 148.138 79.0145 148.841 79.1176 149.593H79.1139ZM3.58553 149.017C5.86791 149.19 7.85579 149.343 9.93202 149.501C9.97619 148.684 10.0167 147.932 10.0609 147.133C7.8521 146.961 5.86054 146.807 3.75854 146.642C3.69228 147.548 3.64074 148.251 3.58553 149.017ZM17.254 135.695C17.4087 135.688 17.5633 135.677 17.7179 135.669C18.4689 125.572 19.2198 115.475 19.9671 105.378C19.8088 105.367 19.6505 105.356 19.4922 105.345C18.745 115.46 18.0013 125.579 17.254 135.695ZM70.5329 105.198C70.382 105.18 70.2347 105.161 70.0838 105.143C70.8237 115.332 71.5637 125.524 72.2999 135.713C72.4656 135.702 72.6275 135.688 72.7932 135.677C72.0385 125.517 71.2839 115.357 70.5292 105.198H70.5329ZM63.5348 145.239C63.5459 145.169 63.5569 145.103 63.568 145.033H26.5419C26.5419 145.103 26.5419 145.169 26.5419 145.239H63.5312H63.5348ZM49.8295 88.8922C49.9473 88.6979 50.0651 88.5073 50.1866 88.3131C49.7485 88.0382 49.3178 87.5471 48.8687 87.5288C46.5016 87.4481 44.1272 87.4408 41.7639 87.5361C41.3221 87.5544 40.9061 88.1445 40.4754 88.4743C40.5748 88.6136 40.6742 88.7529 40.7736 88.8922H49.8295ZM22.4188 218.338H29.358C28.2389 216.084 24.2521 215.97 22.4188 218.338ZM3.47877 176.754C3.55976 178.605 3.6297 180.174 3.69964 181.728C5.15742 181.809 5.72066 180.478 5.79796 176.934C5.10957 176.879 4.40645 176.828 3.47509 176.754H3.47877ZM85.3279 176.773C84.4996 176.912 83.8223 177.026 83.1743 177.132C83.2811 180.907 83.7523 181.915 85.3279 181.695V176.773ZM67.3854 218.529C65.9571 216.388 61.8967 216.425 60.6855 218.529H67.3854ZM69.1672 87.1623C69.0236 87.1732 68.88 87.1842 68.7365 87.1952C69.1561 92.7478 69.5758 98.3003 69.9918 103.857C70.1427 103.846 70.2936 103.835 70.4446 103.824C70.0175 98.271 69.5905 92.7185 69.1635 87.1659L69.1672 87.1623ZM21.2335 86.9277L20.7991 86.8984C20.4236 92.5316 20.0481 98.1647 19.6726 103.798C19.7978 103.805 19.9266 103.816 20.0518 103.824C20.4457 98.1904 20.8396 92.5572 21.2335 86.924V86.9277ZM16.4699 158.272C16.562 158.272 16.6503 158.272 16.7423 158.272V148.369C16.6503 148.372 16.562 148.376 16.4699 148.38V158.275V158.272ZM3.74382 172.664C6.37224 173.569 6.85448 173.232 6.40905 170.703C5.56972 170.663 4.69727 170.619 3.74382 170.571V172.664ZM61.5212 151.63C63.6158 150.406 62.6513 148.501 62.7912 146.906C62.8059 146.749 62.0734 146.525 61.5212 146.254V151.634V151.63ZM85.2101 173.02V170.546C84.183 170.689 83.3142 170.806 82.335 170.942C82.3902 171.715 82.4344 172.349 82.4823 173.02H85.2101ZM27.175 146.371C27.5652 148.039 26.2474 150.087 28.5592 151.356C28.9752 146.554 28.9163 146.32 27.175 146.371ZM66.4762 151.51V146.078C65.8614 146.521 65.1877 146.815 65.2098 147.024C65.3902 148.537 64.3447 150.425 66.4762 151.51ZM45.6218 17.9991L46.0488 17.6106C45.8758 15.5142 45.7028 13.4178 45.5298 11.325C45.3678 11.325 45.2058 11.3287 45.0402 11.3324C44.8782 13.2895 44.6794 15.243 44.6058 17.2038C44.5984 17.4567 45.2647 17.7352 45.6181 18.0028L45.6218 17.9991ZM26.1332 176.021C26.4093 176.736 26.5345 177.616 26.8032 177.66C27.7493 177.817 28.758 177.784 29.7004 177.601C29.9286 177.557 29.9912 176.655 30.1642 176.021H26.1332ZM26.1001 202.498C27.5027 202.498 28.4377 202.63 29.2991 202.428C29.6231 202.351 29.763 201.508 29.9875 201.013C28.9236 200.922 27.8561 200.746 26.7995 200.808C26.575 200.823 26.4057 201.721 26.1001 202.498ZM25.6841 176.036H22.1722V177.638H25.6841V176.036ZM67.9671 201.09H64.3484C64.3926 201.717 64.4294 202.219 64.4625 202.663H68.0665C68.026 202.051 68.0002 201.592 67.9671 201.09ZM60.0303 202.707H63.7263C63.6784 202.095 63.6379 201.596 63.5937 201.09H60.0303V202.707ZM25.9749 202.432C25.6841 201.717 25.5516 200.87 25.2792 200.823C24.3478 200.662 23.3539 200.691 22.4225 200.859C22.2127 200.896 22.1612 201.798 22.0029 202.432H25.9749ZM63.6269 176.26H60.0524V177.861H63.6269V176.26ZM68.2432 177.876C67.9781 177.169 67.8603 176.296 67.5953 176.249C66.6602 176.08 65.6552 176.102 64.7202 176.274C64.4993 176.315 64.4478 177.238 64.2858 177.876H68.2432ZM30.1384 178.697C30.0869 178.583 30.0354 178.466 29.9838 178.352H26.4241V181.376C27.834 180.361 28.9862 179.529 30.1384 178.697ZM23.5195 151.301C25.5663 150.216 24.4656 148.446 24.7233 147.056C24.7712 146.807 24.3699 146.477 24.1748 146.188C23.9576 146.466 23.5637 146.734 23.549 147.024C23.4827 148.402 23.5195 149.783 23.5195 151.304V151.301ZM61.5212 158.627C62.1249 158.242 62.7839 158.03 62.8023 157.777C62.8869 156.549 63.2182 155.131 61.5212 154.577V158.631V158.627ZM66.5719 154.614C64.6834 155.263 65.184 156.67 65.2135 157.854C65.2172 158.037 65.7362 158.367 65.9755 158.334C66.2001 158.305 66.524 157.894 66.5424 157.63C66.6124 156.67 66.5682 155.706 66.5682 154.61L66.5719 154.614ZM27.5579 157.975C29.5458 157.271 28.2389 155.563 28.8132 154.148C26.7554 155.046 27.2192 156.512 27.5579 157.975ZM28.7801 204.495C29.8403 204.957 30.6612 205.312 31.5189 205.686V202.399C30.4845 203.19 29.7298 203.77 28.7801 204.495ZM25.4412 150.113C27.51 150.135 26.6118 148.695 26.7038 147.903C26.748 147.515 26.1921 147.06 25.9087 146.635C25.7504 146.73 25.5958 146.826 25.4375 146.921V150.113H25.4412ZM65.0589 148.779C64.6539 148.116 64.33 147.588 64.0097 147.06C63.7741 147.632 63.3544 148.2 63.3508 148.772C63.3508 149.343 63.7668 149.915 64.0023 150.491C64.3263 149.97 64.6466 149.45 65.0589 148.783V148.779ZM58.543 205.936C59.456 205.547 60.2511 205.214 61.2635 204.785C60.3064 204.037 59.5554 203.451 58.543 202.663V205.936ZM53.8089 146.28C53.7169 146.287 53.6212 146.294 53.5292 146.305V152.745C53.6212 152.745 53.7169 152.737 53.8089 152.737V146.283V146.28ZM69.4101 202.655C68.3978 203.495 67.6542 204.107 66.7854 204.825C67.8051 205.225 68.6039 205.536 69.4101 205.851V202.655ZM20.4604 205.782C21.4912 205.316 22.2974 204.95 23.2839 204.506C22.382 203.799 21.6237 203.205 20.6077 202.41C20.5488 203.696 20.512 204.576 20.4567 205.782H20.4604ZM3.39042 168.776C3.86162 170.014 6.16609 170.755 6.78822 170.055C6.9097 169.915 6.63729 169.12 6.46059 169.087C5.53291 168.908 4.5721 168.878 3.39042 168.779V168.776ZM9.94306 150.403C9.76268 150.381 9.58598 150.355 9.4056 150.333C9.2473 152.811 9.09269 155.288 8.93439 157.766C9.06692 157.78 9.19945 157.795 9.32829 157.81C9.53444 155.34 9.73691 152.873 9.94306 150.403ZM65.1583 157.014C64.6355 156.413 64.2858 156.01 63.9324 155.607C63.7226 156.076 63.3397 156.549 63.3471 157.011C63.3545 157.473 63.7557 157.927 63.9876 158.385C64.3116 158.008 64.6355 157.627 65.1583 157.014ZM85.5451 149.967C85.3721 149.959 85.2027 149.948 85.0297 149.941C85.2395 152.433 85.4457 154.929 85.6555 157.421C85.8028 157.41 85.9537 157.396 86.101 157.385C85.9169 154.911 85.7291 152.44 85.5451 149.967ZM79.563 150.469C79.39 150.483 79.2133 150.494 79.0403 150.509C79.2354 152.976 79.4305 155.442 79.6293 157.909C79.7581 157.898 79.887 157.887 80.0158 157.872C79.8649 155.405 79.714 152.935 79.563 150.469ZM15.1263 99.88C14.9827 99.869 14.8355 99.858 14.6919 99.847C14.4968 102.306 14.3017 104.765 14.1066 107.225C14.2612 107.236 14.4158 107.25 14.5741 107.261C14.7581 104.802 14.9422 102.339 15.13 99.88H15.1263ZM2.88241 157.275C3.03702 157.264 3.19163 157.253 3.34624 157.238C3.53031 154.786 3.71437 152.334 3.89843 149.886C3.74382 149.875 3.58921 149.864 3.43459 149.853C3.25053 152.327 3.06647 154.801 2.88241 157.275ZM24.3294 154.324C24.0644 154.335 23.7956 154.346 23.5306 154.357C23.5306 155.391 23.5011 156.424 23.5527 157.454C23.5637 157.67 23.8435 158.011 24.0423 158.044C24.2374 158.077 24.6828 157.777 24.6755 157.641C24.6055 156.534 24.4546 155.431 24.3294 154.324ZM73.511 148.621C73.4411 148.621 73.3712 148.621 73.2975 148.621V158.469C73.3675 158.469 73.4374 158.469 73.511 158.469V148.621ZM54.4679 158.44C54.5452 158.44 54.6225 158.447 54.7035 158.447V148.698C54.6262 148.698 54.5489 148.698 54.4679 148.698V158.436V158.44ZM85.6113 169.593C85.5451 169.366 85.4751 169.138 85.4089 168.911C84.2714 168.992 83.1339 169.069 81.9963 169.149C81.9706 169.406 81.9411 169.659 81.9154 169.915C82.6295 170.022 83.351 170.242 84.0578 170.201C84.5843 170.172 85.0923 169.809 85.6077 169.593H85.6113ZM26.1112 155.222C25.8976 155.329 25.6841 155.431 25.4706 155.537V158.008C25.651 158.088 25.8314 158.169 26.0118 158.25C26.2621 157.784 26.7075 157.319 26.7112 156.85C26.7149 156.311 26.3283 155.765 26.1112 155.222ZM18.8039 100.254C18.6272 100.235 18.4541 100.217 18.2774 100.195C18.1559 102.548 18.0308 104.897 17.9093 107.25C18.0234 107.258 18.1375 107.261 18.248 107.269C18.432 104.93 18.6161 102.592 18.8039 100.254ZM7.1858 176.798C6.99069 176.747 6.79558 176.696 6.60048 176.644C6.28389 178.382 5.96362 180.123 5.64703 181.86C5.84214 181.896 6.03724 181.929 6.23603 181.966C6.55262 180.244 6.86921 178.521 7.18948 176.798H7.1858ZM35.6088 148.577L35.3953 148.64V158.129C35.4652 158.129 35.5389 158.129 35.6088 158.129V148.577ZM74.3982 107.283C74.5418 107.272 74.6817 107.265 74.8252 107.254C74.6449 104.791 74.4608 102.332 74.2804 99.869C74.1405 99.88 74.0006 99.8873 73.8571 99.8983C74.0375 102.361 74.2178 104.82 74.3982 107.283ZM82.7031 182.061C82.9167 182.028 83.1302 181.999 83.34 181.966C83.0013 180.222 82.6663 178.477 82.3277 176.732C82.1583 176.769 81.9853 176.802 81.816 176.839C82.1105 178.58 82.4086 180.32 82.7031 182.061ZM70.5182 179.456C70.4703 179.456 70.4225 179.456 70.3746 179.456V188.024C70.4225 188.024 70.4703 188.024 70.5182 188.024V179.456ZM19.5953 187.687C19.6726 187.687 19.7536 187.684 19.8309 187.68C19.8309 185.151 19.8309 182.626 19.8309 180.097C19.8309 179.76 19.7831 179.426 19.7573 179.089C19.5143 181.618 19.5107 184.139 19.518 186.665C19.518 187.006 19.5732 187.343 19.599 187.684L19.5953 187.687Z" fill="#F1F1F1" fill-opacity="0.5"/>
<path d="M182.83 78.6921C180.79 79.8063 181.214 81.6682 181.556 83.3687C181.674 83.9552 182.417 84.6405 183.028 84.8568C184.681 85.4432 186.482 85.6447 188.109 86.2825C193.487 88.3862 196.377 92.7146 197.86 97.985C199.362 103.325 199.292 108.859 198.817 114.324C198.291 120.375 194.223 124.065 189.298 126.921C187.689 127.851 185.874 128.427 183.783 129.325C184.052 129.636 184.339 130.098 184.744 130.406C186.555 131.799 188.359 133.217 190.262 134.482C190.892 134.899 191.812 135.006 192.603 135.028C195.132 135.094 195.261 135.05 195.328 137.476C195.438 141.354 195.357 145.235 195.357 149.175C194.378 149.292 193.671 149.376 192.751 149.49C192.751 151.949 192.751 154.368 192.751 156.787C192.751 160.02 192.707 163.252 192.769 166.485C192.795 167.742 192.611 168.435 191.101 168.684C189.64 168.929 188.278 169.758 186.548 170.461C186.574 170.249 186.426 170.582 186.526 170.806C188.576 175.482 188.105 180.32 187.575 185.191C187.306 187.665 187.361 190.172 187.203 192.661C187.133 193.753 186.978 194.779 185.561 195.186C185.116 195.314 184.751 196.425 184.711 197.103C184.6 199.049 184.641 201.006 184.689 202.956C184.795 207.431 184.946 211.902 185.072 216.373C185.094 217.143 185.072 217.916 185.072 218.807H157.764C157.123 217.048 157.952 215.611 158.931 214.317C161.489 210.946 165.311 209.978 169.213 209.395C171.683 209.025 174.205 209.01 176.918 208.82C176.918 207.739 176.918 206.599 176.918 205.459C176.921 202.714 176.94 199.969 176.929 197.224C176.925 196.014 176.851 194.929 175.092 194.999C174.635 195.017 173.903 194.215 173.726 193.654C173.402 192.624 173.343 191.499 173.277 190.41C173.027 186.426 172.824 182.439 172.592 178.451C172.581 178.279 172.474 178.114 172.456 178.066C169.861 177.627 167.357 177.135 164.832 176.802C162.785 176.531 163.319 175.094 163.363 173.896C163.407 172.679 163.621 171.543 165.314 171.671C167.508 171.832 169.713 171.872 171.904 172.078C173.627 172.239 173.998 171.905 173.8 170.348C171.992 169.666 170.317 169.091 168.701 168.383C168.314 168.215 167.965 167.639 167.873 167.192C166.47 160.599 167.07 153.91 167.048 147.258C167.041 145.246 167.795 143.241 167.858 141.218C168.031 135.676 171.359 132.583 175.949 130.373C176.387 130.164 176.848 130.003 177.282 129.79C177.352 129.757 177.352 129.574 177.44 129.255C173.932 128.42 170.52 127.313 168.09 124.417C168.856 124.89 169.607 125.385 170.391 125.828C172.412 126.968 174.352 128.332 176.59 128.438C176.218 123.75 175.876 119.235 175.464 114.723C175.434 114.404 174.875 113.88 174.554 113.873C170.593 113.814 166.632 113.836 162.509 113.836C162.701 116.424 163.301 118.616 164.74 120.496C165.804 121.885 167.011 123.16 168.156 124.487C164.92 122.687 163.175 119.759 162.31 116.336C161.994 115.093 162.402 113.675 162.417 112.337C162.428 111.311 162.406 110.278 162.277 109.262C161.397 102.156 163.164 95.8226 167.711 90.248C170.464 86.8725 174.223 85.5971 178.32 84.8311C178.931 84.7175 179.59 83.7059 179.807 82.9839C180.098 82.0237 179.977 80.9425 180.039 79.7953C178.283 79 176.711 77.9078 177.348 75.5842C177.772 74.0302 178.935 73.0956 180.566 73.0553C182.171 73.015 183.426 73.7443 183.908 75.3606C184.31 76.713 184.284 78.0068 182.76 78.7508C183.025 78.179 183.286 77.6073 183.606 76.9183H177.525C178.166 77.6696 178.515 78.4722 178.986 78.5529C180.234 78.7654 181.538 78.6628 182.819 78.6885L182.83 78.6921ZM164.482 96.9514C167.722 95.7603 170.144 97.2153 172.264 99.3007C175.986 102.969 175.983 104.919 171.974 108.291C169.463 110.402 166.842 112.7 163.025 111.388C162.977 112.095 162.932 112.722 162.885 113.393C166.665 113.393 170.339 113.426 174.013 113.375C175.246 113.356 176.38 113.173 176.531 111.469C176.722 109.321 178.519 107.738 180.544 107.661C182.535 107.584 184.461 109.123 184.917 111.157C185.333 113.015 184.269 115.086 182.259 115.808C181.243 116.175 181.177 116.728 181.184 117.575C181.21 120.624 181.203 123.673 181.184 126.723C181.18 127.371 181.081 128.02 181.03 128.665C180.606 125.345 180.606 122.057 180.606 118.773C180.606 116.233 178.986 114.859 176.229 115.181C176.119 120.089 176.325 124.949 178.243 129.669H182.848C183.511 129.142 184 128.46 184.626 128.295C188.926 127.162 192.335 124.718 195.225 121.452C197.153 119.272 198.228 116.684 198.239 113.822C198.258 109.38 198.376 104.89 197.801 100.507C197.242 96.2331 195.777 92.1722 191.76 89.5627C186.776 86.3191 181.453 85.905 175.769 87.0081C170.048 88.1186 166.227 91.2156 164.482 96.9478V96.9514ZM178.132 154.445C178.132 153.408 178.048 152.55 178.151 151.718C178.364 149.992 177.923 148.918 176.17 148.024C173.512 146.668 172.276 143.083 173.015 140.28C173.888 136.981 176.818 134.405 179.852 134.269C183.382 134.111 186.36 136.453 187.424 140.232C188.285 143.281 186.673 146.825 183.754 148.46C183.246 148.746 182.568 149.259 182.52 149.724C182.366 151.271 182.462 152.84 182.462 154.383H189.022C189.073 154.079 189.132 153.903 189.132 153.727C189.139 149.765 189.195 145.803 189.128 141.841C189.055 137.381 185.694 133.624 181.681 133.191C176.023 132.579 172.077 136.014 171.602 140.324C171.101 144.894 171.44 149.56 171.421 154.181C171.421 154.262 171.591 154.346 171.698 154.441H178.125L178.132 154.445ZM158.522 218.759C159.675 218.397 160.775 217.861 161.913 217.748C163.061 217.631 164.254 217.927 165.852 218.081C166.772 217.286 169.886 217.282 171.363 218.459C173.038 217.044 174.727 217.458 176.642 218.62V212.071C176.329 211.997 176.211 211.946 176.093 211.946C174.013 211.939 171.937 211.983 169.861 211.909C169.169 211.884 168.153 211.774 167.869 211.33C167.181 210.253 166.467 210.425 165.565 210.806C164.335 211.323 163.039 211.715 161.872 212.346C159.365 213.698 157.963 216.238 158.522 218.767V218.759ZM170.269 155.534C170.269 151.451 170.295 147.613 170.232 143.78C170.225 143.344 169.735 142.915 169.47 142.482C169.268 142.911 168.896 143.34 168.892 143.772C168.848 147.98 168.863 152.187 168.863 156.395C168.863 158.572 168.863 160.753 168.863 163.117C171.841 163.117 174.643 163.161 177.437 163.047C177.694 163.036 178.261 161.728 178.088 161.522C176.483 159.638 176.605 157.7 177.834 155.534H170.269ZM180.938 182.659C181.044 181.783 181.022 181.075 181.273 180.474C181.342 180.302 182.565 180.317 182.627 180.482C182.863 181.116 182.848 181.845 182.933 182.6H184.114C184.114 181.841 184.011 181.171 184.177 180.57C184.229 180.383 185.366 180.258 185.396 180.335C185.672 181.057 185.815 181.83 186.01 182.637C186.099 182.512 186.441 182.263 186.43 182.025C186.305 179.17 186.183 176.311 185.915 173.467C185.867 172.95 185.252 172.243 184.737 172.052C181.836 170.971 178.872 170.952 175.975 172.067C175.46 172.265 174.841 172.932 174.786 173.441C174.514 175.834 174.422 178.246 174.286 180.357C175.239 180.46 176.156 180.298 176.561 180.68C176.899 180.998 176.63 181.951 176.63 182.644H177.735C177.886 181.797 177.937 181.072 178.191 180.427C178.247 180.287 179.369 180.317 179.417 180.46C179.638 181.119 179.649 181.849 179.748 182.655H180.949L180.938 182.659ZM191.598 142.688C191.381 142.57 191.16 142.449 190.943 142.332C190.711 142.871 190.288 143.406 190.281 143.945C190.222 147.76 190.251 151.575 190.251 155.563H182.649C184.888 158.224 182.811 160.514 182.351 163.029H191.602V142.688H191.598ZM166.297 108.342C167.449 107.943 168.867 107.837 169.688 107.085C171.086 105.81 171.591 104.04 170.832 102.09C170.096 100.202 168.44 100.726 167.078 100.642C162.925 100.386 162.925 100.426 162.656 104.63C162.436 108.093 162.667 108.317 166.297 108.342ZM191.057 141.863C191.23 141.727 191.403 141.588 191.576 141.452C191.676 135.867 186.758 130.919 180.857 130.67C174.44 130.399 169.434 134.932 169.172 141.639C169.658 141.412 170.196 141.068 170.251 140.653C170.969 135.46 175.059 131.813 180.179 131.711C185.046 131.615 189.894 135.585 190.251 140.668C190.281 141.082 190.774 141.463 191.054 141.863H191.057ZM178.14 164.055H168.948V167.826H178.14V164.055ZM182.561 164.04V167.797H191.54V164.04H182.561ZM180.257 135.343C176.991 135.357 174.69 137.626 174.683 140.837C174.676 144.128 177.032 146.448 180.363 146.426C183.584 146.404 185.856 144.08 185.837 140.826C185.819 137.582 183.529 135.332 180.257 135.347V135.343ZM178.902 161.654V169.666H181.817V161.654H178.902ZM177.473 198.125V206.141C180.422 206.69 180.533 206.599 180.367 203.887C180.334 203.344 180.29 202.783 180.389 202.256C180.831 199.917 179.999 198.484 177.473 198.125ZM183.798 206.273V198.001C182.815 198.462 181.917 198.884 181.059 199.287V206.273H183.798ZM178.872 147.639V154.962H181.659V147.639H178.872ZM177.389 215.659V218.4H183.422C183.367 217.649 183.323 217.04 183.301 216.714C181.122 216.326 179.244 215.989 177.389 215.659ZM174.845 190.363C174.164 193.471 174.823 194.061 178.169 193.379C178.25 192.441 178.335 191.458 178.427 190.363H174.845ZM186.084 190.491H182.381C182.476 191.598 182.561 192.54 182.649 193.533H185.668C185.812 192.496 185.94 191.554 186.084 190.491ZM183.588 76.0716C183.095 74.2098 181.95 73.4438 180.349 73.6307C179.067 73.781 178.018 74.4553 178.007 76.0716H183.588ZM192.909 139.272C192.478 143.871 192.898 145.271 194.521 144.909V139.272H192.909ZM163.764 175.035C165.13 175.299 166.338 175.53 167.656 175.783C167.733 174.705 167.792 173.892 167.854 173.031H164.129C164.007 173.69 163.912 174.222 163.764 175.035ZM183.577 195.963H177.831L177.61 196.608C178.633 197.07 179.616 197.77 180.684 197.931C181.965 198.125 182.962 197.355 183.577 195.963ZM177.595 210.861H183.562C182.06 208.021 179.443 207.991 177.595 210.861ZM163.455 99.2567C163.558 99.4473 163.661 99.6379 163.764 99.8285C165.623 99.9421 167.483 100.056 169.5 100.177C168.513 98.7546 167.357 97.7357 165.708 97.9337C164.917 98.0289 164.203 98.795 163.455 99.2567ZM183.467 212.294H177.974C177.889 212.496 177.805 212.697 177.72 212.895C178.648 213.335 179.539 213.98 180.518 214.167C181.788 214.409 182.889 213.889 183.47 212.294H183.467ZM171.09 108.101C175.051 105.231 175.346 103.145 172.143 100.283C174.131 103.215 173.354 105.762 171.09 108.101ZM191.315 135.709C192.228 138.055 192.78 138.425 194.485 138.044V135.709H191.315ZM176.538 211.29C176.527 211.004 176.513 210.722 176.502 210.436C173.951 210.557 171.399 210.674 168.848 210.792C168.852 210.957 168.856 211.121 168.863 211.29H176.538ZM167.994 108.841H162.973C163.996 111.066 164.836 111.066 167.994 108.841ZM178.478 186.401H174.69L174.436 186.972C174.944 187.229 175.508 187.764 175.949 187.68C176.822 187.515 178.434 188.567 178.482 186.401H178.478ZM183.051 111.755C181.512 112.367 180.286 112.85 178.817 113.437C181.203 114.679 182.303 114.236 183.051 111.755ZM194.573 145.73C193.774 146.199 193.064 146.378 192.872 146.792C192.633 147.317 192.813 148.035 192.813 148.823C193.538 148.772 194.039 148.735 194.573 148.695V145.73ZM178.32 112.044C179.863 111.505 181.118 111.066 182.498 110.585C180.426 109.083 179.336 109.438 178.32 112.044ZM173.645 143.028C173.866 145.645 175.898 147.969 178.364 148.013C177.275 147.225 176.251 146.683 175.504 145.884C174.746 145.07 174.26 144.003 173.641 143.028H173.645ZM181.589 186.456C181.585 186.679 181.578 186.899 181.574 187.123H186.018C186.018 186.899 186.018 186.679 186.021 186.456H181.585H181.589ZM179.579 192.686C179.506 193.346 179.436 193.929 179.362 194.57H181.324C181.313 193.383 181.604 192.1 179.579 192.686ZM178.357 156.959H182.484C180.658 155.336 179.815 155.35 178.357 156.959ZM182.532 148.072C184.799 147.573 186.474 145.7 186.603 144.022C185.425 145.191 183.978 146.631 182.532 148.072ZM182.34 159.649H178.412C179.929 161.101 180.636 161.104 182.34 159.649Z" fill="#F1F1F1" fill-opacity="0.5"/>
<path d="M163.098 59.6303C162.572 57.6035 163.801 57.2664 165.075 57.1381C167.136 56.9292 169.213 56.8632 171.278 56.6946C173.148 56.5443 173.656 55.9176 173.568 54.1987C170.612 53.5647 167.641 53.1468 164.828 52.2452C162.653 51.5489 160.654 50.2844 158.622 49.1886C157.4 48.5325 156.733 47.4843 157.009 46.0147C157.031 45.8974 157.031 45.7654 157.009 45.6482C156.222 41.8695 158.257 39.8904 161.486 38.6589C161.766 38.5526 162.016 38.3694 162.182 38.2741C161.942 35.9321 161.515 33.6671 161.541 31.4058C161.567 29.1884 162.056 26.9784 162.358 24.6327C161.276 23.9547 160.002 23.1374 158.71 22.3458C157.606 21.6714 157.411 20.6708 157.212 19.4394C156.56 15.4408 158.526 13.1758 161.994 11.9993C165.263 10.8888 168.642 10.0935 171.963 9.12958C172.629 8.93534 173.255 8.60915 173.899 8.34526C173.181 7.63058 172.555 6.46143 171.727 6.29283C169.713 5.88601 167.6 5.95198 165.531 5.80905C164.987 5.7724 164.324 5.82371 163.941 5.53783C163.485 5.19332 163.267 4.52994 162.947 4.00584C163.371 3.75662 163.768 3.3388 164.217 3.28383C166.702 2.97963 169.198 2.77072 171.687 2.50684C172.029 2.47019 172.64 2.34191 172.651 2.20997C172.846 0.25283 174.389 0.802587 175.46 0.784262C179.425 0.725621 183.389 0.809917 187.35 0.787927C188.436 0.780597 188.823 1.16176 188.889 2.27227C189.036 4.65822 188.709 6.93422 187.663 9.07827C187.49 9.43378 186.931 9.58038 186.618 9.89191C186.235 10.2731 185.918 10.7275 185.576 11.1527C185.683 11.314 185.793 11.4789 185.9 11.6401C187.965 11.6401 190.03 11.6988 192.092 11.6182C193.443 11.5668 194.054 12.036 193.888 13.403C193.59 15.8916 194.422 17.7828 196.101 19.8022C202.285 27.2386 201.748 37.8159 195.037 44.7062C193.756 46.022 193.899 47.422 193.888 48.9174C193.87 51.274 193.804 51.3363 191.396 51.307C189.566 51.285 187.737 51.3033 185.609 51.3033C185.823 51.9007 185.874 52.4468 186.169 52.773C186.574 53.2201 187.391 53.3924 187.63 53.8762C188.79 56.2401 189.224 58.769 188.734 61.3712C188.676 61.6864 187.932 62.0786 187.501 62.0859C183.106 62.1335 178.707 62.1189 174.311 62.0969C173.899 62.0969 173.196 62.0163 173.126 61.8074C172.334 59.4141 170.203 60.3817 168.664 60.0775C166.882 59.7293 165.027 59.7623 163.102 59.6193L163.098 59.6303ZM199.775 32.454C199.723 27.3595 198.545 23.2547 195.548 20.0221C193.432 17.7388 190.917 15.6864 188.237 14.1104C186.699 13.2051 184.479 13.3627 182.554 13.2051C178.563 12.8789 174.981 13.7695 171.878 16.544C167.63 20.341 164.865 25.0835 162.723 30.2183C162.329 31.1602 162.472 32.6262 162.947 33.5645C164.53 36.6981 166.22 39.8024 168.167 42.7198C170.181 45.7361 172.835 48.4116 176.332 49.4745C179.815 50.5337 183.492 50.1195 187.155 49.4598C188.591 49.1996 189.265 48.32 190.262 47.7556C196.461 44.2444 199.443 38.7725 199.771 32.4503L199.775 32.454ZM176.759 10.7679C170.207 9.16623 164.593 10.8668 159.325 14.158C157.948 15.0193 157.532 16.1848 158.025 17.911H164.088C164.088 18.0393 164.092 18.1676 164.096 18.2995C162.045 18.3948 159.999 18.4938 157.978 18.5854C157.716 21.3489 159.038 22.7379 162.844 23.8704C164.306 21.7154 165.178 19.1608 167.262 17.4199C167.446 17.266 167.435 16.8518 167.46 16.555C167.564 15.4078 167.725 14.257 167.714 13.1098C167.703 12.003 168.127 11.5852 169.231 11.6108C171.307 11.6585 173.391 11.6695 175.464 11.5815C175.905 11.5632 176.329 11.0537 176.759 10.7715V10.7679ZM157.602 45.0837C157.23 46.6194 157.444 47.8728 158.813 48.6352C160.621 49.6431 162.399 50.8012 164.339 51.4499C167.98 52.6631 171.723 53.6673 175.633 52.7107C175.997 52.6227 176.292 52.2379 176.616 51.9924C176.244 51.7834 175.876 51.4133 175.497 51.3986C173.66 51.3363 171.819 51.3253 169.986 51.3913C168.598 51.4426 167.589 51.3216 167.652 49.5001C167.689 48.4373 167.383 47.3341 167.074 46.3005C166.934 45.8351 166.415 45.146 166.047 45.135C163.249 45.0361 160.448 45.0801 157.602 45.0801V45.0837ZM187.096 57.7795V53.8102H174.403V57.7795H187.096ZM174.359 9.15524H187.085V5.24463H174.359V9.15524ZM165.745 44.4387C164.641 42.5035 163.61 40.6967 162.575 38.8935C158.139 40.583 157.204 41.6203 157.676 44.4387H165.745ZM177.264 12.6664C179.366 12.6664 181.243 12.6041 183.109 12.6847C184.946 12.7653 185.156 12.5857 184.851 10.5919H177.359C177.326 11.2883 177.297 11.8784 177.26 12.67L177.264 12.6664ZM185.499 52.7583C184.924 51.7688 184.611 50.6876 184.225 50.6583C181.954 50.4933 179.664 50.5776 177.264 50.5776C177.311 51.4353 177.348 52.073 177.385 52.7583H185.499ZM177.124 59.7733C176.13 59.5387 175.132 59.3078 174.076 59.0586C174.212 60.5759 174.263 60.5942 177.124 59.7733ZM187.542 3.86657C187.472 2.40055 186.673 2.2063 184.067 3.08958C185.44 3.39744 186.47 3.62834 187.542 3.86657ZM184.424 59.7623C187.037 60.6895 187.523 60.5392 187.527 58.9999C186.47 59.2601 185.447 59.5094 184.424 59.7623Z" fill="#F1F1F1" fill-opacity="0.5"/>
<path d="M285.183 66.3191C286.752 67.3747 288.445 68.5145 290.639 69.9915C289.597 70.0868 288.868 70.38 288.357 70.1638C283.457 68.082 280.033 61.5802 281.049 56.4602C281.705 53.1506 285.423 50.1196 289.601 49.8191C297.254 49.2693 304.245 51.2814 310.474 55.7418C312.745 57.3691 313.301 59.4618 311.777 61.7745C310.562 63.618 309.027 65.4652 307.205 66.6563C304.44 68.4632 301.322 69.757 298.289 71.1204C297.829 71.3256 297.008 70.7319 296.352 70.5046C296.794 70.1638 297.188 69.713 297.681 69.5004C298.764 69.0276 299.897 68.6758 300.637 68.4082C295.682 67.7375 290.481 67.0375 285.183 66.3191ZM295.594 55.9947C295.557 56.1926 295.524 56.3905 295.487 56.5848C292.185 56.0643 288.857 55.6575 285.588 54.9758C283.873 54.6166 282.794 55.0125 282.78 56.7131C282.761 58.8498 282.975 61.0195 283.398 63.1159C283.538 63.8123 284.528 64.5746 285.301 64.8751C290.319 66.8469 295.52 67.4846 300.928 67.1841C304.186 67.0045 305.754 65.062 306.925 62.6065C308.213 59.898 306.27 57.0906 303.321 57.0209C301.756 56.9843 300.196 56.8413 298.631 56.7497C298.642 56.5811 298.653 56.4125 298.664 56.2476H303.49C298.557 52.0218 288.324 50.2882 284.952 54.2135C288.574 54.8182 292.082 55.4083 295.594 55.9947ZM306.082 54.2905C308.644 56.2952 311.6 58.0765 310.411 62.3133C313.139 58.9597 311.166 56.2183 306.082 54.2905ZM308.659 63.1342C310.51 60.5504 309.848 58.1168 306.873 56.5188C308.847 58.3513 309.686 60.4917 308.659 63.1342Z" fill="#F1F1F1" fill-opacity="0.5"/>
<path d="M325.39 54.6531C327.29 55.672 327.507 58.0469 325.964 58.9888C325.585 59.2197 324.878 59.2197 324.477 59.0182C324.219 58.8899 324.061 58.1495 324.172 57.772C324.47 56.7495 324.937 55.7746 325.39 54.6494V54.6531Z" fill="#F1F1F1" fill-opacity="0.5"/>
<path d="M300.744 136.805C300.229 137.538 299.526 139.026 298.366 139.943C297.898 140.313 296.341 139.613 295.443 139.114C289.259 135.687 283.107 132.191 276.959 128.695C275.373 127.793 273.746 126.917 272.303 125.817C270.046 124.102 269.288 121.412 269.328 118.876C269.424 112.741 269.961 106.609 270.374 100.477C270.477 98.949 271.209 98.6082 272.568 99.3815C280.939 104.161 289.303 108.955 297.663 113.752C298.808 114.412 299.673 115.24 299.739 116.717C300.034 123.16 300.376 129.603 300.74 136.802L300.744 136.805ZM297.118 136.505C297.026 134.709 297.052 133.225 296.835 131.777C296.735 131.113 296.316 130.252 295.774 129.933C288.401 125.627 280.983 121.397 273.477 117.095C273.16 117.842 272.833 118.484 272.612 119.162C271.964 121.152 272.406 122.31 274.191 123.369C275.608 124.209 277.04 125.026 278.472 125.843C284.55 129.321 290.628 132.796 297.118 136.505ZM273.437 110.49C272.962 111.586 272.582 112.612 272.078 113.573C271.57 114.529 271.957 114.954 272.789 115.427C279.098 119.015 285.382 122.647 291.677 126.254C293.293 127.181 294.931 128.068 296.75 129.079C296.654 127.379 296.651 125.975 296.459 124.601C296.389 124.102 295.977 123.479 295.539 123.226C288.217 118.968 280.865 114.76 273.437 110.49ZM296.397 122.369C296.301 121.024 296.113 120.045 296.187 119.088C296.301 117.615 295.708 116.765 294.405 116.083C291.92 114.782 289.524 113.316 287.09 111.92C282.702 109.402 278.31 106.888 273.797 104.3C273.219 105.729 272.682 107.056 272.13 108.42C280.214 113.07 288.18 117.648 296.397 122.372V122.369Z" fill="#F1F1F1" fill-opacity="0.5"/>
<path d="M335.499 155.688C335.558 157.876 334.608 159.389 333.165 160.445C332.399 161.006 330.901 161.493 330.279 161.119C329.414 160.595 328.505 159.166 328.619 158.246C328.803 156.721 329.613 155.178 330.496 153.862C331.159 152.877 332.333 152.323 333.717 152.913C335.109 153.503 335.569 154.552 335.499 155.691V155.688Z" fill="#F1F1F1" fill-opacity="0.5"/>
<path d="M70.6029 47.9757C70.312 53.6602 65.7362 59.0808 59.3198 59.1614C53.1795 59.2347 47.9337 54.0303 47.9558 47.9244C47.9778 41.7817 53.1647 36.603 59.2793 36.6104C65.6184 36.6177 70.3783 42.3682 70.6065 47.9757H70.6029ZM59.7689 54.089C60.9064 54.0303 62.7397 53.9534 64.573 53.8398C67.356 53.6712 67.9634 53.4659 68.4199 50.7355C68.7733 48.6061 68.3904 46.3191 68.0775 44.1384C68.0002 43.6069 66.9216 42.8483 66.2847 42.8299C61.9593 42.7127 57.6227 42.6687 53.2973 42.797C50.5952 42.8776 50.2381 43.2661 49.7485 45.7473C49.2773 48.1369 49.4283 50.5119 50.8271 52.5973C51.1916 53.1397 51.9978 53.6345 52.6494 53.7005C54.7771 53.9277 56.927 53.9497 59.7726 54.0817L59.7689 54.089ZM66.9106 42.053C64.7497 39.3188 61.9703 38.146 58.5872 38.3329C55.587 38.4942 53.2126 39.7953 51.5192 42.053H66.9106ZM66.259 54.3162H52.1818C55.4618 58.6373 63.0489 58.6446 66.259 54.3162Z" fill="#F1F1F1" fill-opacity="0.5"/>
<path d="M42.6768 47.9645C42.6658 54.1291 37.4494 59.2675 31.3164 59.1612C25.1614 59.0549 20.1659 54.0338 20.1622 47.9535C20.1622 41.8952 25.2902 36.6395 31.2281 36.6211C37.5194 36.6028 42.6915 41.7302 42.6805 47.9681L42.6768 47.9645ZM37.8764 39.6558C37.8286 39.6082 37.7844 39.5569 37.7366 39.5092C33.0687 35.8551 26.1737 36.8447 22.6913 41.6679C19.1425 46.5864 20.2874 53.2458 25.2571 56.5957C29.3065 59.3225 34.3351 59.1942 37.5488 56.2805C38.2078 55.5731 38.8667 54.8694 39.5257 54.1621C39.7686 54.0155 40.0889 53.9202 40.2472 53.7113C43.4131 49.4745 42.2719 42.7601 37.8801 39.6595L37.8764 39.6558Z" fill="#F1F1F1" fill-opacity="0.5"/>
<path d="M44.9187 108.914C50.3707 108.914 55.8189 108.962 61.2709 108.885C62.9937 108.859 63.6048 109.42 63.6895 111.179C64.0281 118.055 64.7165 124.92 64.827 131.795C64.8564 133.624 63.4686 135.603 62.3421 137.249C61.9151 137.876 60.3874 137.938 59.3566 137.942C49.4356 137.989 39.5146 137.942 29.5936 138C27.9886 138.011 27.1751 137.52 26.3247 136.08C24.9111 133.679 24.5724 131.348 24.8779 128.618C25.5185 122.871 25.8829 117.088 26.24 111.311C26.3541 109.45 27.0388 108.83 28.9347 108.87C34.2615 108.991 39.5883 108.911 44.9187 108.911V108.914ZM62.2022 135.768C63.3692 134.46 64.4441 133.177 64.2895 131.202C63.7815 124.824 63.3361 118.44 62.9274 112.055C62.7728 109.6 62.8464 109.574 60.4573 109.571C50.0982 109.56 39.7392 109.607 29.3801 109.527C27.5321 109.512 26.9652 110.186 26.8548 111.909C26.4535 118.172 26.0044 124.432 25.4301 130.681C25.2019 133.177 26.7443 134.881 27.7346 136.838C27.8782 137.121 28.5887 137.223 29.0378 137.227C39.5183 137.249 50.0025 137.231 60.4831 137.26C61.6353 137.26 62.1985 136.827 62.2611 135.706L62.1985 135.768H62.2022Z" fill="#F1F1F1" fill-opacity="0.5"/>
<path d="M185.149 114.265C185.848 115.152 186.577 115.684 186.507 116.08C186.415 116.615 185.778 117.289 185.245 117.428C184.921 117.516 184.015 116.736 183.989 116.303C183.956 115.779 184.567 115.215 185.149 114.262V114.265Z" fill="#F1F1F1" fill-opacity="0.5"/>
<path d="M189.412 111.491C188.477 112.198 187.969 112.873 187.442 112.891C187.001 112.906 186.147 112.114 186.18 111.74C186.224 111.198 186.842 110.392 187.336 110.293C187.799 110.201 188.418 110.879 189.408 111.491H189.412Z" fill="#F1F1F1" fill-opacity="0.5"/>
<path d="M185.296 108.94C184.652 108.035 184 107.511 183.993 106.979C183.989 106.547 184.851 105.689 185.164 105.759C185.712 105.88 186.401 106.503 186.529 107.034C186.625 107.43 185.929 108.017 185.296 108.94Z" fill="#F1F1F1" fill-opacity="0.5"/>
<path d="M183.227 174.889C183.227 176.436 182.009 177.605 180.389 177.601C178.777 177.601 177.536 176.443 177.499 174.911C177.466 173.441 178.762 172.1 180.264 172.049C181.865 171.994 183.224 173.295 183.224 174.889H183.227Z" fill="#F1F1F1" fill-opacity="0.5"/>
<path d="M177.481 137.161C180.036 135.717 182.292 136.006 183.842 137.802C185.436 139.653 185.399 141.812 183.599 144.099C181.578 141.808 179.587 139.547 177.485 137.161H177.481ZM183.371 142.941C184.357 141.006 184.192 139.43 182.896 138.158C181.758 137.044 180.326 136.794 178.622 137.586C180.223 139.389 181.7 141.057 183.367 142.941H183.371Z" fill="#F1F1F1" fill-opacity="0.5"/>
<path d="M177.01 137.645C179.016 139.921 181.007 142.182 183.006 144.451C180.816 146.056 178.574 145.876 176.851 144.073C175.04 142.178 175.059 139.921 177.01 137.645ZM177.201 138.711C176.156 140.533 176.314 142.109 177.521 143.406C178.622 144.586 180.091 144.923 181.95 144.128C180.315 142.262 178.813 140.551 177.197 138.711H177.201Z" fill="#F1F1F1" fill-opacity="0.5"/>
<path d="M181.276 38.2813C177.794 37.6435 174.348 37.0205 170.91 36.3754C169.658 36.1409 169.058 35.4738 169.18 34.0774C169.32 32.5051 169.327 30.8998 169.18 29.3312C169.047 27.9238 169.739 27.4767 170.888 27.0112C173.715 25.8604 176.597 25.4206 179.645 25.5379C183.654 25.6918 187.696 25.208 191.536 26.9966C192.725 27.55 193.255 28.0741 193.159 29.3862C193.045 30.8998 193.005 32.4465 193.167 33.9528C193.336 35.5288 192.611 36.1922 191.23 36.4487C187.969 37.0535 184.703 37.6509 181.276 38.2849V38.2813ZM184.733 36.4084C185.127 36.4341 185.421 36.4707 185.72 36.4707C188.271 36.4964 188.576 36.1995 188.576 33.7183C188.576 32.135 188.484 30.5443 188.602 28.972C188.709 27.5866 188.028 27.0919 186.828 27.0112C186.121 26.9636 185.407 27.0039 184.729 27.0039V36.4084H184.733ZM177.65 36.478V27.0662C177.223 27.0332 176.811 26.9782 176.399 26.9746C174.164 26.9636 173.914 27.2201 173.91 29.4778C173.91 31.1234 174.009 32.78 173.881 34.4146C173.766 35.899 174.517 36.3791 175.78 36.4671C176.376 36.511 176.98 36.4744 177.65 36.4744V36.478ZM181.133 34.7078C182.73 34.7371 184.195 33.3591 184.262 31.7575C184.328 30.1375 182.771 28.5432 181.14 28.5652C179.605 28.5872 178.074 30.1375 178.085 31.6548C178.096 33.2381 179.535 34.6785 181.136 34.7078H181.133ZM172.854 27.9385C171.105 28.0118 170.291 28.7155 170.549 30.4527C170.674 31.281 170.659 32.1533 170.549 32.9853C170.321 34.7481 171.226 35.3162 172.85 35.3712V27.9421L172.854 27.9385ZM189.511 35.3712C191.146 35.3126 192.059 34.7078 191.805 32.9303C191.694 32.157 191.702 31.347 191.805 30.5737C192.037 28.8364 191.356 27.9458 189.511 27.9385V35.3712ZM183.507 35.045H178.777C178.813 35.3785 178.869 35.8843 178.928 36.4047H183.507V35.045ZM183.522 27.0589H178.854V28.261H183.522V27.0589Z" fill="#F1F1F1" fill-opacity="0.5"/>
<path d="M39.5257 54.1619C38.8667 54.8693 38.2078 55.573 37.5488 56.2803C35.4763 56.8961 33.4258 57.9296 31.3275 58.0396C27.2192 58.2558 23.2582 55.2138 21.8225 51.3215C20.3794 47.4072 21.5832 43.0715 24.9331 40.1174C27.7604 37.6216 32.4245 37.1268 36.0837 38.9116C36.6064 39.1682 37.1844 39.3111 37.7366 39.5091C37.7844 39.5567 37.8286 39.608 37.8765 39.6557C38.6348 40.8285 39.3895 42.005 40.1478 43.1778C34.7621 42.1406 29.347 42.0123 23.9282 42.8296C23.4386 42.9029 22.8164 43.4087 22.6213 43.8668C21.3844 46.7549 21.3844 49.6869 22.9269 52.454C23.2803 53.0881 24.2926 53.7111 25.0215 53.7331C29.1151 53.8541 33.216 53.8614 37.3059 53.7404C38.263 53.7111 39.2017 53.0294 40.1478 52.6446C39.9416 53.1504 39.7318 53.6561 39.5257 54.1619ZM23.9098 42.0599H38.9956C35.3217 37.0278 27.6352 36.9399 23.9098 42.0599ZM24.5208 54.3232C27.9223 59.37 36.9377 57.7647 38.263 54.3232H24.5208Z" fill="#F1F1F1" fill-opacity="0.5"/>
<path d="M40.0779 52.7179C41.381 49.5183 41.3516 46.3187 40.0779 43.1191C42.1394 45.7763 42.1394 50.0168 40.0779 52.7179Z" fill="#F1F1F1" fill-opacity="0.5"/>
<path d="M62.1617 132.7C62.0218 130.769 61.8819 128.841 61.7347 126.814H27.9923C28.1763 128.991 26.7848 131.179 28.261 133.29C28.607 133.785 29.347 134.298 29.9102 134.302C39.8349 134.364 49.7632 134.375 59.6879 134.287C60.4021 134.28 61.1089 133.455 61.8194 133.008C61.6095 134.705 60.7923 135.478 58.9332 135.46C49.627 135.387 40.3171 135.427 31.0109 135.427C28.7064 135.427 27.0572 133.851 27.1861 131.484C27.4069 127.412 27.7788 123.351 28.1027 119.286C28.2757 117.102 28.5076 114.925 28.6549 112.74C28.7285 111.681 29.1997 111.23 30.271 111.23C40.0668 111.245 49.8663 111.245 59.6621 111.23C60.9984 111.23 61.3077 112.062 61.3702 113.125C61.639 117.56 61.8893 121.998 62.1543 126.433C62.228 127.646 62.3715 128.859 62.3863 130.076C62.3973 130.948 62.2427 131.821 62.1617 132.693V132.7ZM61.3003 119.382H28.585C28.423 121.474 28.2647 123.512 28.099 125.671H61.6427C61.5285 123.563 61.4218 121.577 61.304 119.382H61.3003ZM29.1519 111.945C28.9936 114.133 28.85 116.153 28.7064 118.132H61.1678C61.0537 116.523 60.8622 115.068 60.8733 113.613C60.888 112.048 60.1517 111.766 58.7308 111.773C49.5387 111.832 40.3429 111.799 31.1508 111.81C30.4955 111.81 29.8439 111.898 29.1519 111.945Z" fill="#F1F1F1" fill-opacity="0.5"/>
</svg>
