<svg width="259" height="647" viewBox="0 0 259 647" fill="none" xmlns="http://www.w3.org/2000/svg">
<path d="M176.676 258.568C178.338 249.551 178.533 249.4 187.588 249.4C190.661 249.4 193.734 249.367 196.807 249.4C202.833 249.475 204.45 251.049 204.885 256.994C205.656 267.584 206.459 278.162 207.284 289.251C210.151 289.088 212.746 288.936 215.884 288.752C215.666 285.28 215.634 282.253 215.243 279.269C214.733 275.33 215.97 272.954 220.205 272.618C225.97 272.162 231.725 271.425 237.49 271.305C239.054 271.273 241.573 272.748 242.051 274.094C243.755 278.846 245.351 283.782 245.916 288.773C246.98 298.267 247.794 307.847 247.729 317.384C247.697 322.234 245.525 327.062 244.353 331.912C244.038 333.236 243.538 334.603 243.625 335.916C244.157 344.378 244.83 352.83 245.482 361.684C253.169 362.02 252.995 368.226 252.268 373.011C251.529 377.872 252.898 382.146 253.332 386.671C253.951 393.072 253.571 393.756 247.349 395.264C248.12 405.614 248.25 416.128 249.923 426.381C250.802 431.784 254.841 436.59 256.622 441.95C258.869 448.677 260.194 455.502 257.49 462.782C256.101 466.525 256.709 471.038 256.567 475.205C256.35 481.639 256.209 488.083 256.111 494.528C256.025 500.463 256.046 506.409 256.014 512.343C255.959 519.721 256.035 527.11 255.786 534.477C255.612 539.88 253.647 541.117 246.567 541.681C241.888 542.05 239.445 540.054 238.761 535.529C236.969 523.801 234.841 512.126 233.386 500.354C230.976 480.977 228.739 461.567 226.991 442.124C226.535 437.035 228.674 431.762 228.674 426.576C228.674 419.198 227.805 411.81 227.252 404.432C227.078 402.099 226.709 399.788 226.426 397.477C221.356 395.502 218.663 388.851 220.27 382.895C220.672 381.409 220.563 379.542 220.031 378.078C217.512 371.145 219.011 365.709 224.711 363.083C223.973 354.241 223.669 345.203 222.322 336.317C221.443 330.534 219.043 324.99 217.176 318.816H209.423C209.858 325.662 210.238 332.227 210.694 338.78C212.062 358.57 213.538 378.349 214.743 398.15C214.885 400.472 213.929 403.054 212.865 405.213C211.204 408.587 208.837 411.603 207.089 414.945C204.168 420.544 201.356 426.012 193.451 424.536C192.909 424.439 192.159 425.383 191.519 425.849C191.649 426.468 191.769 427.075 191.899 427.694C194.809 427.238 197.947 427.292 200.596 426.196C205.46 424.178 211.823 426.316 214.678 430.786C217.642 435.44 218.272 440.29 218.023 445.574C217.805 450.077 217.979 454.601 217.979 459.115C217.99 470.952 214.591 475.259 202.995 477.505C202.995 484.763 203.017 492.141 202.995 499.508C202.974 506.767 202.909 514.014 202.865 522.162C206.629 524.448 208.508 528.68 208.5 534.857C208.5 540.097 208.5 545.327 208.5 550.567C208.5 554.017 208.891 557.5 204.309 558.846C203.538 559.073 203.082 561.547 203.061 562.99C202.941 571.117 203.061 579.243 202.963 587.37C202.93 589.615 202.409 591.851 202.073 594.411C207.881 594.216 208.869 598.1 208.37 602.993C207.947 607.149 209.119 610.404 212.007 613.713C219.032 621.731 222.626 631.571 225.254 641.781C226.253 645.676 224.852 647.022 220.965 647C198.001 646.913 175.037 646.924 152.073 646.978C148.142 646.989 147.241 645.785 148.023 641.727C149.977 631.582 153.853 622.338 160.455 614.537C163.788 610.599 165.145 606.693 164.635 601.821C164.157 597.254 165.895 594.465 170.563 594.541V559.486C164.754 558.064 163.853 554.245 164.125 549.417C164.429 544.025 164.309 538.6 164.157 533.197C164.016 527.685 163.441 522.076 170.607 522.423V476.626C163.43 477.733 158.956 475.237 157.252 469.248C155.819 464.236 155.059 459.039 153.864 453.288C151.291 452.442 146.34 454.362 145.026 448.894C144.928 448.503 142.681 448.525 141.443 448.514C134.939 448.482 128.425 448.428 121.921 448.525C118.967 448.569 115.602 447.288 114.136 451.997C113.767 453.18 109.315 453.093 106.742 453.603C104.136 467.859 98.7938 475.422 90.7156 476.29V521.24C99.0001 522 96.5353 529.258 96.6548 535.204C96.7525 540.075 96.6439 544.947 96.6874 549.819C96.7199 553.323 96.9479 556.719 92.3986 558.032C91.6277 558.26 91.1391 560.69 91.1173 562.122C90.9979 570.064 91.1173 578.017 91.0413 585.959C91.0196 588.389 90.5962 590.809 90.3247 593.608C95.7645 593.391 97.0674 596.874 96.4268 601.702C95.7862 606.498 97.4148 610.176 100.661 613.865C107.719 621.894 111.182 631.788 113.202 642.128C113.408 643.202 111.628 645.633 110.498 645.828C107.513 646.327 104.385 645.926 101.313 645.926C81.606 645.947 61.8992 645.958 42.1924 646.013C35.124 646.034 34.9612 645.785 36.4704 639.123C38.8156 628.74 43.3868 619.593 50.1185 611.293C51.9861 608.993 52.1707 605.011 52.3552 601.756C52.7135 595.496 53.1696 594.628 58.3704 593.576C58.099 589.507 57.6864 585.558 57.5995 581.608C57.4692 575.836 57.5235 570.053 57.5995 564.27C57.643 561.037 57.9795 558.01 54.049 556.252C52.8764 555.732 52.2901 552.856 52.2358 551.045C52.0187 544.556 52.2684 538.047 52.1055 531.548C51.9752 526.264 51.9101 521.273 58.0664 521.75C57.9035 508.937 57.7407 496.666 57.5887 484.394C57.5561 481.736 57.5887 479.078 57.5887 476.55C46.6332 474.619 43.365 470.615 43.3433 459.7C43.3325 453.559 42.833 447.364 43.517 441.299C44.0165 436.862 45.5583 432.359 47.5561 428.345C49.4888 424.439 56.3617 423.723 60.7157 425.567C63.2238 426.63 66.2206 426.533 70.3574 427.173C68.9676 425.231 68.7396 424.721 68.5984 424.742C59.7819 426.044 56.9372 419.589 52.985 413.654C47.5778 405.538 45.2217 397.542 46.3401 387.495C48.7505 365.817 49.7494 343.988 51.3129 322.223C51.378 321.333 51.3129 320.444 51.3129 318.946C48.1533 318.654 45.0046 318.144 41.8558 318.209C40.9329 318.23 39.4128 319.739 39.2282 320.758C37.3607 331.001 35.6452 341.264 34.0491 351.55C33.5822 354.566 33.5605 357.669 33.5062 360.729C33.4845 361.716 33.6799 362.986 34.2988 363.658C35.6343 365.123 38.5333 366.219 38.5985 367.575C38.7722 371.264 37.7842 375.007 37.3281 378.729C37.187 379.868 36.9373 381.148 37.2847 382.179C39.0219 387.311 37.1001 393.311 32.7245 396.544C31.921 397.13 31.389 398.508 31.3021 399.571C30.5203 408.555 28.1208 417.875 29.6843 426.457C31.0958 434.225 30.8352 441.538 30.3249 449.068C29.3694 463.107 28.8048 477.212 26.9373 491.143C24.9286 506.192 21.541 521.045 18.8917 536.018C17.9254 541.518 14.2446 541.464 9.96665 541.204C5.21097 540.922 1.98622 539.609 2.05137 533.978C2.19252 522.282 2.20337 510.586 2.00793 498.901C1.95365 495.244 0.683291 491.588 0.726722 487.942C0.781011 482.496 1.82335 477.038 1.80164 471.592C1.77992 468.185 0.0426849 464.8 0.0101117 461.393C-0.0550347 454.894 0.183835 448.352 1.0416 441.918C1.50848 438.402 3.06113 434.833 4.89609 431.751C11.6605 420.392 7.82768 407.502 10.933 395.101C3.09371 394.949 3.5063 389.654 4.83095 384.88C6.27502 379.694 5.16753 374.617 5.51498 369.506C5.80814 365.188 6.32931 361.261 12.3771 362.009C13.0394 352.548 13.9514 343.575 14.136 334.592C14.212 331.109 13.1914 327.344 11.693 324.154C8.10998 316.527 11.4759 308.932 11.161 301.348C11.009 297.768 11.3022 294.101 11.921 290.574C12.92 284.9 14.1252 279.226 15.8081 273.725C16.199 272.444 18.8591 271.077 20.4661 271.099C26.2315 271.175 32.0078 271.739 37.7624 272.271C41.1501 272.585 42.8873 274.289 42.4638 278.065C42.1055 281.244 42.3878 284.499 42.3878 288.318C46.0469 288.687 49.706 289.055 53.7885 289.479C54.6788 278.282 55.5908 267.725 56.3183 257.146C56.7635 250.701 57.9795 249.41 64.581 249.367C67.6538 249.345 70.7265 249.367 73.7993 249.367C82.6483 249.367 83.0283 249.703 83.8644 258.448H114.364C114.863 256.636 115.927 254.597 115.808 252.622C115.721 251.157 114.331 248.792 113.126 248.521C96.3725 244.669 82.9523 235.23 70.6831 223.794C63.4627 217.067 57.8167 209.234 54.2553 199.979C52.3987 195.14 49.7385 191.711 43.6691 192.829C39.174 193.653 37.6864 191.267 37.8167 186.862C38.0665 178.203 37.8927 169.524 37.8927 160.855C37.8927 155.697 40.4986 153.05 45.7103 152.913C46.5898 152.891 47.4693 152.804 49.1739 152.696C50.1185 142.963 50.694 133.318 52.0621 123.792C56.112 95.4631 69.2607 73.1126 96.0468 60.7548C103.875 57.1418 111.519 52.4004 120.922 52.5198C122.833 52.5415 125.786 48.2016 126.524 45.4132C127.654 41.1601 127.274 36.5056 127.545 31.71C122.616 29.4532 117.426 27.3484 115.775 21.1206C113.864 13.873 115.84 7.59094 121.964 2.9798C126.991 -0.80677 134.95 -1.01292 140.325 2.52411C146.112 6.32152 149.749 14.1659 147.143 20.4371C145.569 24.2345 141.454 26.9469 138.609 30.2561C137.404 31.6666 135.58 33.3917 135.656 34.8998C135.905 39.8256 136.568 44.8056 137.806 49.5687C138.186 51.0117 140.889 52.6066 142.67 52.8019C156.926 54.3426 169.032 60.8741 180.346 68.9897C201.182 83.9407 208.783 105.781 211.432 130.041C212.246 137.506 212.876 144.992 213.582 152.338C221.276 153.495 225.123 158.019 225.123 165.911C225.123 172.594 224.906 179.288 225.189 185.961C225.406 191.006 223.69 193.892 218.413 192.851C212.876 191.755 210.368 195.021 208.783 199.143C200.911 219.639 184.83 232.04 166.427 242.033C161.269 244.832 155.504 246.579 149.901 248.445C147.154 249.356 145.819 250.43 146.959 253.403C147.599 255.063 148.055 256.788 148.631 258.6H176.676V258.568ZM163.886 303.724C158.424 300.654 156.926 295.891 159.825 290.791C162.453 286.169 169.054 284.054 173.332 287.363C175.721 289.207 177.892 292.82 177.99 295.706C178.099 298.733 175.601 301.847 174.374 304.625H187.925C186.133 298.462 184.592 292.766 182.735 287.178C182.409 286.202 180.726 285.074 179.651 285.052C171.725 284.878 163.788 284.878 155.851 285.074C154.852 285.095 153.289 286.419 153.017 287.428C151.465 293.037 150.227 298.733 148.587 305.623C154.233 304.853 158.967 304.202 163.701 303.551C165.08 303.811 166.796 304.722 167.762 304.213C170.553 302.737 174.364 301.175 175.286 298.712C176.22 296.238 175.069 291.692 173.137 289.826C171.454 288.209 166.513 287.808 164.602 289.153C162.409 290.683 161.345 294.643 161.009 297.692C160.802 299.58 162.854 301.717 163.886 303.746V303.724ZM243.136 366.002C238.066 373.77 231.193 369.051 224.461 367.803C225.178 376.461 225.829 384.273 226.6 393.582C233.571 386.714 240.856 389.741 248.164 391.087C247.501 383.34 247.078 376.515 246.198 369.745C246.025 368.432 244.103 367.347 242.984 366.165C242.192 355.955 241.53 345.735 240.476 335.547C240.281 333.702 238.544 330.599 237.382 330.534C233.462 330.306 229.477 331.196 225.341 331.673C226.036 342.219 226.568 351.724 227.338 361.206C227.881 367.933 232.398 370.515 238.772 367.955C240.248 367.358 241.682 366.653 243.136 366.002ZM27.3933 391.51C24.7223 391.087 22.0296 390.219 19.402 390.37C16.7636 390.522 13.3977 390.457 13.148 394.678C12.4639 406.157 11.6713 417.636 10.8896 429.733H25.7972C26.6333 418.309 27.5127 406.851 28.2402 395.372C28.3271 394.049 27.5779 392.681 27.1979 391.314C28.5008 391.477 29.8037 391.64 31.4215 391.846C32.0404 383.622 32.6267 375.832 33.3325 366.49C25.4606 371.546 18.7614 370.472 11.7582 365.232C11.0307 374.41 10.3901 382.385 9.70607 390.935C16.0361 390.392 22.0405 385.955 27.3933 391.499V391.51ZM179.054 531.309C176.329 529.519 173.604 527.718 170.585 525.732V555.916C173.81 553.779 176.427 552.032 179.043 550.307C176.948 552.867 173.213 555.309 173.039 557.988C172.344 568.697 172.757 579.482 172.757 590.158H185.417V547.876C182.985 548.842 180.933 549.656 178.88 550.47C183.994 544.708 189.195 544.817 194.765 550.784C192.529 549.862 190.303 548.951 187.903 547.963V590.212H199.879V555.612C200.867 554.918 202.702 554.245 202.713 553.529C202.909 544.405 202.843 535.269 202.843 525.287C200.965 526.383 200.075 526.904 199.184 527.425C195.482 526.546 191.779 525.678 186.6 524.452C187.643 528.933 188.261 531.569 188.87 534.206C184.461 536.669 181.508 534.412 178.87 531.114C180.9 531.906 182.93 532.708 185.362 533.663V525.841H174.711C176.351 527.902 177.697 529.605 179.043 531.298L179.054 531.309ZM64.1033 528.01C62.2901 527.077 60.4768 526.133 57.8275 524.766C57.8275 534.651 57.7624 543.764 57.9578 552.867C57.9687 553.529 59.9122 554.137 60.9546 554.777V589.236H73.7015C73.7015 575.956 73.6581 563.034 73.7233 550.111C73.745 546.867 72.1489 547.052 69.9773 548.017C71.9426 547.193 74.4833 545.164 75.7536 545.782C79.3041 547.486 82.3226 550.285 85.5582 552.661C82.4637 550.795 79.3693 548.918 75.8079 546.759V589.203H87.784C87.9577 588.465 88.0989 588.118 88.0989 587.771C88.1315 578.928 88.3703 570.086 88.0337 561.254C87.9143 558.292 86.2965 555.384 85.3627 552.455C87.0674 553.215 88.7829 553.974 90.6179 554.788V524.387C87.6646 526.741 85.4822 528.444 83.3432 530.191C75.6125 536.506 70.3248 535.866 63.8862 527.794C66.9046 529.54 69.9231 531.287 73.4192 533.316V524.918H62.2683C63.0175 526.188 63.5496 527.088 64.0816 527.989L64.1033 528.01ZM31.0632 330.219C35.0806 331.001 34.3314 327.822 34.5051 325.804C35.3955 315.377 36.1555 304.939 36.9047 294.502C37.3607 288.133 37.7299 281.754 38.1642 275.103C31.541 274.701 25.8515 274.365 19.7386 273.996C18.4791 292.885 17.2739 310.972 16.1556 327.898C21.6496 328.809 26.4487 329.601 31.2695 330.415C27.8602 330.415 24.4183 330.089 21.0741 330.567C19.7278 330.751 17.6756 332.563 17.5453 333.8C16.5464 343.261 15.9275 352.765 15.2327 362.27C14.8309 367.814 19.2174 368.194 22.8005 368.389C26.199 368.573 30.162 368.519 30.4335 363.159C30.9004 354.013 31.7798 344.888 32.2684 335.742C32.3662 333.93 31.4975 332.064 31.0849 330.23L31.0632 330.219ZM105.298 60.0495C79.3476 69.4129 63.5387 87.2173 57.0241 113.582C51.7038 135.108 53.669 156.873 54.2011 178.616C54.2011 178.898 54.5811 179.169 54.8091 179.484H208.5C208.5 163.524 208.674 147.9 208.457 132.276C208.24 116.598 203.473 102.06 195.33 88.8339C186.383 74.3061 172.811 65.5938 157.556 60.1038C154.831 63.4781 152.301 66.0386 150.487 69.0223C148.728 71.9192 146.828 72.4183 143.484 72.223C135.091 71.7347 126.666 72.1036 118.24 72.0277C116.774 72.0168 114.711 72.0602 113.94 71.1814C110.9 67.7312 108.262 63.9229 105.319 60.0495H105.298ZM54.2228 181.306C54.1359 182.999 53.9622 184.236 54.0382 185.462C54.1359 187.079 54.3748 188.684 54.6571 190.279C57.1326 204.254 64.9719 214.886 75.3085 224.174C86.3508 234.091 98.4029 243.074 112.996 245.494C133.908 248.955 154.798 248.315 173.31 235.154C185.938 226.181 198.012 216.644 204.353 202.084C207.111 195.758 207.979 188.608 209.847 181.296H54.2228V181.306ZM202.735 307.674C195.916 307.305 189.478 306.665 183.05 306.675C168.446 306.719 153.842 307.25 139.239 307.283C128.425 307.305 117.621 306.643 106.807 306.665C92.2031 306.697 77.6103 307.272 63.0067 307.218C58.6527 307.196 57.5778 308.704 57.3281 312.751C55.5908 340.093 53.8862 367.434 51.4649 394.721C50.9872 400.103 52.4312 404.193 54.7982 408.316C56.34 411.018 58.4681 413.491 60.7483 415.618C62.3769 417.137 64.7005 418.851 66.72 418.862C109.347 419.046 151.975 419.025 194.602 418.938C196.654 418.938 199.847 418.602 200.574 417.321C204.179 410.974 209.89 405.408 209.369 397.271C208.251 379.824 207.165 362.378 205.884 344.932C204.982 332.574 203.799 320.238 202.713 307.652L202.735 307.674ZM183.354 252.882C183.223 253.848 182.952 254.575 183.061 255.237C184.092 261.15 181.421 262.278 175.873 262.235C144.776 261.953 113.68 262.115 82.5832 262.094C81.2151 262.094 79.8362 261.877 78.3378 261.757C78.1315 258.535 77.9469 255.736 77.7732 253.002H61.9535C60.6831 270.481 59.4453 287.526 58.2076 304.495C69.2716 306.545 69.5973 306.361 72.4963 296.954C73.2889 294.372 74.3747 291.833 74.7982 289.196C75.6885 283.663 78.6527 281.764 84.125 282.535C87.4909 283.012 90.9871 282.622 94.4181 282.622C102.996 282.622 108.602 286.734 111.237 294.958C113.423 301.764 117.925 305.211 124.744 305.297C124.983 305.297 125.232 304.95 125.471 304.755C119.597 298.527 118.924 293.558 123.311 288.795C126.492 285.334 133.093 284.705 136.6 287.992C138.327 289.62 140.401 292.321 140.162 294.285C139.717 298.028 137.73 301.587 136.438 305.091H146.351C147.816 298.907 149.402 292.831 150.639 286.69C151.237 283.706 152.409 282.415 155.645 282.491C163.777 282.697 171.921 282.741 180.053 282.47C183.278 282.361 184.505 283.663 185.232 286.484C186.579 291.714 188.044 296.911 189.727 302.043C190.129 303.279 191.508 304.939 192.605 305.07C195.884 305.471 199.239 305.211 202.67 305.211C201.497 287.254 200.39 270.22 199.26 252.882H183.397H183.354ZM241.779 328.766C240.563 310.853 239.325 292.658 238.055 273.974C231.616 274.528 225.96 275.005 219.564 275.547C220.987 294.198 222.376 312.317 223.723 329.905C230.161 329.503 235.786 329.145 241.79 328.766H241.779ZM73.4735 635.998V606.042C56.0034 608.331 45.1674 615.926 39.5757 638.342C41.2478 639.611 42.757 640.761 43.2239 641.119C45.3737 640.468 47.2195 639.286 48.7722 639.6C50.314 639.904 51.5409 641.716 53.7559 643.582C55.1565 643.398 59.3476 643.94 60.1402 642.562C63.1804 637.192 68.2727 637.17 73.4735 635.998ZM185.428 606.823C166.741 608.798 156.416 618.313 152.008 638.906C153.528 640.577 154.744 641.911 155.862 643.148C157.675 640.099 162.311 638.808 163.484 641.51C165.905 647.065 171.769 644.201 172.398 643.051C175.384 637.55 180.585 637.951 185.438 636.866V606.823H185.428ZM75.6451 605.977V635.521C79.391 636.823 84.1684 637.018 85.8188 639.383C88.9892 643.929 92.7569 643.398 95.5907 643.43C97.3605 641.575 98.4789 639.535 99.4018 639.611C101.541 639.806 103.582 641.033 105.471 641.759C106.318 640.957 107.697 639.655 109.206 638.222C104.429 617.662 94.4507 608.711 75.6559 605.966L75.6451 605.977ZM220.759 636.986C216.177 616.903 203.983 608.678 187.805 607.008V637.007C192.876 637.778 197.567 637.962 200.748 642.931C201.638 644.331 207.252 644.602 208.935 643.235C213.538 639.492 214.602 639.069 214.103 640.262C215.851 639.394 217.61 638.537 220.748 636.986H220.759ZM107.784 428.605V449.86C108.891 444.901 112.344 445.368 115.83 445.411C125.2 445.531 134.57 445.455 143.94 445.444C147.664 445.444 151.899 444.359 153.56 449.827V428.605H107.773H107.784ZM200.183 468.836H187.903V516.607H200.183V468.836ZM185.352 516.77V468.879H173.148V516.77H185.352ZM61.0414 468.066V515.501H73.3541V468.066H61.0414ZM246.969 429.94C246.166 417.875 245.503 406.591 244.559 395.329C244.439 393.907 243.158 391.9 241.91 391.358C234.667 388.276 229.369 392.009 229.814 399.614C229.923 401.405 229.944 403.206 230.096 404.996C230.791 413.502 231.53 422.008 232.246 430.612C237.414 430.374 241.866 430.167 246.969 429.929V429.94ZM75.7211 467.957V515.642H87.6212V467.957H75.7211ZM23.3977 492.315C23.9514 483.255 24.4726 474.771 24.9938 466.189C18.1425 465.7 12.2902 465.288 6.06873 464.843C5.50412 473.827 4.99381 482.051 4.45092 490.785C10.7484 491.295 16.7853 491.772 23.4085 492.315H23.3977ZM253.408 491.1C252.778 481.845 252.203 473.512 251.616 465.039C245.905 465.429 241.03 465.527 236.242 466.254C235.026 466.438 233.18 468.619 233.202 469.856C233.354 477.19 233.962 484.514 234.461 492.445C240.911 491.989 246.926 491.555 253.397 491.1H253.408ZM220.694 189.52V156.113C218.131 156.113 215.884 155.744 213.864 156.243C212.55 156.569 210.607 158.164 210.585 159.227C210.335 169.242 210.433 179.256 210.433 189.509H220.694V189.52ZM51.5952 189.585V156.439H41.9318V189.585H51.5952ZM111.704 304.766C109.945 298.842 108.555 293.45 106.666 288.253C106.166 286.875 104.157 285.182 102.768 285.117C95.569 284.802 88.3486 284.857 81.1391 285.084C79.9773 285.117 78.2292 286.451 77.8492 287.547C75.9491 293.07 74.4182 298.723 72.6701 304.647H87.0348C81.5734 298.788 80.9219 292.864 85.0044 288.719C88.4898 285.171 95.265 284.802 98.7395 288.437C100.357 290.13 102.029 292.885 101.801 294.958C101.432 298.364 99.5538 301.619 98.3703 304.766H111.704ZM118.403 15.1315H144.244C143.528 7.62349 138.207 2.75195 131.074 2.88215C124.179 3.0015 118.978 7.93814 118.403 15.1315ZM118.153 17.41C119.586 25.9487 123.832 28.7805 133.528 28.2597C140.151 27.9017 143.832 24.2345 144.244 17.41H118.164H118.153ZM184.798 424.059C184.798 423.766 184.798 423.473 184.798 423.18H75.9382C75.9382 423.473 75.9382 423.766 75.9382 424.059H184.787H184.798ZM138.522 295.728C138.5 291.692 134.505 287.569 130.574 287.526C126.503 287.482 122.626 291.301 122.518 295.468C122.398 299.873 126.231 304.213 130.346 304.332C134.255 304.451 138.544 299.938 138.522 295.717V295.728ZM99.9664 295.902C99.999 291.497 96.5679 287.753 92.3877 287.623C88.2075 287.493 84.4833 291.095 84.3313 295.413C84.1793 299.949 87.7623 304.191 91.91 304.375C95.9708 304.549 99.9338 300.393 99.9664 295.912V295.902ZM58.2184 428.421C57.795 428.117 57.3824 427.813 56.9589 427.52C56.0794 428.627 54.4399 429.723 54.4182 430.851C54.2445 444.023 54.2445 457.205 54.4182 470.387C54.4291 471.592 55.9274 472.764 56.7309 473.957C57.2304 473.686 57.719 473.415 58.2184 473.143V428.431V428.421ZM203.973 428.355C203.462 428.822 202.952 429.278 202.431 429.744C202.431 443.426 202.377 457.107 202.529 470.789C202.539 471.928 203.907 473.056 204.646 474.185C205.319 473.154 206.568 472.123 206.578 471.082C206.709 457.932 206.72 444.771 206.535 431.621C206.524 430.525 204.863 429.451 203.973 428.366V428.355ZM94.1141 428.551C93.7123 428.312 93.3106 428.084 92.9089 427.846C92.0511 428.931 90.455 429.994 90.4442 431.09C90.2162 444.218 90.1619 457.357 90.2922 470.485C90.303 471.646 91.8991 472.785 92.7677 473.924C93.2129 473.642 93.6689 473.349 94.1141 473.067V428.54V428.551ZM88.7286 431.111C88.2835 430.601 87.8383 430.091 87.3931 429.571C86.0794 430.753 83.6689 431.903 83.6255 433.119C83.3215 443.502 83.4518 453.907 83.4518 464.604H88.7286V431.111ZM65.0371 464.409V430.775C61.1717 429.581 59.7276 430.58 59.8145 434.41C60.0099 443.23 59.9991 452.062 59.8145 460.883C59.7385 464.778 61.3346 465.581 65.0262 464.409H65.0371ZM52.6918 472.839V428.312C47.0784 431.979 47.1001 469.248 52.6918 472.839ZM195.352 431.404C195.352 442.232 195.319 452.474 195.362 462.717C195.384 467.067 198.088 465.646 200.455 465.353V431.404H195.341H195.352ZM172.192 431.719V465.331C176.253 466.33 177.664 465.375 177.588 461.805C177.393 453.006 177.404 444.196 177.588 435.397C177.664 431.708 176.416 430.417 172.192 431.719ZM208.37 473.447C211.359 471.798 212.67 459.14 212.3 435.473C212.268 433.303 210.813 431.144 210.02 428.985C209.467 429.169 208.913 429.354 208.359 429.527V473.447H208.37ZM151.801 59.9519C138.023 54.5921 124.494 54.4294 110.998 59.149C123.56 60.1689 136.123 60.7331 148.685 61.1671C149.706 61.1996 150.759 60.375 151.801 59.9519ZM115.156 62.3605C116.22 67.2104 118.642 67.3731 121.921 67.1778C128.175 66.7981 134.483 66.7221 140.715 67.1995C144.288 67.4708 146.59 66.95 147.892 62.3605H115.156ZM164.342 473.458V428.898C159.564 433.379 159.847 470.463 164.342 473.458ZM170.487 451.357C170.487 451.357 170.401 451.357 170.346 451.357C170.346 445.064 170.444 438.76 170.259 432.468C170.227 431.307 169.032 430.178 168.37 429.028C167.805 430.135 166.763 431.231 166.763 432.348C166.644 445.118 166.633 457.899 166.763 470.67C166.774 471.83 168.077 472.981 168.783 474.131C169.347 473.013 170.379 471.906 170.411 470.778C170.563 464.312 170.487 457.834 170.487 451.357ZM197.013 421.455C197.035 421.249 197.056 421.043 197.089 420.837H64.0707V421.455H197.013ZM96.6982 428.562V472.764C101.248 469.292 101.356 432.5 96.6982 428.562ZM143.604 248.423H119.337V253.371H143.604V248.423ZM231.052 439.704C237.566 439.173 243.44 438.684 249.564 438.185C249.412 435.874 249.271 433.791 249.097 431.111C242.615 431.675 236.502 432.196 230.118 432.75C230.476 435.397 230.759 437.48 231.063 439.704H231.052ZM8.2837 438.001C15.0155 438.511 20.8787 438.967 27.0024 439.433C27.1327 437.014 27.2522 434.789 27.3825 432.424C20.8678 431.914 14.9938 431.458 8.79402 430.97C8.59858 433.65 8.44657 435.733 8.2837 438.001ZM48.5985 398.562C49.0545 398.54 49.5105 398.508 49.9665 398.486C52.1815 368.595 54.3965 338.704 56.6006 308.813C56.1337 308.78 55.6668 308.748 55.2 308.715C52.9958 338.66 50.8026 368.617 48.5985 398.562ZM205.742 308.281C205.297 308.227 204.863 308.173 204.418 308.118C206.6 338.281 208.783 368.454 210.954 398.616C211.443 398.584 211.92 398.54 212.409 398.508C210.183 368.432 207.957 338.357 205.732 308.281H205.742ZM185.102 426.815C185.134 426.609 185.167 426.413 185.2 426.207H75.9925C75.9925 426.413 75.9925 426.609 75.9925 426.815H185.091H185.102ZM144.679 260.011C145.026 259.436 145.373 258.871 145.732 258.296C144.44 257.483 143.169 256.029 141.845 255.974C134.863 255.736 127.86 255.714 120.889 255.996C119.586 256.05 118.359 257.797 117.089 258.774C117.382 259.186 117.675 259.598 117.969 260.011H144.679ZM63.8319 643.213H84.2987C80.9979 636.541 69.239 636.204 63.8319 643.213ZM7.96883 520.112C8.2077 525.591 8.414 530.235 8.62029 534.835C12.92 535.074 14.5812 531.135 14.8092 520.644C12.7788 520.481 10.705 520.329 7.95797 520.112H7.96883ZM249.38 520.166C246.937 520.578 244.939 520.915 243.028 521.229C243.343 532.405 244.733 535.388 249.38 534.737V520.166ZM196.459 643.777C192.246 637.441 180.27 637.55 176.698 643.777H196.459ZM201.714 254.89C201.291 254.922 200.867 254.955 200.444 254.987C201.682 271.425 202.919 287.862 204.146 304.31C204.592 304.278 205.037 304.245 205.482 304.213C204.222 287.775 202.963 271.338 201.703 254.9L201.714 254.89ZM60.3357 254.195L59.0545 254.108C57.947 270.784 56.8395 287.46 55.732 304.137C56.1012 304.158 56.4812 304.191 56.8503 304.213C58.0121 287.536 59.1739 270.86 60.3357 254.184V254.195ZM46.2858 465.397C46.5572 465.397 46.8178 465.397 47.0892 465.397V436.081C46.8178 436.091 46.5572 436.102 46.2858 436.113V465.407V465.397ZM8.75059 508.004C16.503 510.683 17.9254 509.685 16.6116 502.199C14.136 502.08 11.5627 501.949 8.75059 501.808V508.004ZM179.163 445.737C185.341 442.113 182.496 436.471 182.909 431.751C182.952 431.285 180.791 430.623 179.163 429.82V445.748V445.737ZM249.032 509.056V501.732C246.003 502.156 243.44 502.503 240.552 502.904C240.715 505.193 240.845 507.07 240.987 509.056H249.032ZM77.8601 430.167C79.011 435.104 75.1239 441.169 81.9426 444.923C83.1695 430.71 82.9958 430.015 77.8601 430.167ZM193.777 445.379V429.299C191.964 430.612 189.977 431.48 190.042 432.099C190.574 436.58 187.491 442.167 193.777 445.379ZM132.268 50.1437L133.528 48.9936C133.017 42.7876 132.507 36.5815 131.997 30.3863C131.519 30.3863 131.041 30.3971 130.553 30.408C130.075 36.2018 129.489 41.9847 129.271 47.7893C129.25 48.5379 131.215 49.3625 132.257 50.1545L132.268 50.1437ZM74.7873 517.942C75.6016 520.058 75.9708 522.662 76.7634 522.792C79.5539 523.258 82.5289 523.161 85.3085 522.618C85.9816 522.488 86.1662 519.819 86.6765 517.942H74.7873ZM74.6896 596.321C78.8264 596.321 81.5843 596.711 84.125 596.114C85.0804 595.887 85.493 593.391 86.1554 591.927C83.0175 591.655 79.8687 591.134 76.7526 591.319C76.0902 591.362 75.5908 594.02 74.6896 596.321ZM73.4627 517.985H63.1044V522.727H73.4627V517.985ZM198.175 592.154H187.501C187.632 594.01 187.74 595.496 187.838 596.809H198.468C198.348 594.997 198.272 593.641 198.175 592.154ZM174.765 596.939H185.666C185.525 595.127 185.406 593.652 185.276 592.154H174.765V596.939ZM74.3204 596.125C73.4627 594.01 73.0718 591.503 72.2683 591.362C69.5213 590.885 66.5897 590.972 63.8427 591.471C63.2238 591.579 63.0718 594.248 62.6049 596.125H74.3204ZM185.373 518.647H174.83V523.389H185.373V518.647ZM198.989 523.432C198.207 521.338 197.86 518.756 197.078 518.615C194.32 518.116 191.356 518.181 188.598 518.691C187.947 518.81 187.795 521.544 187.317 523.432H198.989ZM86.6005 525.862C86.4485 525.526 86.2965 525.179 86.1445 524.842H75.6451V533.793C79.8036 530.788 83.2021 528.325 86.6005 525.862ZM67.0783 444.76C73.1152 441.549 69.8688 436.308 70.6288 432.196C70.77 431.458 69.5865 430.482 69.011 429.625C68.3704 430.449 67.2086 431.241 67.1652 432.099C66.9697 436.178 67.0783 440.268 67.0783 444.771V444.76ZM179.163 466.449C180.943 465.31 182.887 464.68 182.941 463.932C183.191 460.297 184.168 456.098 179.163 454.46V466.46V466.449ZM194.059 454.568C188.489 456.489 189.966 460.655 190.053 464.16C190.064 464.702 191.595 465.679 192.301 465.581C192.963 465.494 193.918 464.279 193.973 463.498C194.179 460.655 194.049 457.802 194.049 454.558L194.059 454.568ZM78.9893 464.518C84.8524 462.435 80.9979 457.379 82.6917 453.191C76.6223 455.849 77.9903 460.189 78.9893 464.518ZM82.594 602.234C85.7211 603.601 88.1423 604.653 90.6722 605.76V596.028C87.6212 598.371 85.3953 600.086 82.594 602.234ZM72.7461 441.245C78.8481 441.31 76.1988 437.046 76.4703 434.703C76.6006 433.552 74.961 432.207 74.125 430.949C73.6581 431.231 73.2021 431.513 72.7352 431.795V441.245H72.7461ZM189.597 437.296C188.403 435.332 187.447 433.769 186.503 432.207C185.808 433.9 184.57 435.581 184.559 437.274C184.559 438.967 185.786 440.659 186.481 442.362C187.436 440.822 188.381 439.281 189.597 437.307V437.296ZM170.379 606.498C173.072 605.348 175.417 604.36 178.403 603.091C175.58 600.878 173.365 599.142 170.379 596.809V606.498ZM156.416 429.896C156.144 429.918 155.862 429.94 155.591 429.972V449.035C155.862 449.035 156.144 449.013 156.416 449.013V429.907V429.896ZM202.431 596.787C199.445 599.272 197.252 601.084 194.689 603.21C197.697 604.393 200.053 605.315 202.431 606.248V596.787ZM58.0556 606.042C61.0957 604.664 63.4736 603.579 66.3834 602.266C63.7233 600.172 61.4866 598.415 58.4899 596.06C58.3161 599.869 58.2076 602.472 58.0447 606.042H58.0556ZM7.70824 496.492C9.09803 500.159 15.895 502.351 17.7299 500.279C18.0882 499.866 17.2848 497.512 16.7636 497.414C14.0274 496.883 11.1936 496.796 7.70824 496.503V496.492ZM27.035 442.102C26.503 442.037 25.9818 441.961 25.4498 441.896C24.9829 449.23 24.5269 456.565 24.06 463.899C24.4509 463.943 24.8417 463.986 25.2218 464.029C25.8298 456.717 26.427 449.415 27.035 442.102ZM189.89 461.675C188.348 459.896 187.317 458.702 186.275 457.509C185.656 458.898 184.526 460.297 184.548 461.664C184.57 463.031 185.753 464.377 186.437 465.733C187.393 464.615 188.348 463.487 189.89 461.675ZM250.02 440.811C249.51 440.789 249.01 440.757 248.5 440.735C249.119 448.113 249.727 455.502 250.346 462.879C250.78 462.847 251.225 462.803 251.66 462.771C251.117 455.447 250.563 448.135 250.02 440.811ZM232.376 442.297C231.866 442.341 231.345 442.373 230.835 442.417C231.41 449.719 231.986 457.021 232.572 464.322C232.952 464.29 233.332 464.257 233.712 464.214C233.267 456.912 232.822 449.599 232.376 442.297ZM42.3227 292.538C41.8992 292.506 41.4649 292.473 41.0415 292.441C40.466 299.721 39.8906 307.001 39.3151 314.281C39.7711 314.314 40.2272 314.357 40.694 314.39C41.2369 307.109 41.7798 299.818 42.3336 292.538H42.3227ZM6.20988 462.445C6.6659 462.413 7.12193 462.38 7.57795 462.337C8.12084 455.078 8.66372 447.82 9.20661 440.572C8.75059 440.54 8.29456 440.507 7.83854 440.475C7.29565 447.798 6.75276 455.122 6.20988 462.445ZM69.467 453.711C68.6853 453.744 67.8927 453.776 67.1109 453.809C67.1109 456.869 67.024 459.928 67.176 462.977C67.2086 463.617 68.0338 464.626 68.6201 464.724C69.1956 464.822 70.5094 463.932 70.4877 463.53C70.2814 460.254 69.8362 456.988 69.467 453.711ZM214.526 436.829C214.32 436.829 214.114 436.829 213.897 436.829V465.982C214.103 465.982 214.309 465.982 214.526 465.982V436.829ZM158.359 465.896C158.587 465.896 158.815 465.917 159.054 465.917V437.057C158.826 437.057 158.598 437.057 158.359 437.057V465.885V465.896ZM250.216 498.911C250.02 498.239 249.814 497.566 249.619 496.893C246.263 497.132 242.908 497.36 239.553 497.599C239.477 498.358 239.391 499.107 239.315 499.866C241.421 500.181 243.549 500.832 245.634 500.713C247.186 500.626 248.685 499.552 250.205 498.911H250.216ZM74.7222 456.37C74.0924 456.684 73.4627 456.988 72.8329 457.303V464.615C73.365 464.854 73.897 465.093 74.429 465.331C75.1673 463.954 76.4811 462.576 76.492 461.187C76.5028 459.592 75.3628 457.975 74.7222 456.37ZM53.1696 293.645C52.6484 293.591 52.1381 293.536 51.6169 293.471C51.2586 300.437 50.8894 307.392 50.5311 314.357C50.8677 314.379 51.2043 314.39 51.5301 314.411C52.0729 307.489 52.6158 300.567 53.1696 293.645ZM18.9026 520.242C18.3271 520.09 17.7516 519.938 17.1762 519.786C16.2424 524.929 15.2978 530.083 14.364 535.226C14.9395 535.334 15.515 535.432 16.1013 535.54C17.035 530.441 17.9688 525.341 18.9134 520.242H18.9026ZM102.735 436.699L102.105 436.883V464.973C102.312 464.973 102.529 464.973 102.735 464.973V436.699ZM217.143 314.455C217.567 314.422 217.979 314.4 218.403 314.368C217.871 307.077 217.328 299.797 216.796 292.506C216.383 292.538 215.97 292.56 215.547 292.592C216.079 299.883 216.611 307.164 217.143 314.455ZM241.638 535.822C242.268 535.725 242.898 535.638 243.516 535.54C242.518 530.376 241.53 525.211 240.531 520.047C240.031 520.155 239.521 520.253 239.021 520.361C239.89 525.515 240.769 530.669 241.638 535.822ZM205.699 528.108C205.558 528.108 205.417 528.108 205.276 528.108V553.475C205.417 553.475 205.558 553.475 205.699 553.475V528.108ZM55.504 552.477C55.732 552.477 55.9709 552.466 56.1989 552.455C56.1989 544.969 56.1989 537.493 56.1989 530.007C56.1989 529.009 56.0577 528.021 55.9817 527.023C55.2651 534.51 55.2543 541.974 55.276 549.45C55.276 550.459 55.4388 551.457 55.5148 552.466L55.504 552.477Z" fill="#F8F8F8"/>
<path d="M213.989 138.766C213.129 155.654 199.594 171.758 180.614 171.998C162.452 172.216 146.935 156.754 147 138.613C147.066 120.364 162.408 104.978 180.495 105C199.245 105.022 213.325 122.106 214 138.766H213.989ZM181.943 156.928C185.308 156.754 190.73 156.525 196.153 156.187C204.385 155.687 206.182 155.077 207.532 146.965C208.577 140.638 207.445 133.844 206.519 127.365C206.291 125.786 203.1 123.532 201.216 123.478C188.422 123.13 175.595 122.999 162.8 123.38C154.808 123.62 153.751 124.774 152.303 132.145C150.909 139.245 151.356 146.301 155.494 152.496C156.572 154.108 158.956 155.578 160.884 155.774C167.177 156.449 173.537 156.514 181.954 156.906L181.943 156.928ZM203.067 121.17C196.676 113.047 188.454 109.562 178.448 110.118C169.573 110.597 162.55 114.462 157.541 121.17H203.067ZM201.14 157.603H159.501C169.203 170.441 191.645 170.462 201.14 157.603Z" fill="#F8F8F8"/>
<path d="M123.989 138.716C123.956 157.038 108.436 172.311 90.1878 171.995C71.8743 171.679 57.011 156.755 57 138.683C57 120.676 72.2576 105.055 89.9249 105C108.644 104.946 124.033 120.186 124 138.726L123.989 138.716ZM109.706 114.02C109.564 113.878 109.432 113.726 109.29 113.584C95.4015 102.723 74.8864 105.665 64.5248 120.001C53.966 134.62 57.3724 154.413 72.1591 164.37C84.2074 172.474 99.1693 172.093 108.731 163.433C110.692 161.33 112.653 159.239 114.613 157.136C115.336 156.701 116.289 156.417 116.76 155.797C126.18 143.204 122.784 123.247 109.717 114.031L109.706 114.02Z" fill="#F8F8F8"/>
<path d="M130.347 319.135C146.409 319.135 162.46 319.276 178.522 319.049C183.598 318.973 185.398 320.628 185.647 325.822C186.645 346.119 188.673 366.384 188.999 386.682C189.085 392.081 184.997 397.923 181.678 402.781C180.42 404.632 175.919 404.816 172.882 404.826C143.654 404.967 114.426 404.826 85.1979 404.999C80.4693 405.032 78.0725 403.582 75.5672 399.33C71.4026 392.243 70.4049 385.362 71.305 377.301C73.1921 360.336 74.2658 343.263 75.3178 326.211C75.654 320.715 77.6712 318.886 83.2566 319.005C98.9498 319.362 114.643 319.124 130.347 319.124V319.135ZM181.266 398.41C184.704 394.548 187.871 390.761 187.415 384.929C185.919 366.103 184.606 347.255 183.402 328.408C182.947 321.159 183.164 321.083 176.125 321.072C145.606 321.039 115.088 321.18 84.5689 320.942C79.1245 320.899 77.4543 322.89 77.129 327.975C75.9468 346.466 74.6237 364.945 72.9318 383.393C72.2594 390.761 76.8036 395.792 79.721 401.57C80.144 402.403 82.2371 402.706 83.5602 402.717C114.437 402.781 145.324 402.727 176.201 402.814C179.596 402.814 181.255 401.537 181.439 398.226L181.255 398.41H181.266Z" fill="#F8F8F8"/>
<path d="M114.159 157.452C112.209 159.553 110.26 161.643 108.31 163.743C102.177 165.572 96.1103 168.641 89.9016 168.968C77.7456 169.61 66.0253 160.576 61.7772 149.017C57.5073 137.393 61.0692 124.517 70.9813 115.745C79.3468 108.333 93.1476 106.864 103.975 112.164C105.521 112.926 107.232 113.35 108.865 113.938C109.007 114.08 109.138 114.232 109.279 114.374C111.523 117.856 113.756 121.35 116 124.833C100.064 121.753 84.0414 121.372 68.0077 123.799C66.559 124.017 64.7182 125.519 64.1409 126.879C60.481 135.456 60.481 144.163 65.0449 152.381C66.0906 154.263 69.086 156.114 71.2428 156.179C83.3552 156.538 95.4894 156.56 107.591 156.201C110.423 156.114 113.201 154.089 116 152.946C115.39 154.448 114.769 155.95 114.159 157.452ZM67.9532 121.513H112.591C101.72 106.57 78.9764 106.308 67.9532 121.513ZM69.7614 157.931C79.826 172.919 106.502 168.151 110.423 157.931H69.7614Z" fill="#F8F8F8"/>
<path d="M124 153C127.371 143.333 127.295 133.667 124 124C129.333 132.028 129.333 144.839 124 153Z" fill="#F8F8F8"/>
<path d="M181.335 389.798C180.922 384.059 180.509 378.33 180.074 372.308H80.4023C80.946 378.777 76.8356 385.279 81.1961 391.552C82.2182 393.022 84.4039 394.547 86.0676 394.558C115.384 394.743 144.711 394.775 174.028 394.514C176.137 394.492 178.225 392.042 180.324 390.713C179.704 395.756 177.29 398.054 171.799 397.999C144.309 397.781 116.809 397.901 89.319 397.901C82.5118 397.901 77.6403 393.218 78.0208 386.183C78.6733 374.083 79.7716 362.016 80.7285 349.938C81.2396 343.447 81.9246 336.978 82.3596 330.487C82.5771 327.34 83.9689 326 87.1333 326C116.069 326.044 145.016 326.044 173.952 326C177.899 326 178.812 328.472 178.997 331.631C179.791 344.808 180.53 357.997 181.313 371.175C181.531 374.78 181.955 378.385 181.998 382C182.031 384.592 181.574 387.184 181.335 389.776V389.798ZM178.791 350.221H82.153C81.6745 356.44 81.2069 362.495 80.7176 368.91H179.802C179.465 362.648 179.149 356.745 178.801 350.221H178.791ZM83.8276 328.124C83.36 334.626 82.9359 340.626 82.5118 346.507H178.399C178.062 341.726 177.497 337.403 177.529 333.079C177.573 328.429 175.398 327.59 171.2 327.612C144.048 327.786 116.885 327.688 89.7322 327.721C87.7966 327.721 85.8719 327.982 83.8276 328.124Z" fill="#F8F8F8"/>
</svg>
