<svg width="342" height="33" viewBox="0 0 342 33" fill="none" xmlns="http://www.w3.org/2000/svg">
<line x1="4.37114e-08" y1="16" x2="140" y2="16" stroke="white" stroke-opacity="0.5"/>
<g opacity="0.5" clip-path="url(#clip0_317_2)">
<path d="M172.427 33H169.046C168.512 32.8144 167.969 32.6468 167.445 32.4366C166.624 32.1079 165.741 31.8603 165.016 31.3833C163.142 30.1521 161.483 28.6953 160.636 26.5243C160.426 25.9893 160.109 25.5071 159.339 25.6064C159.134 25.6322 158.797 25.3227 158.658 25.0881C158.066 24.0877 158.156 22.9673 158.373 21.9141C158.499 21.3004 158.833 20.6481 159.686 20.4998C159.956 20.4534 160.265 20.0176 160.355 19.7043C160.504 19.1835 160.509 18.6175 160.546 18.0683C160.625 16.8578 160.785 15.673 161.161 14.5037C161.794 12.5325 162.617 10.7056 164.396 9.47573C165.661 8.60035 166.918 7.7456 168.519 7.48647C169.082 7.39494 169.866 7.29051 170.126 6.51956C170.274 6.07994 170.435 5.6416 170.618 5.21616C170.689 5.05243 170.839 4.92351 170.954 4.77783C171.09 4.91191 171.304 5.02278 171.349 5.18265C171.508 5.73185 171.57 6.312 171.752 6.85218C171.825 7.06748 172.089 7.29438 172.314 7.36271C172.612 7.45295 172.993 7.3034 173.273 7.41427C174.61 7.94543 176.013 8.38892 177.229 9.12635C179.591 10.5612 180.86 12.8341 181.341 15.477C181.656 17.202 181.703 18.9747 181.878 20.8195C182.272 20.7576 182.576 20.7086 183.027 20.6377C183.242 21.2063 183.472 21.8393 183.723 22.4633C183.776 22.5961 183.906 22.6992 184 22.8152V23.3309C183.896 23.5771 183.724 23.8169 183.701 24.0696C183.601 25.1874 183.044 25.6257 181.96 25.3924C181.879 25.3756 181.792 25.3898 181.67 25.3898C181.483 25.8707 181.348 26.3734 181.106 26.8182C179.295 30.1534 176.536 32.2007 172.735 32.8208C172.625 32.8389 172.528 32.9381 172.424 33H172.427ZM180.144 18.8844C180.089 18.8689 180.036 18.8535 179.981 18.838C179.981 18.517 180.085 18.1496 179.962 17.8853C179.604 17.1221 179.239 16.3356 178.719 15.682C178.209 15.0413 177.555 14.4689 176.634 14.4147C175.225 14.3309 174.528 15.3571 173.839 16.2841C173.008 17.3992 172.878 18.6085 173.258 20.0228C173.619 21.3726 174.458 22.2505 175.395 23.113C175.645 23.3425 176.069 23.4572 176.425 23.4895C177.192 23.5591 179.114 22.3227 179.361 21.593C179.663 20.7035 179.886 19.7881 180.145 18.8844H180.144ZM169.087 19.1874C169.066 17.367 168.278 15.7194 167.092 14.9613C166.646 14.6764 166.02 14.5127 165.489 14.541C163.9 14.6223 162.536 16.6773 162.113 18.0864C161.942 18.6511 162.115 19.1564 162.215 19.7159C162.431 20.9252 162.904 21.8844 163.852 22.676C164.632 23.3283 165.526 23.8015 166.415 23.2742C168.069 22.2957 168.961 20.7499 169.087 19.1874ZM160.849 25.9029C161.724 26.1066 162.599 26.3103 163.474 26.5127C165.57 26.9949 167.676 27.4022 169.845 27.3752C171.099 27.3597 172.355 27.4022 173.609 27.3661C174.29 27.3468 174.974 27.2527 175.646 27.1302C176.991 26.8878 178.331 26.6197 179.666 26.327C180.17 26.2175 180.649 26.0099 181.141 25.8462C174.351 27.0593 167.618 26.8866 160.85 25.9029H160.849ZM167.214 8.3438C167.465 8.96778 167.832 9.17792 168.495 8.90847C168.89 8.74732 169.352 8.7022 169.786 8.68673C170.78 8.65063 171.774 8.65579 172.768 8.66223C172.994 8.66352 173.228 8.70993 173.444 8.77955C174.181 9.01805 174.414 8.91621 174.754 8.15686C172.238 7.46197 169.736 7.23121 167.214 8.34251V8.3438ZM173.969 9.32876C171.968 9.03997 169.966 8.73701 167.944 9.56597C168.279 9.87538 168.642 10.2841 169.03 10.3086C170.341 10.3924 171.664 10.355 172.981 10.3356C173.643 10.3266 173.97 9.95531 173.969 9.32876Z" fill="white"/>
<path d="M171.127 0C171.383 0.215299 171.625 0.448646 171.896 0.640739C172.635 1.16545 172.921 2.02664 172.448 2.78341C171.647 4.06231 170.823 4.79459 169.511 3.16631C168.658 2.10786 168.913 1.07778 170.175 0.504083C170.429 0.388053 170.637 0.170176 170.867 0C170.954 0 171.04 0 171.127 0Z" fill="white"/>
</g>
<line x1="202" y1="16" x2="342" y2="16" stroke="white" stroke-opacity="0.5"/>
<defs>
<clipPath id="clip0_317_2">
<rect width="26" height="33" fill="white" transform="translate(158)"/>
</clipPath>
</defs>
</svg>
