<svg width="880" height="74" viewBox="0 0 880 74" fill="none" xmlns="http://www.w3.org/2000/svg">
<line x1="4.37114e-08" y1="36.5" x2="370" y2="36.5" stroke="white" stroke-opacity="0.5"/>
<g opacity="0.5" clip-path="url(#clip0_420_112)">
<path d="M443.183 74H435.642C434.45 73.5837 433.238 73.2078 432.069 72.7366C430.239 71.9994 428.269 71.4443 426.651 70.3747C422.471 67.6138 418.77 64.347 416.879 59.4786C416.412 58.2789 415.705 57.1977 413.987 57.4203C413.529 57.4781 412.778 56.7843 412.468 56.2581C411.148 54.0147 411.348 51.5025 411.832 49.1406C412.114 47.7645 412.859 46.3016 414.762 45.9692C415.362 45.8651 416.053 44.888 416.253 44.1854C416.586 43.0175 416.598 41.7484 416.679 40.5168C416.856 37.8022 417.213 35.1454 418.051 32.5233C419.463 28.103 421.299 24.0065 425.267 21.2485C428.089 19.2856 430.894 17.3689 434.465 16.7878C435.72 16.5825 437.469 16.3484 438.049 14.6196C438.38 13.6337 438.74 12.6508 439.149 11.6968C439.305 11.3296 439.642 11.0405 439.897 10.7139C440.202 11.0145 440.677 11.2632 440.779 11.6216C441.133 12.8532 441.272 14.1541 441.678 15.3654C441.84 15.8482 442.429 16.357 442.931 16.5102C443.595 16.7126 444.445 16.3773 445.071 16.6259C448.053 17.817 451.183 18.8115 453.895 20.4651C459.165 23.6827 461.995 28.7795 463.069 34.706C463.771 38.5741 463.875 42.5492 464.266 46.6861C465.145 46.5474 465.824 46.4375 466.83 46.2785C467.309 47.5534 467.822 48.9729 468.382 50.3721C468.501 50.6699 468.791 50.9012 469 51.1613V52.3177C468.768 52.8699 468.385 53.4076 468.333 53.9743C468.11 56.4807 466.868 57.4636 464.449 56.9404C464.269 56.9028 464.075 56.9346 463.802 56.9346C463.385 58.0129 463.083 59.1404 462.544 60.1378C458.503 67.6167 452.349 72.2076 443.871 73.5981C443.624 73.6386 443.409 73.8612 443.177 74H443.183ZM460.397 42.3468C460.275 42.3121 460.157 42.2774 460.035 42.2427C460.035 41.5229 460.267 40.6989 459.991 40.1063C459.194 38.3948 458.379 36.6314 457.218 35.1656C456.081 33.7288 454.623 32.4452 452.569 32.3238C449.425 32.1359 447.87 34.4371 446.333 36.5157C444.48 39.0164 444.19 41.7281 445.037 44.8995C445.843 47.9264 447.714 49.8951 449.805 51.8292C450.362 52.3437 451.307 52.601 452.102 52.6733C453.813 52.8294 458.1 50.057 458.651 48.4207C459.324 46.4259 459.823 44.3734 460.4 42.3468H460.397ZM435.732 43.0262C435.686 38.9441 433.928 35.2495 431.283 33.5496C430.288 32.9107 428.89 32.5435 427.707 32.6071C424.162 32.7893 421.12 37.3975 420.174 40.5573C419.794 41.8235 420.18 42.9568 420.403 44.2115C420.885 46.9232 421.94 49.0741 424.055 50.8491C425.795 52.3119 427.788 53.3729 429.772 52.1905C433.461 49.9963 435.451 46.53 435.732 43.0262ZM417.355 58.0852C419.307 58.542 421.259 58.9987 423.211 59.4526C427.886 60.5338 432.585 61.4474 437.423 61.3867C440.222 61.352 443.024 61.4474 445.82 61.3664C447.34 61.3231 448.865 61.112 450.365 60.8374C453.364 60.2939 456.354 59.6926 459.333 59.0363C460.455 58.7906 461.526 58.3252 462.622 57.958C447.476 60.6784 432.455 60.291 417.358 58.0852H417.355ZM431.555 18.7103C432.115 20.1095 432.933 20.5807 434.412 19.9765C435.294 19.6151 436.324 19.514 437.292 19.4793C439.508 19.3983 441.727 19.4099 443.943 19.4243C444.448 19.4272 444.97 19.5313 445.451 19.6874C447.096 20.2222 447.615 19.9939 448.375 18.2911C442.763 16.7329 437.179 16.2154 431.555 18.7074V18.7103ZM446.623 20.919C442.159 20.2714 437.693 19.592 433.183 21.4509C433.931 22.1447 434.74 23.0612 435.604 23.1161C438.531 23.304 441.481 23.2202 444.419 23.1768C445.895 23.1566 446.626 22.324 446.623 20.919Z" fill="white"/>
<path d="M440.283 0C440.854 0.482791 441.394 1.00606 442 1.43681C443.647 2.61343 444.286 4.5446 443.23 6.24159C441.443 9.10943 439.604 10.7515 436.678 7.10021C434.775 4.72673 435.344 2.41685 438.16 1.13037C438.725 0.87018 439.19 0.381607 439.703 0C439.897 0 440.089 0 440.283 0Z" fill="white"/>
</g>
<line x1="510" y1="36.5" x2="880" y2="36.5" stroke="white" stroke-opacity="0.5"/>
<defs>
<clipPath id="clip0_420_112">
<rect width="58" height="74" fill="white" transform="translate(411)"/>
</clipPath>
</defs>
</svg>
