<svg width="222" height="248" viewBox="0 0 222 248" fill="none" xmlns="http://www.w3.org/2000/svg">
<g clip-path="url(#clip0_527_35)">
<path d="M67.2426 98.3155C67.8667 94.9284 67.9402 94.8713 71.3425 94.8713C72.497 94.8713 73.6515 94.8591 74.806 94.8713C77.0701 94.8999 77.678 95.4909 77.8412 97.7245C78.1308 101.703 78.4327 105.677 78.7427 109.842C79.8197 109.781 80.7947 109.724 81.9737 109.655C81.8921 108.35 81.8799 107.213 81.733 106.092C81.5413 104.613 82.0064 103.72 83.5974 103.594C85.7636 103.423 87.9257 103.145 90.092 103.101C90.6794 103.088 91.6259 103.643 91.8054 104.148C92.4459 105.933 93.0456 107.788 93.2577 109.663C93.6575 113.229 93.9634 116.828 93.939 120.411C93.9267 122.233 93.1108 124.047 92.6702 125.869C92.5519 126.366 92.3643 126.88 92.3969 127.373C92.5968 130.552 92.8497 133.727 93.0945 137.053C95.9828 137.179 95.9175 139.511 95.6442 141.308C95.3668 143.134 95.8808 144.74 96.044 146.44C96.2765 148.845 96.1337 149.102 93.7962 149.668C94.0858 153.557 94.1348 157.506 94.763 161.358C95.0935 163.388 96.6111 165.193 97.2801 167.207C98.1246 169.734 98.6223 172.298 97.6065 175.033C97.0843 176.439 97.3127 178.134 97.2597 179.7C97.1781 182.117 97.1251 184.538 97.0884 186.959C97.0557 189.188 97.0639 191.422 97.0516 193.652C97.0312 196.423 97.0598 199.199 96.966 201.966C96.9007 203.996 96.1623 204.461 93.5025 204.673C91.7442 204.811 90.8263 204.061 90.5693 202.362C89.8962 197.956 89.0966 193.57 88.5499 189.148C87.6443 181.868 86.8039 174.576 86.1471 167.272C85.9757 165.36 86.7794 163.38 86.7794 161.431C86.7794 158.66 86.453 155.884 86.245 153.112C86.1797 152.236 86.041 151.368 85.9349 150.5C84.0298 149.758 83.0181 147.259 83.6218 145.022C83.7728 144.463 83.732 143.762 83.5321 143.212C82.5856 140.607 83.1486 138.565 85.2904 137.579C85.013 134.257 84.8987 130.862 84.3929 127.524C84.0624 125.351 83.1609 123.268 82.4592 120.949H79.5464C79.7096 123.521 79.8524 125.987 80.0237 128.449C80.5377 135.883 81.0925 143.314 81.5454 150.752C81.5984 151.625 81.2394 152.595 80.8396 153.406C80.2154 154.673 79.3261 155.806 78.6693 157.062C77.5719 159.165 76.5153 161.219 73.5454 160.665C73.3415 160.628 73.06 160.983 72.8193 161.158C72.8682 161.391 72.9131 161.619 72.9621 161.851C74.0554 161.68 75.2344 161.7 76.2298 161.289C78.0574 160.53 80.448 161.333 81.5209 163.013C82.6346 164.761 82.8712 166.583 82.7774 168.568C82.6958 170.26 82.7611 171.959 82.7611 173.655C82.7651 178.102 81.4883 179.72 77.1313 180.564C77.1313 183.29 77.1395 186.062 77.1313 188.83C77.1232 191.556 77.0987 194.279 77.0824 197.34C78.4966 198.199 79.2024 199.788 79.1996 202.109C79.1996 204.078 79.1996 206.042 79.1996 208.011C79.1996 209.307 79.3465 210.616 77.625 211.121C77.3353 211.207 77.164 212.136 77.1558 212.678C77.1109 215.731 77.1558 218.784 77.1191 221.837C77.1068 222.68 76.911 223.52 76.7846 224.482C78.9671 224.408 79.3384 225.868 79.1507 227.706C78.9916 229.267 79.4322 230.49 80.5173 231.733C83.1568 234.745 84.5071 238.442 85.4944 242.277C85.8697 243.741 85.3434 244.246 83.8829 244.238C75.2547 244.205 66.6266 244.209 57.9984 244.23C56.5216 244.234 56.183 243.781 56.4767 242.257C57.211 238.446 58.6674 234.973 61.1478 232.043C62.4002 230.563 62.9101 229.096 62.7184 227.266C62.5389 225.55 63.1916 224.502 64.9458 224.531V211.361C62.7632 210.827 62.4246 209.393 62.5266 207.579C62.6409 205.553 62.596 203.515 62.5389 201.485C62.4858 199.415 62.2696 197.308 64.9621 197.438V180.234C62.2655 180.649 60.5848 179.712 59.9443 177.462C59.4058 175.579 59.1202 173.626 58.6715 171.466C57.7046 171.148 55.8444 171.87 55.3508 169.815C55.314 169.669 54.4696 169.677 54.0045 169.673C51.5609 169.661 49.1132 169.64 46.6695 169.677C45.5599 169.693 44.2952 169.212 43.7445 170.981C43.6058 171.425 41.9332 171.393 40.9664 171.584C39.9873 176.94 37.9801 179.781 34.945 180.107V196.994C38.0577 197.279 37.1316 200.006 37.1765 202.239C37.2132 204.07 37.1724 205.9 37.1887 207.73C37.201 209.046 37.2866 210.322 35.5773 210.815C35.2877 210.901 35.1041 211.814 35.0959 212.352C35.051 215.335 35.0959 218.323 35.0674 221.307C35.0592 222.22 34.9001 223.129 34.7981 224.18C36.842 224.099 37.3315 225.407 37.0908 227.221C36.8501 229.022 37.462 230.404 38.6818 231.79C41.3335 234.806 42.6349 238.523 43.3937 242.408C43.4712 242.811 42.8021 243.724 42.3779 243.798C41.256 243.985 40.0811 243.834 38.9266 243.834C31.5223 243.843 24.1179 243.847 16.7136 243.867C14.0578 243.875 13.9966 243.781 14.5637 241.279C15.4449 237.378 17.1623 233.942 19.6916 230.824C20.3933 229.96 20.4627 228.464 20.532 227.241C20.6666 224.889 20.838 224.563 22.7921 224.168C22.6901 222.64 22.5351 221.156 22.5024 219.672C22.4535 217.504 22.4739 215.331 22.5024 213.159C22.5187 211.944 22.6452 210.807 21.1684 210.147C20.7278 209.951 20.5075 208.871 20.4871 208.19C20.4056 205.753 20.4994 203.307 20.4382 200.866C20.3892 198.881 20.3648 197.006 22.6779 197.185C22.6167 192.372 22.5555 187.762 22.4984 183.152C22.4861 182.153 22.4984 181.155 22.4984 180.205C18.3821 179.479 17.1542 177.975 17.146 173.875C17.1419 171.568 16.9543 169.241 17.2113 166.962C17.3989 165.295 17.9782 163.604 18.7289 162.096C19.455 160.628 22.0374 160.359 23.6733 161.052C24.6156 161.452 25.7416 161.415 27.2959 161.655C26.7737 160.926 26.688 160.734 26.635 160.742C23.3224 161.232 22.2536 158.806 20.7686 156.577C18.737 153.528 17.8518 150.524 18.272 146.75C19.1776 138.606 19.5529 130.405 20.1404 122.229C20.1649 121.895 20.1404 121.561 20.1404 120.998C18.9532 120.888 17.7702 120.696 16.5871 120.721C16.2404 120.729 15.6692 121.296 15.5999 121.679C14.8982 125.526 14.2536 129.382 13.6539 133.246C13.4785 134.379 13.4704 135.545 13.45 136.694C13.4418 137.065 13.5152 137.542 13.7478 137.795C14.2496 138.345 15.3388 138.757 15.3633 139.266C15.4285 140.652 15.0573 142.058 14.886 143.456C14.8329 143.884 14.7391 144.365 14.8696 144.753C15.5224 146.68 14.8003 148.934 13.1562 150.149C12.8544 150.369 12.6545 150.887 12.6218 151.286C12.3281 154.661 11.4265 158.162 12.014 161.386C12.5443 164.305 12.4464 167.052 12.2547 169.881C11.8957 175.155 11.6835 180.454 10.9819 185.687C10.2271 191.34 8.95433 196.92 7.95893 202.545C7.59585 204.612 6.21289 204.591 4.60556 204.493C2.81873 204.388 1.60711 203.894 1.63159 201.779C1.68462 197.385 1.6887 192.991 1.61527 188.601C1.59487 187.228 1.11757 185.854 1.13389 184.485C1.15429 182.439 1.54592 180.388 1.53776 178.342C1.5296 177.062 0.876878 175.791 0.864639 174.511C0.840162 172.069 0.929911 169.612 1.25219 167.195C1.42761 165.874 2.01099 164.533 2.70042 163.375C5.24197 159.108 3.8019 154.266 4.96864 149.607C2.02322 149.55 2.17825 147.561 2.67595 145.767C3.21852 143.819 2.80241 141.912 2.93296 139.992C3.0431 138.37 3.23892 136.894 5.51122 137.175C5.76007 133.621 6.10275 130.25 6.1721 126.876C6.20066 125.567 5.81718 124.153 5.25421 122.954C3.90796 120.089 5.17262 117.236 5.05431 114.387C4.9972 113.042 5.10734 111.664 5.33988 110.339C5.71519 108.208 6.16802 106.076 6.80035 104.01C6.94721 103.529 7.94669 103.015 8.55046 103.023C10.7167 103.052 12.887 103.264 15.0491 103.463C16.322 103.582 16.9747 104.222 16.8156 105.64C16.681 106.834 16.787 108.057 16.787 109.492C18.1618 109.63 19.5366 109.769 21.0705 109.928C21.405 105.721 21.7477 101.756 22.021 97.7815C22.1883 95.3604 22.6452 94.8754 25.1256 94.8591C26.2801 94.851 27.4346 94.8591 28.5891 94.8591C31.9139 94.8591 32.0567 94.9855 32.3708 98.2707H43.8302C44.0178 97.59 44.4176 96.8237 44.3728 96.0819C44.3401 95.5316 43.8179 94.6431 43.3651 94.5412C37.0704 93.0942 32.0281 89.5482 27.4183 85.2521C24.7054 82.7251 22.584 79.7822 21.2459 76.3055C20.5483 74.4876 19.5489 73.1996 17.2684 73.6194C15.5795 73.9292 15.0206 73.0325 15.0695 71.3777C15.1634 68.1251 15.0981 64.8643 15.0981 61.6077C15.0981 59.6702 16.0772 58.6757 18.0354 58.6241C18.3658 58.6159 18.6962 58.5833 19.3367 58.5426C19.6916 54.8865 19.9079 51.263 20.4219 47.6843C21.9435 37.042 26.8838 28.6456 36.948 24.0031C39.8894 22.6458 42.7613 20.8647 46.2942 20.9095C47.0122 20.9177 48.1218 19.2873 48.3992 18.2398C48.8235 16.642 48.6807 14.8934 48.7827 13.0919C46.9306 12.2441 44.9806 11.4533 44.3605 9.11376C43.6425 6.39104 44.385 4.03107 46.6858 2.2988C48.5747 0.876303 51.565 0.79886 53.5843 2.12761C55.7587 3.55419 57.1253 6.50109 56.1463 8.85697C55.5547 10.2836 54.0086 11.3025 52.9398 12.5457C52.4869 13.0756 51.8016 13.7236 51.8301 14.2902C51.924 16.1407 52.1728 18.0115 52.6379 19.8008C52.7807 20.3429 53.7965 20.9421 54.4655 21.0155C59.8219 21.5943 64.3706 24.048 68.6214 27.0968C76.4501 32.7134 79.3057 40.9182 80.3011 50.032C80.6071 52.8363 80.8437 55.6487 81.1089 58.4081C83.9999 58.8428 85.4454 60.5425 85.4454 63.507C85.4454 66.0178 85.3638 68.5327 85.4699 71.0394C85.5515 72.9347 84.9069 74.0189 82.9243 73.6276C80.8437 73.2159 79.9013 74.4428 79.3057 75.9916C76.3481 83.6911 70.3063 88.3498 63.3915 92.1038C61.4537 93.1554 59.2875 93.8116 57.1825 94.5127C56.1503 94.855 55.6486 95.2585 56.0769 96.3754C56.3176 96.999 56.4889 97.647 56.7052 98.3277H67.2426V98.3155ZM62.4369 115.28C60.3849 114.126 59.8219 112.337 60.9111 110.421C61.8984 108.685 64.3787 107.89 65.9861 109.133C66.8836 109.826 67.6995 111.183 67.7362 112.267C67.777 113.405 66.8387 114.574 66.3777 115.618H71.469C70.7958 113.303 70.2165 111.163 69.5189 109.064C69.3966 108.697 68.7642 108.273 68.3604 108.265C65.3823 108.2 62.4002 108.2 59.418 108.273C59.0427 108.281 58.4553 108.778 58.3533 109.157C57.7699 111.265 57.3048 113.405 56.6888 115.993C58.8102 115.703 60.5889 115.459 62.3675 115.214C62.8856 115.312 63.5302 115.655 63.8933 115.463C64.9417 114.909 66.3736 114.322 66.7204 113.396C67.0712 112.467 66.6388 110.759 65.9126 110.058C65.2803 109.451 63.4241 109.3 62.7061 109.806C61.8821 110.38 61.4823 111.868 61.3558 113.013C61.2783 113.723 62.0493 114.525 62.4369 115.288V115.28ZM92.2133 138.675C90.3082 141.594 87.7258 139.821 85.1965 139.352C85.4658 142.605 85.7106 145.539 86.0002 149.036C88.6193 146.456 91.3566 147.593 94.1021 148.099C93.8533 145.189 93.6942 142.625 93.3638 140.082C93.2985 139.588 92.5764 139.181 92.1562 138.736C91.8584 134.901 91.6096 131.062 91.2138 127.234C91.1404 126.541 90.4877 125.376 90.0512 125.351C88.5785 125.266 87.0813 125.6 85.527 125.779C85.7881 129.741 85.988 133.311 86.2776 136.874C86.4816 139.401 88.1787 140.371 90.5734 139.409C91.1282 139.185 91.6667 138.92 92.2133 138.675ZM11.1532 148.258C10.1496 148.099 9.13791 147.773 8.15067 147.83C7.15934 147.887 5.89469 147.863 5.80086 149.448C5.54385 153.76 5.24605 158.073 4.95232 162.617H10.5535C10.8676 158.325 11.1981 154.021 11.4714 149.709C11.504 149.212 11.2225 148.698 11.0798 148.185C11.5693 148.246 12.0589 148.307 12.6667 148.384C12.8992 145.295 13.1195 142.368 13.3847 138.859C10.427 140.758 7.90998 140.355 5.27868 138.386C5.00536 141.834 4.76466 144.83 4.50765 148.042C6.88602 147.838 9.14199 146.171 11.1532 148.254V148.258ZM68.136 200.776C67.112 200.104 66.0881 199.427 64.954 198.681V210.02C66.1656 209.218 67.1487 208.561 68.1319 207.913C67.3445 208.875 65.9412 209.792 65.8759 210.799C65.6148 214.822 65.7699 218.873 65.7699 222.884H70.5266V207C69.6128 207.363 68.8417 207.669 68.0707 207.974C69.9922 205.81 71.9463 205.851 74.0391 208.093C73.1987 207.746 72.3624 207.404 71.4608 207.033V222.904H75.9605V209.906C76.3317 209.645 77.0212 209.393 77.0253 209.124C77.0987 205.696 77.0742 202.264 77.0742 198.514C76.3685 198.926 76.0339 199.121 75.6994 199.317C74.3083 198.987 72.9172 198.661 70.9712 198.2C71.3629 199.884 71.5954 200.874 71.8239 201.865C70.1676 202.79 69.058 201.942 68.0666 200.703C68.8295 201 69.5924 201.302 70.5062 201.661V198.722H66.5042C67.1202 199.496 67.626 200.136 68.1319 200.772L68.136 200.776ZM24.9461 199.537C24.2648 199.187 23.5835 198.832 22.5881 198.318C22.5881 202.032 22.5636 205.455 22.6371 208.875C22.6411 209.124 23.3714 209.352 23.763 209.592V222.538H28.5524C28.5524 217.549 28.536 212.694 28.5605 207.84C28.5687 206.621 27.969 206.69 27.1531 207.053C27.8915 206.743 28.8461 205.981 29.3234 206.214C30.6574 206.853 31.7915 207.905 33.0072 208.798C31.8445 208.097 30.6819 207.391 29.3438 206.58V222.525H33.8435C33.9088 222.248 33.9618 222.118 33.9618 221.987C33.9741 218.666 34.0638 215.344 33.9373 212.026C33.8925 210.913 33.2846 209.821 32.9338 208.72C33.5743 209.006 34.2188 209.291 34.9083 209.597V198.176C33.7986 199.06 32.9786 199.7 32.175 200.356C29.2704 202.729 27.2836 202.488 24.8645 199.456C25.9986 200.112 27.1327 200.768 28.4463 201.53V198.376H24.2566C24.5381 198.852 24.738 199.191 24.9379 199.529L24.9461 199.537ZM12.5321 125.233C14.0415 125.526 13.76 124.332 13.8253 123.574C14.1598 119.657 14.4454 115.736 14.7269 111.815C14.8982 109.422 15.0369 107.026 15.2001 104.527C12.7116 104.376 10.5739 104.25 8.27713 104.111C7.80391 111.208 7.35108 118.002 6.93089 124.361C8.99513 124.703 10.7983 125.001 12.6096 125.306C11.3286 125.306 10.0354 125.184 8.77891 125.363C8.27305 125.433 7.50202 126.113 7.45307 126.578C7.07775 130.132 6.84522 133.703 6.58413 137.273C6.43319 139.356 8.08132 139.499 9.42756 139.572C10.7044 139.641 12.1935 139.621 12.2955 137.607C12.4709 134.171 12.8013 130.744 12.9849 127.308C13.0216 126.627 12.6953 125.926 12.5402 125.237L12.5321 125.233ZM40.4238 23.7382C30.6737 27.2557 24.7339 33.9443 22.2862 43.8488C20.2873 51.9355 21.0256 60.1118 21.2255 68.28C21.2255 68.3859 21.3683 68.4878 21.454 68.606H79.1996C79.1996 62.6103 79.2649 56.741 79.1833 50.8717C79.1017 44.9819 77.3108 39.5202 74.2512 34.5516C70.8897 29.094 65.7903 25.821 60.0585 23.7586C59.0346 25.0262 58.084 25.9881 57.4028 27.109C56.7419 28.1973 56.028 28.3848 54.7715 28.3114C51.618 28.128 48.4523 28.2666 45.2866 28.238C44.7358 28.2339 43.9607 28.2503 43.6711 27.9201C42.5288 26.624 41.5375 25.1933 40.4319 23.7382H40.4238ZM21.2337 69.2908C21.2011 69.9266 21.1358 70.3913 21.1643 70.8519C21.2011 71.4592 21.2908 72.0624 21.3969 72.6616C22.327 77.9114 25.2724 81.9058 29.1561 85.3948C33.305 89.1202 37.8333 92.4951 43.3162 93.404C51.1733 94.7042 59.0223 94.4637 65.9779 89.5196C70.7224 86.1488 75.2588 82.5661 77.6413 77.0962C78.6775 74.7199 79.0038 72.0339 79.7055 69.2867H21.2337V69.2908ZM77.0334 116.763C74.4715 116.625 72.0523 116.384 69.6372 116.388C64.1503 116.404 58.6633 116.604 53.1764 116.616C49.1132 116.625 45.054 116.376 40.9908 116.384C35.5039 116.396 30.021 116.612 24.534 116.592C22.8981 116.584 22.4943 117.15 22.4004 118.671C21.7477 128.942 21.1072 139.213 20.1975 149.464C20.018 151.486 20.5606 153.023 21.4499 154.571C22.0292 155.586 22.8288 156.516 23.6855 157.315C24.2974 157.885 25.1704 158.529 25.9292 158.533C41.9454 158.603 57.9616 158.594 73.9779 158.562C74.7489 158.562 75.9483 158.435 76.2216 157.955C77.576 155.57 79.7218 153.479 79.526 150.422C79.1058 143.868 78.6979 137.314 78.2165 130.76C77.8779 126.117 77.4332 121.483 77.0253 116.755L77.0334 116.763ZM69.7515 96.1797C69.7025 96.5425 69.6005 96.8156 69.6413 97.0642C70.0289 99.2856 69.0253 99.7095 66.9407 99.6932C55.2569 99.5872 43.5732 99.6483 31.8894 99.6402C31.3754 99.6402 30.8573 99.5587 30.2943 99.5138C30.2168 98.3033 30.1475 97.2517 30.0822 96.2245H24.1383C23.661 102.791 23.196 109.194 22.7309 115.569C26.8879 116.339 27.0103 116.27 28.0995 112.736C28.3973 111.766 28.8053 110.812 28.9644 109.822C29.2989 107.743 30.4126 107.03 32.4687 107.319C33.7334 107.499 35.047 107.352 36.3361 107.352C39.5589 107.352 41.6653 108.897 42.6553 111.986C43.4766 114.543 45.1683 115.838 47.7302 115.871C47.82 115.871 47.9138 115.74 48.0035 115.667C45.7965 113.327 45.5436 111.46 47.1917 109.671C48.387 108.371 50.8674 108.134 52.185 109.369C52.8337 109.981 53.6129 110.996 53.5231 111.733C53.3559 113.14 52.6093 114.477 52.1238 115.793H55.8485C56.3992 113.47 56.9948 111.187 57.4599 108.88C57.6842 107.759 58.1248 107.274 59.3405 107.303C62.3961 107.38 65.4557 107.397 68.5113 107.295C69.7229 107.254 70.1839 107.743 70.4572 108.803C70.9631 110.767 71.5138 112.72 72.1462 114.648C72.2971 115.112 72.8152 115.736 73.2272 115.785C74.4592 115.936 75.7198 115.838 77.0089 115.838C76.5684 109.092 76.1522 102.693 75.728 96.1797H69.7678H69.7515ZM91.7034 124.687C91.2465 117.957 90.7814 111.122 90.3041 104.103C87.885 104.311 85.7595 104.491 83.3567 104.694C83.8911 111.701 84.4133 118.508 84.9191 125.115C87.3383 124.964 89.4515 124.829 91.7075 124.687H91.7034ZM28.4667 240.105V228.851C21.9027 229.711 17.8314 232.564 15.7304 240.985C16.3587 241.462 16.9257 241.894 17.1011 242.029C17.9089 241.784 18.6024 241.34 19.1858 241.458C19.7651 241.572 20.2261 242.253 21.0583 242.954C21.5845 242.885 23.1592 243.088 23.457 242.571C24.5993 240.553 26.5126 240.545 28.4667 240.105ZM70.5307 229.145C63.5098 229.887 59.6302 233.461 57.9739 241.197C58.545 241.825 59.0019 242.326 59.4221 242.791C60.1034 241.646 61.8454 241.161 62.2859 242.175C63.1957 244.262 65.3986 243.186 65.6352 242.754C66.7571 240.688 68.7112 240.839 70.5347 240.431V229.145H70.5307ZM29.2826 228.827V239.926C30.69 240.415 32.485 240.488 33.1051 241.377C34.2963 243.084 35.7119 242.885 36.7767 242.897C37.4416 242.2 37.8618 241.434 38.2086 241.462C39.0123 241.536 39.7792 241.996 40.489 242.269C40.8073 241.968 41.3254 241.478 41.8924 240.94C40.0974 233.217 36.3483 229.854 29.2867 228.823L29.2826 228.827ZM83.8054 240.476C82.0839 232.931 77.5026 229.842 71.4241 229.214V240.484C73.3292 240.773 75.0916 240.843 76.2869 242.709C76.6214 243.235 78.7305 243.337 79.3628 242.824C81.0925 241.417 81.4923 241.258 81.3047 241.707C81.9615 241.381 82.6224 241.059 83.8013 240.476H83.8054ZM41.358 162.193V170.178C41.7741 168.316 43.0714 168.491 44.3809 168.507C47.9015 168.552 51.4222 168.523 54.9428 168.519C56.3421 168.519 57.9331 168.112 58.5573 170.166V162.193H41.3539H41.358ZM76.0747 177.307H71.4608V195.253H76.0747V177.307ZM70.5021 195.314V177.323H65.9167V195.314H70.5021ZM23.7956 177.018V194.838H28.4218V177.018H23.7956ZM93.6534 162.695C93.3515 158.162 93.1027 153.923 92.7477 149.693C92.7029 149.159 92.2215 148.405 91.7523 148.201C89.0313 147.043 87.0405 148.445 87.2078 151.303C87.2485 151.975 87.2567 152.652 87.3138 153.324C87.5749 156.52 87.8523 159.715 88.1216 162.948C90.0634 162.858 91.736 162.78 93.6534 162.691V162.695ZM29.3112 176.977V194.891H33.7823V176.977H29.3112ZM9.65193 186.127C9.85999 182.724 10.0558 179.537 10.2516 176.313C7.67744 176.129 5.47858 175.974 3.14101 175.807C2.92888 179.182 2.73714 182.272 2.53316 185.553C4.89929 185.744 7.1675 185.924 9.65601 186.127H9.65193ZM96.0726 185.671C95.8359 182.194 95.6197 179.064 95.3994 175.88C93.2536 176.027 91.4219 176.064 89.6228 176.337C89.1659 176.406 88.4724 177.226 88.4806 177.69C88.5377 180.445 88.7661 183.197 88.9538 186.176C91.377 186.005 93.6371 185.842 96.0685 185.671H96.0726ZM83.7809 72.3763V59.8265C82.8182 59.8265 81.9737 59.6879 81.2149 59.8754C80.7213 59.9977 79.9911 60.5968 79.9829 60.9963C79.8891 64.7584 79.9258 68.5204 79.9258 72.3722H83.7809V72.3763ZM20.2465 72.4007V59.9488H16.6157V72.4007H20.2465ZM42.8307 115.671C42.1698 113.445 41.6476 111.42 40.9378 109.467C40.7501 108.95 39.9954 108.314 39.4732 108.289C36.7685 108.171 34.0556 108.191 31.3468 108.277C30.9103 108.289 30.2535 108.791 30.1107 109.202C29.3968 111.277 28.8216 113.401 28.1648 115.626H33.562C31.51 113.425 31.2652 111.2 32.7991 109.643C34.1087 108.31 36.6543 108.171 37.9597 109.537C38.5676 110.172 39.1958 111.208 39.1102 111.986C38.9715 113.266 38.2657 114.489 37.821 115.671H42.8307ZM45.3478 6.86384H55.057C54.7878 4.0433 52.7888 2.21321 50.1086 2.26212C47.5181 2.30695 45.564 4.1615 45.3478 6.86384ZM45.2539 7.71979C45.7924 10.9275 47.3875 11.9914 51.0305 11.7957C53.519 11.6612 54.902 10.2836 55.057 7.71979H45.258H45.2539ZM70.294 160.486C70.294 160.376 70.294 160.266 70.294 160.156H29.3927C29.3927 160.266 29.3927 160.376 29.3927 160.486H70.29H70.294ZM52.9071 112.276C52.899 110.759 51.3977 109.21 49.9209 109.194C48.3911 109.178 46.9347 110.613 46.8939 112.178C46.849 113.833 48.2891 115.463 49.8352 115.508C51.3039 115.553 52.9153 113.857 52.9071 112.271V112.276ZM38.4207 112.341C38.433 110.686 37.1438 109.28 35.5732 109.231C34.0026 109.182 32.6033 110.535 32.5462 112.157C32.4891 113.861 33.8353 115.455 35.3937 115.524C36.9195 115.589 38.4085 114.028 38.4207 112.345V112.341ZM22.735 162.124C22.5759 162.01 22.4208 161.896 22.2617 161.786C21.9313 162.202 21.3153 162.613 21.3071 163.037C21.2419 167.985 21.2419 172.938 21.3071 177.89C21.3112 178.342 21.8742 178.783 22.1761 179.231C22.3637 179.129 22.5473 179.027 22.735 178.925V162.128V162.124ZM77.4985 162.1C77.3067 162.275 77.115 162.446 76.9192 162.621C76.9192 167.761 76.8988 172.901 76.9559 178.041C76.96 178.469 77.474 178.893 77.7514 179.316C78.0043 178.929 78.4735 178.542 78.4776 178.151C78.5265 173.211 78.5306 168.267 78.4613 163.327C78.4572 162.915 77.833 162.511 77.4985 162.104V162.1ZM36.2219 162.173C36.0709 162.083 35.92 161.998 35.769 161.908C35.4468 162.316 34.8471 162.715 34.843 163.127C34.7573 168.059 34.7369 172.995 34.7859 177.927C34.79 178.363 35.3896 178.791 35.716 179.219C35.8833 179.113 36.0546 179.003 36.2219 178.897V162.169V162.173ZM34.1984 163.135C34.0312 162.943 33.8639 162.752 33.6966 162.556C33.203 163.001 32.2974 163.433 32.281 163.889C32.1668 167.79 32.2158 171.699 32.2158 175.717H34.1984V163.135ZM25.2969 175.644V163.009C23.8446 162.56 23.302 162.935 23.3347 164.374C23.4081 167.688 23.404 171.006 23.3347 174.319C23.3061 175.783 23.9058 176.084 25.2928 175.644H25.2969ZM20.6585 178.811V162.083C18.5494 163.461 18.5575 177.462 20.6585 178.811ZM74.2593 163.245C74.2593 167.313 74.2471 171.161 74.2634 175.008C74.2716 176.643 75.2874 176.109 76.1767 175.999V163.245H74.2553H74.2593ZM65.5577 163.363V175.991C67.0835 176.365 67.6138 176.007 67.5852 174.666C67.5118 171.36 67.5159 168.051 67.5852 164.745C67.6138 163.359 67.1447 162.874 65.5577 163.363ZM79.1507 179.039C80.2739 178.42 80.7662 173.665 80.6275 164.774C80.6152 163.958 80.0686 163.147 79.7708 162.336C79.5627 162.405 79.3547 162.475 79.1466 162.54V179.039H79.1507ZM57.8964 23.7015C52.7195 21.688 47.6364 21.6269 42.5655 23.3999C47.2855 23.783 52.0055 23.995 56.7256 24.158C57.109 24.1702 57.5047 23.8605 57.8964 23.7015ZM44.128 24.6064C44.5278 26.4283 45.4375 26.4894 46.6695 26.4161C49.0193 26.2734 51.3895 26.2449 53.7312 26.4242C55.0733 26.5261 55.9382 26.3305 56.4278 24.6064H44.128ZM62.6082 179.043V162.304C60.8132 163.987 60.9193 177.918 62.6082 179.043ZM64.9172 170.741C64.9172 170.741 64.8846 170.741 64.8642 170.741C64.8642 168.377 64.9009 166.009 64.8316 163.645C64.8193 163.208 64.3706 162.784 64.1217 162.352C63.9096 162.768 63.518 163.18 63.518 163.6C63.4731 168.397 63.469 173.198 63.518 177.996C63.522 178.432 64.0116 178.864 64.2767 179.296C64.4889 178.876 64.8764 178.461 64.8887 178.037C64.9458 175.607 64.9172 173.174 64.9172 170.741ZM74.8835 159.507C74.8917 159.43 74.8998 159.353 74.9121 159.275H24.9338V159.507H74.8835ZM37.1928 162.177V178.783C38.9021 177.478 38.9429 163.657 37.1928 162.177ZM54.8163 94.5045H45.6986V96.3631H54.8163V94.5045ZM87.6728 166.363C90.1205 166.163 92.3276 165.98 94.6284 165.793C94.5713 164.924 94.5183 164.142 94.453 163.135C92.0175 163.347 89.7207 163.543 87.322 163.75C87.4566 164.745 87.5627 165.528 87.6769 166.363H87.6728ZM3.97324 165.723C6.50254 165.915 8.70548 166.086 11.0063 166.261C11.0553 165.352 11.1002 164.517 11.1491 163.628C8.7014 163.437 6.49438 163.265 4.16497 163.082C4.09154 164.089 4.03443 164.871 3.97324 165.723ZM19.1205 150.907C19.2918 150.899 19.4632 150.887 19.6345 150.879C20.4667 139.65 21.299 128.42 22.1271 117.191C21.9517 117.179 21.7763 117.167 21.6009 117.154C20.7727 128.404 19.9486 139.658 19.1205 150.907ZM78.1635 116.991C77.9962 116.971 77.833 116.951 77.6657 116.93C78.4857 128.261 79.3057 139.597 80.1216 150.928C80.3052 150.915 80.4847 150.899 80.6683 150.887C79.832 139.588 78.9957 128.29 78.1594 116.991H78.1635ZM70.4083 161.521C70.4205 161.444 70.4327 161.37 70.445 161.293H29.4131C29.4131 161.37 29.4131 161.444 29.4131 161.521H70.4042H70.4083ZM55.2202 98.8576C55.3508 98.6416 55.4813 98.4296 55.6159 98.2136C55.1305 97.9079 54.6532 97.3617 54.1555 97.3414C51.5323 97.2517 48.901 97.2435 46.282 97.3495C45.7924 97.3699 45.3314 98.0261 44.8541 98.3929C44.9643 98.5478 45.0744 98.7027 45.1846 98.8576H55.2202ZM24.8441 242.815H32.534C31.2938 240.309 26.8757 240.182 24.8441 242.815ZM3.85493 196.57C3.94468 198.628 4.02219 200.373 4.0997 202.101C5.71519 202.191 6.33936 200.711 6.42503 196.77C5.66216 196.708 4.88297 196.651 3.85085 196.57H3.85493ZM94.559 196.59C93.6412 196.745 92.8905 196.871 92.1725 196.99C92.2908 201.188 92.813 202.309 94.559 202.064V196.59ZM74.6755 243.027C73.0926 240.647 68.5929 240.688 67.2507 243.027H74.6755ZM76.6499 96.9338C76.4908 96.946 76.3317 96.9582 76.1726 96.9704C76.6377 103.145 77.1028 109.321 77.5638 115.5C77.731 115.487 77.8983 115.475 78.0655 115.463C77.5923 109.288 77.1191 103.113 76.6459 96.9378L76.6499 96.9338ZM23.5305 96.6729L23.0491 96.6403C22.633 102.905 22.2169 109.17 21.8008 115.434C21.9395 115.443 22.0822 115.455 22.2209 115.463C22.6575 109.198 23.094 102.934 23.5305 96.6688V96.6729ZM18.2516 176.015C18.3536 176.015 18.4515 176.015 18.5535 176.015V165.002C18.4515 165.006 18.3536 165.01 18.2516 165.014V176.019V176.015ZM4.14866 192.021C7.06143 193.028 7.59585 192.653 7.10223 189.841C6.1721 189.796 5.20525 189.747 4.14866 189.694V192.021ZM68.1768 168.629C70.498 167.268 69.4292 165.149 69.5842 163.375C69.6005 163.2 68.7887 162.952 68.1768 162.65V168.633V168.629ZM94.4285 192.416V189.665C93.2903 189.824 92.3276 189.955 91.2424 190.105C91.3036 190.965 91.3525 191.671 91.4056 192.416H94.4285ZM30.1148 162.78C30.5473 164.635 29.0868 166.913 31.6487 168.324C32.1097 162.984 32.0444 162.723 30.1148 162.78ZM73.6678 168.495V162.454C72.9865 162.948 72.24 163.274 72.2645 163.506C72.4644 165.189 71.3058 167.288 73.6678 168.495ZM50.5573 20.0169L51.0305 19.5848C50.8388 17.2534 50.6471 14.922 50.4553 12.5946C50.2758 12.5946 50.0963 12.5987 49.9127 12.6028C49.7332 14.7793 49.513 16.9518 49.4314 19.1324C49.4232 19.4136 50.1616 19.7234 50.5532 20.0209L50.5573 20.0169ZM28.9603 195.755C29.2663 196.549 29.405 197.528 29.7028 197.577C30.7512 197.752 31.869 197.715 32.9134 197.511C33.1663 197.462 33.2357 196.46 33.4274 195.755H28.9603ZM28.9236 225.199C30.4779 225.199 31.5141 225.346 32.4687 225.122C32.8277 225.036 32.9827 224.099 33.2316 223.548C32.0526 223.447 30.8695 223.251 29.6987 223.32C29.4499 223.337 29.2622 224.335 28.9236 225.199ZM28.4626 195.771H24.5707V197.552H28.4626V195.771ZM75.32 223.634H71.3099C71.3588 224.331 71.3996 224.889 71.4363 225.383H75.4302C75.3853 224.702 75.3567 224.192 75.32 223.634ZM66.5246 225.432H70.6204C70.5674 224.751 70.5225 224.197 70.4735 223.634H66.5246V225.432ZM28.7849 225.126C28.4626 224.331 28.3158 223.39 28.0139 223.337C26.9817 223.157 25.8803 223.19 24.8482 223.377C24.6156 223.418 24.5585 224.421 24.3831 225.126H28.7849ZM70.5103 196.02H66.549V197.801H70.5103V196.02ZM75.626 197.817C75.3323 197.03 75.2017 196.06 74.908 196.007C73.8718 195.82 72.7581 195.844 71.7219 196.036C71.4771 196.081 71.42 197.108 71.2405 197.817H75.626ZM33.3988 198.73C33.3417 198.604 33.2846 198.473 33.2275 198.347H29.2826V201.71C30.8451 200.581 32.1219 199.655 33.3988 198.73ZM26.0639 168.263C28.3321 167.056 27.1123 165.087 27.3979 163.543C27.4509 163.265 27.0062 162.899 26.79 162.577C26.5493 162.886 26.1128 163.184 26.0965 163.506C26.0231 165.038 26.0639 166.575 26.0639 168.267V168.263ZM68.1768 176.41C68.8458 175.982 69.5761 175.746 69.5965 175.465C69.6903 174.099 70.0574 172.522 68.1768 171.906V176.414V176.41ZM73.7739 171.947C71.6811 172.669 72.2359 174.234 72.2685 175.55C72.2726 175.754 72.8478 176.121 73.113 176.084C73.3618 176.052 73.7208 175.595 73.7412 175.302C73.8188 174.234 73.7698 173.162 73.7698 171.943L73.7739 171.947ZM30.5391 175.685C32.742 174.902 31.2938 173.003 31.9302 171.43C29.6498 172.428 30.1638 174.059 30.5391 175.685ZM31.8935 227.421C33.0684 227.934 33.9781 228.33 34.9287 228.745V225.089C33.7823 225.97 32.946 226.614 31.8935 227.421ZM28.1934 166.942C30.4861 166.966 29.4907 165.365 29.5926 164.484C29.6416 164.052 29.0256 163.547 28.7115 163.074C28.536 163.18 28.3647 163.286 28.1893 163.392V166.942H28.1934ZM72.0972 165.458C71.6484 164.721 71.2895 164.134 70.9345 163.547C70.6734 164.183 70.2084 164.814 70.2043 165.45C70.2043 166.086 70.6653 166.722 70.9264 167.362C71.2854 166.783 71.6403 166.204 72.0972 165.462V165.458ZM64.8764 229.022C65.8882 228.59 66.7693 228.219 67.8912 227.743C66.8305 226.911 65.9983 226.259 64.8764 225.383V229.022ZM59.6302 162.679C59.5282 162.687 59.4221 162.695 59.3201 162.707V169.868C59.4221 169.868 59.5282 169.86 59.6302 169.86V162.683V162.679ZM76.9192 225.374C75.7973 226.308 74.9733 226.989 74.0105 227.787C75.1405 228.232 76.0258 228.578 76.9192 228.929V225.374ZM22.6738 228.851C23.816 228.334 24.7095 227.926 25.8028 227.433C24.8033 226.646 23.9629 225.986 22.837 225.101C22.7717 226.532 22.7309 227.51 22.6697 228.851H22.6738ZM3.75702 187.697C4.2792 189.074 6.83298 189.898 7.52242 189.119C7.65705 188.964 7.35516 188.08 7.15934 188.043C6.1313 187.843 5.06655 187.811 3.75702 187.701V187.697ZM11.0186 167.264C10.8187 167.239 10.6229 167.211 10.423 167.186C10.2475 169.942 10.0762 172.697 9.90078 175.452C10.0476 175.469 10.1945 175.485 10.3373 175.501C10.5657 172.754 10.7901 170.011 11.0186 167.264ZM72.2073 174.617C71.6281 173.948 71.2405 173.5 70.8489 173.052C70.6163 173.573 70.1921 174.099 70.2002 174.613C70.2084 175.126 70.653 175.632 70.9101 176.141C71.2691 175.721 71.6281 175.298 72.2073 174.617ZM94.7997 166.779C94.608 166.771 94.4203 166.759 94.2286 166.75C94.4611 169.522 94.6896 172.298 94.9221 175.069C95.0853 175.057 95.2526 175.041 95.4158 175.029C95.2118 172.277 95.0037 169.53 94.7997 166.779ZM88.1705 167.337C87.9788 167.354 87.783 167.366 87.5912 167.382C87.8074 170.125 88.0237 172.868 88.2439 175.611C88.3867 175.599 88.5295 175.587 88.6723 175.571C88.505 172.828 88.3378 170.08 88.1705 167.337ZM16.7625 111.077C16.6034 111.065 16.4403 111.053 16.2812 111.041C16.0649 113.775 15.8487 116.51 15.6325 119.245C15.8039 119.258 15.9752 119.274 16.1506 119.286C16.3546 116.551 16.5586 113.812 16.7666 111.077H16.7625ZM3.19405 174.906C3.36539 174.894 3.53673 174.882 3.70807 174.866C3.91204 172.139 4.11602 169.412 4.32 166.689C4.14866 166.677 3.97732 166.665 3.80598 166.653C3.602 169.404 3.39802 172.155 3.19405 174.906ZM26.9613 171.625C26.6676 171.637 26.3698 171.65 26.0761 171.662C26.0761 172.811 26.0435 173.961 26.1006 175.106C26.1128 175.346 26.4229 175.726 26.6431 175.762C26.8594 175.799 27.353 175.465 27.3448 175.314C27.2673 174.083 27.1001 172.856 26.9613 171.625ZM81.4638 165.283C81.3863 165.283 81.3088 165.283 81.2272 165.283V176.235C81.3047 176.235 81.3822 176.235 81.4638 176.235V165.283ZM60.3604 176.202C60.4461 176.202 60.5318 176.211 60.6215 176.211V165.369C60.5358 165.369 60.4502 165.369 60.3604 165.369V176.198V176.202ZM94.8732 188.606C94.7997 188.353 94.7222 188.1 94.6488 187.847C93.3882 187.937 92.1277 188.023 90.8671 188.112C90.8385 188.398 90.8059 188.679 90.7773 188.964C91.5688 189.082 92.3683 189.327 93.1516 189.282C93.735 189.25 94.298 188.846 94.8691 188.606H94.8732ZM28.9358 172.624C28.6992 172.742 28.4626 172.856 28.226 172.974V175.721C28.4259 175.811 28.6258 175.901 28.8257 175.991C29.1031 175.473 29.5967 174.955 29.6008 174.433C29.6049 173.834 29.1765 173.227 28.9358 172.624ZM20.838 111.493C20.6422 111.473 20.4504 111.452 20.2546 111.428C20.12 114.045 19.9813 116.657 19.8467 119.274C19.9731 119.282 20.0996 119.286 20.222 119.294C20.426 116.694 20.6299 114.093 20.838 111.493ZM7.96301 196.619C7.7468 196.562 7.53058 196.505 7.31437 196.448C6.96353 198.38 6.60861 200.316 6.25777 202.248C6.47398 202.288 6.6902 202.325 6.91049 202.366C7.26133 200.45 7.61217 198.534 7.96709 196.619H7.96301ZM39.461 165.234L39.2244 165.303V175.856C39.3019 175.856 39.3835 175.856 39.461 175.856V165.234ZM82.447 119.311C82.6061 119.298 82.7611 119.29 82.9202 119.278C82.7203 116.539 82.5163 113.804 82.3164 111.065C82.1614 111.077 82.0064 111.085 81.8473 111.098C82.0472 113.837 82.2471 116.572 82.447 119.311ZM91.6504 202.472C91.887 202.435 92.1236 202.403 92.3561 202.366C91.9808 200.426 91.6096 198.486 91.2342 196.545C91.0466 196.586 90.8548 196.623 90.6672 196.664C90.9935 198.6 91.324 200.536 91.6504 202.472ZM78.1471 199.574C78.0941 199.574 78.0411 199.574 77.988 199.574V209.103C78.0411 209.103 78.0941 209.103 78.1471 209.103V199.574ZM21.7151 208.728C21.8008 208.728 21.8905 208.724 21.9762 208.72C21.9762 205.908 21.9762 203.1 21.9762 200.287C21.9762 199.912 21.9231 199.541 21.8946 199.166C21.6253 201.979 21.6213 204.783 21.6294 207.591C21.6294 207.97 21.6906 208.345 21.7192 208.724L21.7151 208.728Z" fill="#F8F8F8"/>
<path d="M202.61 87.5143C200.35 88.7534 200.819 90.824 201.198 92.7152C201.329 93.3674 202.153 94.1295 202.83 94.37C204.662 95.0222 206.656 95.2464 208.46 95.9556C214.42 98.2951 217.622 103.109 219.266 108.97C220.931 114.909 220.853 121.063 220.327 127.141C219.744 133.87 215.236 137.974 209.777 141.149C207.995 142.185 205.983 142.825 203.666 143.823C203.964 144.17 204.282 144.683 204.731 145.026C206.738 146.575 208.737 148.152 210.846 149.558C211.544 150.023 212.564 150.141 213.441 150.165C216.243 150.239 216.386 150.19 216.46 152.888C216.582 157.2 216.492 161.517 216.492 165.899C215.407 166.029 214.624 166.123 213.604 166.249C213.604 168.984 213.604 171.674 213.604 174.364C213.604 177.959 213.555 181.554 213.624 185.149C213.653 186.547 213.449 187.318 211.776 187.595C210.157 187.868 208.647 188.789 206.73 189.572C206.758 189.335 206.595 189.706 206.705 189.955C208.978 195.156 208.456 200.536 207.868 205.953C207.57 208.704 207.631 211.492 207.456 214.259C207.379 215.474 207.207 216.615 205.637 217.068C205.143 217.21 204.739 218.445 204.694 219.199C204.572 221.364 204.617 223.54 204.67 225.709C204.788 230.685 204.955 235.658 205.094 240.631C205.119 241.487 205.094 242.347 205.094 243.337H174.832C174.122 241.381 175.04 239.783 176.125 238.344C178.961 234.594 183.195 233.518 187.519 232.87C190.257 232.458 193.051 232.442 196.058 232.23C196.058 231.028 196.058 229.76 196.058 228.493C196.062 225.44 196.082 222.387 196.07 219.334C196.066 217.989 195.984 216.782 194.034 216.86C193.529 216.88 192.717 215.988 192.521 215.364C192.162 214.219 192.097 212.967 192.023 211.757C191.746 207.326 191.521 202.892 191.264 198.457C191.252 198.265 191.134 198.082 191.114 198.029C188.237 197.54 185.463 196.994 182.665 196.623C180.397 196.321 180.988 194.724 181.037 193.391C181.086 192.037 181.323 190.774 183.199 190.917C185.631 191.096 188.074 191.141 190.502 191.369C192.411 191.548 192.823 191.177 192.603 189.445C190.599 188.687 188.743 188.047 186.952 187.26C186.524 187.073 186.136 186.433 186.034 185.936C184.48 178.603 185.145 171.165 185.121 163.767C185.113 161.529 185.949 159.3 186.018 157.05C186.21 150.887 189.898 147.447 194.985 144.989C195.47 144.757 195.98 144.577 196.462 144.341C196.539 144.304 196.539 144.1 196.637 143.746C192.749 142.817 188.968 141.586 186.275 138.366C187.124 138.891 187.956 139.442 188.825 139.935C191.065 141.202 193.214 142.719 195.695 142.837C195.283 137.624 194.903 132.602 194.446 127.585C194.414 127.23 193.794 126.647 193.439 126.639C189.049 126.574 184.66 126.598 180.091 126.598C180.303 129.476 180.968 131.913 182.563 134.004C183.742 135.549 185.08 136.968 186.349 138.443C182.763 136.442 180.829 133.185 179.87 129.378C179.52 127.996 179.972 126.419 179.989 124.931C180.001 123.79 179.976 122.641 179.834 121.512C178.859 113.608 180.817 106.565 185.855 100.366C188.906 96.6118 193.072 95.1934 197.612 94.3415C198.289 94.2151 199.02 93.0902 199.26 92.2872C199.583 91.2193 199.448 90.0169 199.517 88.7412C197.571 87.8567 195.829 86.6421 196.535 84.0579C197.004 82.3297 198.293 81.2904 200.101 81.2455C201.879 81.2007 203.27 82.0118 203.805 83.8093C204.25 85.3133 204.221 86.7521 202.532 87.5795C202.826 86.9437 203.115 86.3078 203.47 85.5416H196.731C197.441 86.3771 197.828 87.2698 198.351 87.3594C199.734 87.5958 201.178 87.4817 202.597 87.5102L202.61 87.5143ZM182.277 107.821C185.867 106.496 188.552 108.114 190.901 110.433C195.026 114.513 195.022 116.682 190.579 120.432C187.797 122.779 184.892 125.335 180.662 123.876C180.609 124.662 180.56 125.359 180.507 126.105C184.696 126.105 188.768 126.142 192.839 126.085C194.206 126.064 195.462 125.861 195.63 123.965C195.842 121.577 197.832 119.816 200.076 119.73C202.283 119.645 204.417 121.357 204.923 123.619C205.384 125.685 204.205 127.988 201.977 128.791C200.851 129.199 200.778 129.814 200.786 130.756C200.815 134.147 200.806 137.538 200.786 140.929C200.782 141.651 200.672 142.372 200.615 143.09C200.146 139.397 200.146 135.741 200.146 132.089C200.146 129.264 198.351 127.736 195.295 128.094C195.173 133.552 195.401 138.957 197.527 144.206H202.63C203.364 143.619 203.907 142.861 204.6 142.678C209.365 141.418 213.143 138.7 216.345 135.068C218.483 132.643 219.674 129.765 219.686 126.582C219.707 121.642 219.837 116.649 219.201 111.774C218.581 107.022 216.957 102.506 212.507 99.6035C206.983 95.9963 201.084 95.5357 194.785 96.7626C188.445 97.9976 184.211 101.442 182.277 107.817V107.821ZM197.404 171.76C197.404 170.606 197.31 169.652 197.425 168.727C197.661 166.807 197.172 165.613 195.23 164.619C192.284 163.111 190.914 159.124 191.734 156.006C192.7 152.338 195.948 149.473 199.309 149.322C203.222 149.146 206.522 151.751 207.701 155.953C208.655 159.344 206.869 163.286 203.634 165.104C203.071 165.422 202.32 165.992 202.267 166.51C202.096 168.23 202.202 169.974 202.202 171.69H209.471C209.528 171.352 209.594 171.156 209.594 170.961C209.602 166.555 209.663 162.149 209.59 157.743C209.508 152.782 205.783 148.604 201.337 148.123C195.067 147.443 190.693 151.262 190.167 156.055C189.612 161.138 189.988 166.327 189.967 171.466C189.967 171.556 190.155 171.65 190.273 171.756H197.396L197.404 171.76ZM175.673 243.284C176.949 242.881 178.169 242.286 179.43 242.159C180.703 242.029 182.024 242.359 183.795 242.53C184.815 241.646 188.266 241.642 189.902 242.95C191.758 241.377 193.631 241.837 195.752 243.129V235.846C195.405 235.764 195.275 235.707 195.144 235.707C192.839 235.699 190.538 235.748 188.237 235.666C187.47 235.638 186.345 235.515 186.03 235.022C185.268 233.824 184.476 234.015 183.477 234.439C182.114 235.014 180.678 235.45 179.385 236.151C176.607 237.655 175.052 240.48 175.673 243.292V243.284ZM188.69 172.97C188.69 168.43 188.719 164.162 188.649 159.899C188.641 159.414 188.099 158.937 187.805 158.456C187.581 158.933 187.169 159.41 187.165 159.891C187.116 164.57 187.132 169.249 187.132 173.928C187.132 176.349 187.132 178.774 187.132 181.403C190.432 181.403 193.537 181.452 196.633 181.326C196.919 181.314 197.547 179.859 197.355 179.63C195.577 177.535 195.711 175.379 197.074 172.97H188.69ZM200.513 203.136C200.631 202.162 200.607 201.375 200.884 200.707C200.961 200.515 202.316 200.532 202.385 200.715C202.646 201.42 202.63 202.231 202.724 203.071H204.033C204.033 202.227 203.919 201.481 204.103 200.813C204.16 200.605 205.42 200.467 205.453 200.552C205.759 201.355 205.918 202.215 206.134 203.112C206.232 202.973 206.612 202.696 206.599 202.431C206.461 199.256 206.326 196.077 206.028 192.914C205.975 192.339 205.294 191.552 204.723 191.34C201.508 190.138 198.224 190.118 195.014 191.357C194.442 191.577 193.757 192.319 193.696 192.885C193.394 195.547 193.292 198.229 193.141 200.577C194.198 200.691 195.213 200.511 195.662 200.935C196.037 201.29 195.74 202.35 195.74 203.12H196.964C197.131 202.178 197.188 201.371 197.469 200.654C197.531 200.499 198.775 200.532 198.828 200.691C199.073 201.424 199.085 202.235 199.195 203.132H200.525L200.513 203.136ZM212.327 158.684C212.086 158.554 211.842 158.419 211.601 158.289C211.344 158.888 210.875 159.483 210.867 160.082C210.801 164.325 210.834 168.568 210.834 173.003H202.41C204.89 175.962 202.589 178.509 202.079 181.306H212.331V158.684H212.327ZM184.288 120.489C185.565 120.044 187.136 119.926 188.046 119.091C189.596 117.672 190.155 115.703 189.314 113.535C188.499 111.436 186.663 112.019 185.153 111.925C180.552 111.64 180.552 111.685 180.254 116.36C180.009 120.211 180.266 120.46 184.288 120.489ZM211.727 157.767C211.919 157.616 212.111 157.461 212.303 157.311C212.413 151.099 206.962 145.596 200.423 145.319C193.312 145.018 187.764 150.059 187.475 157.518C188.013 157.266 188.609 156.883 188.67 156.422C189.465 150.646 193.998 146.591 199.672 146.477C205.065 146.371 210.438 150.785 210.834 156.438C210.867 156.899 211.413 157.323 211.723 157.767H211.727ZM197.412 182.447H187.226V186.641H197.412V182.447ZM202.312 182.431V186.608H212.262V182.431H202.312ZM199.758 150.516C196.139 150.532 193.59 153.055 193.582 156.626C193.573 160.286 196.184 162.866 199.876 162.842C203.446 162.817 205.963 160.233 205.943 156.614C205.922 153.006 203.385 150.504 199.758 150.52V150.516ZM198.257 179.777V188.687H201.488V179.777H198.257ZM196.674 220.337V229.251C199.942 229.862 200.064 229.76 199.88 226.744C199.844 226.141 199.795 225.517 199.905 224.93C200.394 222.33 199.472 220.736 196.674 220.337ZM203.683 229.397V220.198C202.593 220.712 201.598 221.18 200.647 221.629V229.397H203.683ZM198.224 164.191V172.334H201.312V164.191H198.224ZM196.58 239.836V242.885H203.266C203.205 242.049 203.156 241.373 203.132 241.01C200.717 240.578 198.636 240.203 196.58 239.836ZM193.761 211.704C193.006 215.16 193.737 215.816 197.445 215.058C197.535 214.015 197.629 212.923 197.73 211.704H193.761ZM206.216 211.846H202.112C202.218 213.077 202.312 214.125 202.41 215.23H205.755C205.914 214.076 206.057 213.029 206.216 211.846ZM203.45 84.6C202.903 82.5294 201.635 81.6776 199.86 81.8855C198.44 82.0526 197.278 82.8025 197.265 84.6H203.45ZM213.779 154.885C213.302 160.001 213.767 161.558 215.566 161.154V154.885H213.779ZM181.482 194.658C182.995 194.952 184.333 195.209 185.794 195.49C185.879 194.291 185.945 193.387 186.014 192.429H181.886C181.751 193.162 181.645 193.753 181.482 194.658ZM203.438 217.932H197.07L196.825 218.649C197.959 219.163 199.048 219.941 200.231 220.121C201.651 220.337 202.756 219.481 203.438 217.932ZM196.809 234.501H203.421C201.757 231.342 198.856 231.309 196.809 234.501ZM181.139 110.384C181.253 110.596 181.368 110.808 181.482 111.02C183.542 111.147 185.602 111.273 187.838 111.407C186.744 109.826 185.463 108.693 183.636 108.913C182.759 109.019 181.967 109.871 181.139 110.384ZM203.315 236.094H197.229C197.135 236.318 197.041 236.543 196.947 236.763C197.975 237.252 198.963 237.969 200.048 238.177C201.455 238.446 202.675 237.867 203.319 236.094H203.315ZM189.6 120.22C193.99 117.028 194.316 114.709 190.767 111.526C192.97 114.786 192.109 117.619 189.6 120.22ZM212.013 150.924C213.025 153.532 213.637 153.944 215.525 153.52V150.924H212.013ZM195.638 234.977C195.625 234.659 195.609 234.346 195.597 234.028C192.77 234.162 189.943 234.293 187.116 234.423C187.12 234.606 187.124 234.79 187.132 234.977H195.638ZM186.169 121.043H180.605C181.739 123.517 182.669 123.517 186.169 121.043ZM197.788 207.298H193.59L193.308 207.934C193.871 208.219 194.495 208.814 194.985 208.72C195.952 208.537 197.739 209.707 197.792 207.298H197.788ZM202.854 124.283C201.149 124.964 199.791 125.502 198.163 126.154C200.806 127.536 202.026 127.043 202.854 124.283ZM215.623 162.067C214.738 162.589 213.951 162.789 213.739 163.249C213.473 163.832 213.673 164.631 213.673 165.507C214.477 165.45 215.032 165.409 215.623 165.365V162.067ZM197.612 124.605C199.322 124.006 200.713 123.517 202.242 122.983C199.946 121.312 198.738 121.707 197.612 124.605ZM192.431 159.063C192.676 161.973 194.928 164.558 197.661 164.606C196.454 163.73 195.319 163.127 194.491 162.238C193.651 161.333 193.112 160.147 192.427 159.063H192.431ZM201.235 207.359C201.231 207.608 201.223 207.852 201.218 208.101H206.142C206.142 207.852 206.142 207.608 206.147 207.359H201.231H201.235ZM199.007 214.288C198.926 215.022 198.848 215.67 198.767 216.383H200.941C200.929 215.062 201.251 213.636 199.007 214.288ZM197.653 174.556H202.226C200.203 172.75 199.268 172.766 197.653 174.556ZM202.279 164.672C204.792 164.117 206.648 162.035 206.791 160.168C205.486 161.468 203.882 163.07 202.279 164.672ZM202.067 177.548H197.714C199.395 179.162 200.178 179.166 202.067 177.548Z" fill="#F8F8F8"/>
<path d="M180.743 66.3154C180.16 64.0614 181.522 63.6864 182.934 63.5438C185.218 63.3114 187.519 63.2381 189.808 63.0506C191.88 62.8835 192.443 62.1865 192.345 60.2749C189.069 59.5697 185.777 59.1051 182.66 58.1024C180.249 57.328 178.034 55.9218 175.782 54.7031C174.428 53.9735 173.69 52.8078 173.996 51.1733C174.02 51.0429 174.02 50.8962 173.996 50.7657C173.123 46.5635 175.378 44.3625 178.956 42.9929C179.266 42.8747 179.544 42.6709 179.727 42.565C179.462 39.9604 178.989 37.4415 179.017 34.9267C179.046 32.4607 179.589 30.0029 179.923 27.3944C178.724 26.6403 177.312 25.7314 175.88 24.851C174.656 24.101 174.44 22.9883 174.22 21.6188C173.498 17.1719 175.676 14.653 179.519 13.3446C183.142 12.1096 186.887 11.2251 190.567 10.1532C191.305 9.93714 191.998 9.57438 192.712 9.28092C191.917 8.48611 191.223 7.18589 190.305 6.9984C188.074 6.54597 185.732 6.61934 183.44 6.46037C182.836 6.41962 182.102 6.47668 181.677 6.15876C181.171 5.77562 180.931 5.03787 180.576 4.45502C181.045 4.17785 181.486 3.7132 181.983 3.65206C184.737 3.31376 187.503 3.08143 190.261 2.78796C190.64 2.7472 191.317 2.60454 191.329 2.45781C191.546 0.281264 193.255 0.892653 194.442 0.872274C198.836 0.807059 203.229 0.900805 207.619 0.87635C208.822 0.868198 209.251 1.29209 209.324 2.5271C209.487 5.18053 209.124 7.71168 207.966 10.0961C207.774 10.4915 207.154 10.6545 206.807 11.001C206.383 11.4249 206.032 11.9303 205.653 12.4031C205.771 12.5824 205.893 12.7658 206.012 12.9452C208.3 12.9452 210.589 13.0104 212.873 12.9207C214.371 12.8637 215.048 13.3854 214.864 14.9057C214.534 17.6733 215.456 19.7764 217.316 22.0223C224.17 30.2923 223.574 42.0555 216.137 49.7182C214.717 51.1815 214.876 52.7385 214.864 54.4015C214.844 57.0223 214.77 57.0916 212.102 57.059C210.075 57.0345 208.047 57.0549 205.689 57.0549C205.926 57.7193 205.983 58.3266 206.309 58.6893C206.758 59.1866 207.664 59.3782 207.929 59.9162C209.214 62.5452 209.695 65.3576 209.153 68.2515C209.088 68.602 208.264 69.0381 207.786 69.0463C202.915 69.0993 198.04 69.083 193.169 69.0585C192.712 69.0585 191.933 68.9688 191.856 68.7365C190.979 66.0749 188.617 67.151 186.911 66.8127C184.937 66.4255 182.881 66.4621 180.747 66.3032L180.743 66.3154ZM221.387 36.0924C221.33 30.4268 220.025 25.8618 216.704 22.2668C214.358 19.7275 211.572 17.445 208.602 15.6924C206.897 14.6856 204.437 14.8609 202.303 14.6856C197.881 14.3228 193.912 15.3133 190.473 18.3988C185.765 22.6214 182.701 27.8957 180.327 33.6061C179.89 34.6536 180.05 36.284 180.576 37.3274C182.33 40.8123 184.202 44.2646 186.361 47.5091C188.592 50.8636 191.533 53.839 195.409 55.021C199.268 56.199 203.344 55.7384 207.403 55.0047C208.994 54.7153 209.74 53.7371 210.846 53.1094C217.716 49.2047 221.02 43.1193 221.383 36.0883L221.387 36.0924ZM195.882 11.9751C188.621 10.1939 182.399 12.0852 176.562 15.7453C175.036 16.7032 174.575 17.9993 175.121 19.9191H181.84C181.84 20.0618 181.845 20.2044 181.849 20.3511C179.576 20.4571 177.308 20.5672 175.068 20.6691C174.779 23.7423 176.243 25.2871 180.462 26.5466C182.081 24.1499 183.048 21.309 185.357 19.3729C185.561 19.2017 185.549 18.7412 185.577 18.411C185.692 17.1352 185.871 15.8554 185.859 14.5796C185.847 13.3487 186.316 12.884 187.54 12.9126C189.84 12.9656 192.149 12.9778 194.446 12.88C194.936 12.8596 195.405 12.293 195.882 11.9792V11.9751ZM174.652 50.138C174.24 51.8459 174.477 53.2398 175.994 54.0876C177.998 55.2085 179.968 56.4965 182.118 57.2179C186.153 58.5671 190.301 59.6839 194.634 58.6201C195.038 58.5222 195.364 58.0943 195.723 57.8212C195.311 57.5888 194.903 57.1772 194.483 57.1609C192.447 57.0916 190.407 57.0794 188.376 57.1527C186.838 57.2098 185.72 57.0753 185.789 55.0495C185.83 53.8675 185.492 52.6407 185.149 51.4913C184.994 50.9736 184.419 50.2073 184.011 50.1951C180.91 50.0851 177.806 50.134 174.652 50.134V50.138ZM207.337 64.2571V59.8428H193.271V64.2571H207.337ZM193.222 10.1817H207.325V5.83268H193.222V10.1817ZM183.676 49.4207C182.452 47.2686 181.31 45.2592 180.164 43.2538C175.248 45.1328 174.212 46.2863 174.734 49.4207H183.676ZM196.441 14.0864C198.77 14.0864 200.851 14.0171 202.919 14.1068C204.955 14.1965 205.188 13.9968 204.849 11.7795H196.547C196.51 12.5539 196.478 13.2101 196.437 14.0905L196.441 14.0864ZM205.567 58.673C204.931 57.5725 204.584 56.3701 204.155 56.3375C201.638 56.1541 199.101 56.2479 196.441 56.2479C196.494 57.2016 196.535 57.9108 196.576 58.673H205.567ZM196.286 66.4744C195.185 66.2135 194.079 65.9567 192.908 65.6796C193.059 67.367 193.116 67.3874 196.286 66.4744ZM207.831 4.30013C207.754 2.66976 206.868 2.45373 203.98 3.43603C205.502 3.77841 206.644 4.0352 207.831 4.30013ZM204.376 66.4621C207.272 67.4934 207.811 67.3262 207.815 65.6143C206.644 65.9037 205.51 66.1809 204.376 66.4621Z" fill="#F8F8F8"/>
<path d="M78.2413 53.3539C77.9191 59.6757 72.8482 65.704 65.7376 65.7937C58.933 65.8752 53.1196 60.0874 53.1441 53.2969C53.1686 46.4656 58.9166 40.7063 65.6927 40.7145C72.7177 40.7226 77.9925 47.1178 78.2454 53.3539H78.2413ZM66.2353 60.1526C67.4959 60.0874 69.5275 60.0018 71.5591 59.8754C74.6432 59.6879 75.3163 59.4597 75.8222 56.4231C76.2138 54.055 75.7895 51.5116 75.4428 49.0864C75.3571 48.4954 74.1618 47.6517 73.4561 47.6313C68.6626 47.5009 63.8569 47.452 59.0635 47.5947C56.0691 47.6843 55.6734 48.1164 55.1308 50.8758C54.6087 53.5333 54.7759 56.1745 56.3261 58.4937C56.73 59.0969 57.6234 59.6472 58.3455 59.7206C60.7035 59.9733 63.0859 59.9977 66.2394 60.1444L66.2353 60.1526ZM74.1496 46.7672C71.7549 43.7266 68.6749 42.4223 64.9258 42.6302C61.601 42.8095 58.9697 44.2565 57.0931 46.7672H74.1496ZM73.4275 60.4053H57.8274C61.4623 65.2108 69.8702 65.219 73.4275 60.4053Z" fill="#F8F8F8"/>
<path d="M47.2941 53.3417C47.2819 60.1974 41.5012 65.9119 34.7047 65.7937C27.8837 65.6755 22.3478 60.0914 22.3438 53.3295C22.3438 46.5919 28.0265 40.7471 34.6068 40.7267C41.5787 40.7063 47.3104 46.4085 47.2982 53.3458L47.2941 53.3417ZM41.9744 44.1015C41.9214 44.0486 41.8724 43.9915 41.8194 43.9385C36.6466 39.8748 29.0056 40.9753 25.1464 46.3392C21.2137 51.8091 22.4825 59.2151 27.9898 62.9405C32.4773 65.973 38.0499 65.8303 41.6113 62.59C42.3416 61.8033 43.0718 61.0207 43.802 60.2341C44.0713 60.071 44.4262 59.9651 44.6016 59.7327C48.11 55.021 46.8454 47.5539 41.9785 44.1056L41.9744 44.1015Z" fill="#F8F8F8"/>
<path d="M49.7783 121.124C55.82 121.124 61.8577 121.177 67.8995 121.092C69.8087 121.063 70.4859 121.687 70.5797 123.643C70.9551 131.29 71.7179 138.924 71.8403 146.57C71.873 148.604 70.335 150.805 69.0866 152.635C68.6134 153.332 66.9204 153.402 65.7781 153.406C54.7838 153.459 43.7895 153.406 32.7952 153.471C31.0165 153.483 30.1149 152.937 29.1726 151.335C27.606 148.666 27.2307 146.073 27.5693 143.037C28.2792 136.646 28.683 130.214 29.0787 123.79C29.2052 121.72 29.964 121.031 32.065 121.076C37.968 121.21 43.8711 121.12 49.7783 121.12V121.124ZM68.9316 150.989C70.2248 149.534 71.416 148.107 71.2447 145.91C70.6817 138.818 70.1881 131.718 69.7353 124.618C69.5639 121.887 69.6455 121.858 66.9979 121.854C55.5181 121.842 44.0384 121.895 32.5586 121.805C30.5107 121.789 29.8824 122.539 29.76 124.454C29.3154 131.42 28.8177 138.382 28.1813 145.331C27.9283 148.107 29.6376 150.002 30.735 152.179C30.8941 152.493 31.6815 152.607 32.1792 152.611C43.7936 152.635 55.4121 152.615 67.0265 152.648C68.3034 152.648 68.9275 152.167 68.9969 150.919L68.9275 150.989H68.9316Z" fill="#F8F8F8"/>
<path d="M205.18 127.075C205.955 128.062 206.762 128.653 206.685 129.093C206.583 129.688 205.877 130.438 205.286 130.593C204.927 130.691 203.923 129.822 203.894 129.341C203.858 128.759 204.535 128.131 205.18 127.071V127.075Z" fill="#F8F8F8"/>
<path d="M209.904 123.99C208.867 124.777 208.304 125.526 207.721 125.547C207.232 125.563 206.285 124.683 206.322 124.267C206.371 123.664 207.056 122.767 207.603 122.657C208.117 122.555 208.802 123.309 209.9 123.99H209.904Z" fill="#F8F8F8"/>
<path d="M205.343 121.153C204.629 120.146 203.907 119.563 203.898 118.972C203.894 118.491 204.849 117.538 205.196 117.615C205.804 117.75 206.566 118.442 206.709 119.033C206.815 119.474 206.044 120.126 205.343 121.153Z" fill="#F8F8F8"/>
<path d="M203.05 194.495C203.05 196.215 201.7 197.515 199.905 197.511C198.118 197.511 196.743 196.223 196.702 194.52C196.666 192.885 198.102 191.393 199.766 191.336C201.541 191.275 203.046 192.722 203.046 194.495H203.05Z" fill="#F8F8F8"/>
<path d="M196.682 152.538C199.513 150.932 202.014 151.254 203.732 153.251C205.498 155.309 205.457 157.71 203.462 160.253C201.223 157.706 199.016 155.191 196.686 152.538H196.682ZM203.209 158.965C204.303 156.813 204.119 155.061 202.683 153.646C201.423 152.407 199.836 152.13 197.947 153.01C199.721 155.016 201.357 156.87 203.205 158.965H203.209Z" fill="#F8F8F8"/>
<path d="M196.16 153.076C198.383 155.607 200.59 158.122 202.805 160.645C200.378 162.43 197.894 162.23 195.984 160.225C193.977 158.118 193.998 155.607 196.16 153.076ZM196.372 154.262C195.213 156.288 195.389 158.04 196.727 159.483C197.947 160.795 199.574 161.17 201.635 160.286C199.823 158.211 198.159 156.308 196.368 154.262H196.372Z" fill="#F8F8F8"/>
<path d="M200.888 42.5731C197.029 41.8639 193.21 41.171 189.4 40.4536C188.013 40.1927 187.348 39.4509 187.483 37.898C187.638 36.1494 187.646 34.3642 187.483 32.6197C187.336 31.0545 188.103 30.5572 189.376 30.0396C192.509 28.7598 195.703 28.2706 199.081 28.4011C203.523 28.5723 208.003 28.0342 212.258 30.0233C213.575 30.6388 214.163 31.2216 214.057 32.6808C213.93 34.3642 213.885 36.0842 214.065 37.7594C214.253 39.5121 213.449 40.2498 211.919 40.5351C208.305 41.2076 204.686 41.872 200.888 42.5772V42.5731ZM204.719 40.4903C205.155 40.5188 205.482 40.5596 205.812 40.5596C208.639 40.5881 208.978 40.258 208.978 37.4986C208.978 35.7378 208.876 33.9688 209.006 32.2202C209.125 30.6795 208.37 30.1293 207.04 30.0396C206.257 29.9866 205.465 30.0314 204.715 30.0314V40.4903H204.719ZM196.87 40.5677V30.1007C196.397 30.0641 195.94 30.0029 195.483 29.9988C193.006 29.9866 192.729 30.2719 192.725 32.7827C192.725 34.6128 192.835 36.4551 192.692 38.273C192.566 39.9237 193.398 40.4577 194.797 40.5555C195.458 40.6044 196.127 40.5637 196.87 40.5637V40.5677ZM200.729 38.5991C202.499 38.6317 204.123 37.0991 204.197 35.3179C204.27 33.5164 202.544 31.7433 200.737 31.7678C199.036 31.7923 197.339 33.5164 197.351 35.2038C197.363 36.9646 198.958 38.5664 200.733 38.5991H200.729ZM191.554 31.0708C189.616 31.1523 188.715 31.9349 189 33.8669C189.139 34.7881 189.123 35.7581 189 36.6834C188.747 38.6439 189.751 39.2757 191.55 39.3368V31.0749L191.554 31.0708ZM210.014 39.3368C211.825 39.2716 212.837 38.5991 212.556 36.6222C212.433 35.7622 212.441 34.8614 212.556 34.0014C212.813 32.0694 212.058 31.079 210.014 31.0708V39.3368ZM203.36 38.974H198.118C198.159 39.345 198.22 39.9074 198.285 40.4862H203.36V38.974ZM203.377 30.0926H198.204V31.4295H203.377V30.0926Z" fill="#F8F8F8"/>
<path d="M43.8016 60.2341C43.0714 61.0207 42.3411 61.8033 41.6109 62.59C39.3141 63.2747 37.0418 64.4241 34.7165 64.5464C30.1638 64.7869 25.7742 61.4039 24.1832 57.0752C22.584 52.7221 23.918 47.9003 27.6304 44.6151C30.7635 41.8394 35.9322 41.2892 39.9873 43.2741C40.5665 43.5595 41.207 43.7184 41.819 43.9385C41.872 43.9915 41.9209 44.0486 41.974 44.1015C42.8144 45.4058 43.6507 46.7142 44.491 48.0185C38.5227 46.865 32.5217 46.7224 26.5167 47.6313C25.9741 47.7128 25.2847 48.2753 25.0684 48.7848C23.6977 51.9966 23.6977 55.2574 25.407 58.3347C25.7987 59.0398 26.9205 59.7327 27.7283 59.7572C32.2647 59.8917 36.8093 59.8999 41.3417 59.7654C42.4023 59.7327 43.4426 58.9746 44.491 58.5466C44.2626 59.1091 44.0301 59.6716 43.8016 60.2341ZM26.4963 46.7754H43.2142C39.1428 41.1791 30.6247 41.0813 26.4963 46.7754ZM27.1735 60.4134C30.943 66.026 40.9337 64.2407 42.4023 60.4134H27.1735Z" fill="#F8F8F8"/>
<path d="M44.4136 58.6282C45.8577 55.0699 45.8251 51.5116 44.4136 47.9533C46.6981 50.9084 46.6981 55.6242 44.4136 58.6282Z" fill="#F8F8F8"/>
<path d="M68.887 147.577C68.732 145.429 68.577 143.285 68.4138 141.031H31.0209C31.2248 143.452 29.6828 145.886 31.3187 148.233C31.7021 148.784 32.5221 149.354 33.1463 149.358C44.1447 149.428 55.1472 149.44 66.1456 149.342C66.937 149.334 67.7203 148.417 68.5076 147.92C68.2751 149.807 67.3694 150.667 65.3093 150.646C54.9962 150.565 44.6791 150.61 34.3661 150.61C31.8123 150.61 29.9847 148.857 30.1274 146.224C30.3722 141.696 30.7843 137.18 31.1432 132.659C31.335 130.23 31.592 127.809 31.7552 125.38C31.8368 124.202 32.359 123.7 33.5461 123.7C44.4017 123.717 55.2614 123.717 66.117 123.7C67.5979 123.7 67.9406 124.626 68.0099 125.808C68.3077 130.74 68.5851 135.676 68.8788 140.607C68.9604 141.957 69.1195 143.306 69.1359 144.659C69.1481 145.629 68.9768 146.599 68.887 147.569V147.577ZM67.9324 132.765H31.6777C31.4982 135.093 31.3228 137.359 31.1392 139.76H68.3118C68.1853 137.416 68.067 135.207 67.9365 132.765H67.9324ZM32.3059 124.495C32.1305 126.929 31.9714 129.174 31.8123 131.375H67.7855C67.6591 129.586 67.4469 127.968 67.4592 126.35C67.4755 124.609 66.6596 124.296 65.0849 124.304C54.8983 124.369 44.7077 124.332 34.5211 124.344C33.7949 124.344 33.0729 124.442 32.3059 124.495Z" fill="#F8F8F8"/>
</g>
<defs>
<clipPath id="clip0_527_35">
<rect width="222" height="248" fill="white"/>
</clipPath>
</defs>
</svg>
