<svg width="62" height="62" viewBox="0 0 62 62" fill="none" xmlns="http://www.w3.org/2000/svg">
<circle cx="31" cy="31" r="30.5" transform="rotate(180 31 31)" stroke="white"/>
<path d="M36.3086 15.376C36.5135 15.3735 36.7167 15.4139 36.9051 15.4946C37.0934 15.5753 37.2628 15.6946 37.4023 15.8447C38.0273 16.4697 38.0273 17.4385 37.4023 18.0635L24.4336 31.0322L37.4023 43.9697C38.0273 44.5947 38.0273 45.5635 37.4023 46.1885C36.7773 46.8135 35.8086 46.8135 35.1836 46.1885L21.1524 32.0947C20.5274 31.4697 20.5274 30.501 21.1524 29.876L35.2148 15.8447C35.5273 15.5322 35.9336 15.376 36.3086 15.376Z" fill="#F5F5F5"/>
</svg>
